<?xml version="1.0" encoding="UTF-8"?>
<!--
  PocketLog category icon sprite.
  Icons are from Phosphor (https://phosphoricons.com), Regular weight,
  MIT-licensed. See LICENSE.txt in this directory.

  Each <symbol id="cat-…"> mirrors a Phosphor `regular/<name>.svg`.
  Regenerate via author-time tooling — do not hand-edit individual
  paths in this file.
-->
<svg xmlns="http://www.w3.org/2000/svg" style="display:none" aria-hidden="true" fill="currentColor">
  <!-- Haus & Haushalt -->
  <symbol id="cat-house" viewBox="0 0 256 256"><path d="M219.31,108.68l-80-80a16,16,0,0,0-22.62,0l-80,80A15.87,15.87,0,0,0,32,120v96a8,8,0,0,0,8,8h64a8,8,0,0,0,8-8V160h32v56a8,8,0,0,0,8,8h64a8,8,0,0,0,8-8V120A15.87,15.87,0,0,0,219.31,108.68ZM208,208H160V152a8,8,0,0,0-8-8H104a8,8,0,0,0-8,8v56H48V120l80-80,80,80Z"/></symbol>
  <symbol id="cat-buildings" viewBox="0 0 256 256"><path d="M240,208H224V96a16,16,0,0,0-16-16H144V32a16,16,0,0,0-24.88-13.32L39.12,72A16,16,0,0,0,32,85.34V208H16a8,8,0,0,0,0,16H240a8,8,0,0,0,0-16ZM208,96V208H144V96ZM48,85.34,128,32V208H48ZM112,112v16a8,8,0,0,1-16,0V112a8,8,0,1,1,16,0Zm-32,0v16a8,8,0,0,1-16,0V112a8,8,0,1,1,16,0Zm0,56v16a8,8,0,0,1-16,0V168a8,8,0,0,1,16,0Zm32,0v16a8,8,0,0,1-16,0V168a8,8,0,0,1,16,0Z"/></symbol>
  <symbol id="cat-door" viewBox="0 0 256 256"><path d="M232,216H208V40a16,16,0,0,0-16-16H64A16,16,0,0,0,48,40V216H24a8,8,0,0,0,0,16H232a8,8,0,0,0,0-16ZM64,40H192V216H64Zm104,92a12,12,0,1,1-12-12A12,12,0,0,1,168,132Z"/></symbol>
  <symbol id="cat-bed" viewBox="0 0 256 256"><path d="M216,72H32V48a8,8,0,0,0-16,0V208a8,8,0,0,0,16,0V176H240v32a8,8,0,0,0,16,0V112A40,40,0,0,0,216,72ZM32,88h72v72H32Zm88,72V88h96a24,24,0,0,1,24,24v48Z"/></symbol>
  <symbol id="cat-armchair" viewBox="0 0 256 256"><path d="M216,88.8V72a40,40,0,0,0-40-40H80A40,40,0,0,0,40,72V88.8a40,40,0,0,0,0,78.4V200a16,16,0,0,0,16,16H200a16,16,0,0,0,16-16V167.2a40,40,0,0,0,0-78.4ZM80,48h96a24,24,0,0,1,24,24V88.8A40.07,40.07,0,0,0,168,128H88A40.07,40.07,0,0,0,56,88.8V72A24,24,0,0,1,80,48ZM208.39,152H208a8,8,0,0,0-8,8v40H56V160a8,8,0,0,0-8-8h-.39A24,24,0,1,1,72,128v40a8,8,0,0,0,16,0V144h80v24a8,8,0,0,0,16,0V128a24,24,0,1,1,24.39,24Z"/></symbol>
  <symbol id="cat-couch" viewBox="0 0 256 256"><path d="M240,106.17V72a16,16,0,0,0-16-16H32A16,16,0,0,0,16,72v34.17A16,16,0,0,0,8,120v48a16,16,0,0,0,16,16h8v16a8,8,0,0,0,16,0V184H208v16a8,8,0,0,0,16,0V184h8a16,16,0,0,0,16-16V120A16,16,0,0,0,240,106.17ZM224,104h-8a16,16,0,0,0-16,16v16H136V72h88ZM120,72v64H56V120a16,16,0,0,0-16-16H32V72Zm112,96H24V120H40v24a8,8,0,0,0,8,8H208a8,8,0,0,0,8-8V120h16Z"/></symbol>
  <symbol id="cat-chair" viewBox="0 0 256 256"><path d="M208,136H176V104h16a16,16,0,0,0,16-16V40a16,16,0,0,0-16-16H64A16,16,0,0,0,48,40V88a16,16,0,0,0,16,16H80v32H48a16,16,0,0,0-16,16v16a16,16,0,0,0,16,16h8v40a8,8,0,0,0,16,0V184H184v40a8,8,0,0,0,16,0V184h8a16,16,0,0,0,16-16V152A16,16,0,0,0,208,136ZM64,40H192V88H64Zm32,64h64v32H96Zm112,64H48V152H208v16Z"/></symbol>
  <symbol id="cat-television" viewBox="0 0 256 256"><path d="M216,64H147.31l34.35-34.34a8,8,0,1,0-11.32-11.32L128,60.69,85.66,18.34A8,8,0,0,0,74.34,29.66L108.69,64H40A16,16,0,0,0,24,80V200a16,16,0,0,0,16,16H216a16,16,0,0,0,16-16V80A16,16,0,0,0,216,64ZM40,80H144V200H40ZM216,200H160V80h56V200Zm-16-84a12,12,0,1,1-12-12A12,12,0,0,1,200,116Zm0,48a12,12,0,1,1-12-12A12,12,0,0,1,200,164Z"/></symbol>
  <symbol id="cat-lightbulb" viewBox="0 0 256 256"><path d="M176,232a8,8,0,0,1-8,8H88a8,8,0,0,1,0-16h80A8,8,0,0,1,176,232Zm40-128a87.55,87.55,0,0,1-33.64,69.21A16.24,16.24,0,0,0,176,186v6a16,16,0,0,1-16,16H96a16,16,0,0,1-16-16v-6a16,16,0,0,0-6.23-12.66A87.59,87.59,0,0,1,40,104.49C39.74,56.83,78.26,17.14,125.88,16A88,88,0,0,1,216,104Zm-16,0a72,72,0,0,0-73.74-72c-39,.92-70.47,33.39-70.26,72.39a71.65,71.65,0,0,0,27.64,56.3A32,32,0,0,1,96,186v6h64v-6a32.15,32.15,0,0,1,12.47-25.35A71.65,71.65,0,0,0,200,104Zm-16.11-9.34a57.6,57.6,0,0,0-46.56-46.55,8,8,0,0,0-2.66,15.78c16.57,2.79,30.63,16.85,33.44,33.45A8,8,0,0,0,176,104a9,9,0,0,0,1.35-.11A8,8,0,0,0,183.89,94.66Z"/></symbol>
  <symbol id="cat-fan" viewBox="0 0 256 256"><path d="M233,135a60,60,0,0,0-89.62-35.45l16.39-65.44a8,8,0,0,0-3.45-8.68A60,60,0,1,0,95.69,128.91L30.82,147.44a8,8,0,0,0-5.8,7.32,60,60,0,0,0,44.42,60.66,60.52,60.52,0,0,0,15.62,2.07,60.07,60.07,0,0,0,59.88-62l48.48,46.92a8,8,0,0,0,9.25,1.35A60,60,0,0,0,233,135Zm-121-7a16,16,0,1,1,16,16A16,16,0,0,1,112,128ZM80,76a44,44,0,0,1,62.75-39.82L127.77,96A32,32,0,0,0,99.85,112.8,43.85,43.85,0,0,1,80,76Zm27,119.57a44,44,0,0,1-65.86-34.43l59.31-16.94A32,32,0,0,0,128,160l.91,0A43.82,43.82,0,0,1,107,195.57Zm106.17-23a43.92,43.92,0,0,1-13,14.14l-44.32-42.89a31.91,31.91,0,0,0-.59-32.57,44,44,0,0,1,57.91,61.32Z"/></symbol>
  <symbol id="cat-oven" viewBox="0 0 256 256"><path d="M208,32H48A16,16,0,0,0,32,48V208a16,16,0,0,0,16,16H208a16,16,0,0,0,16-16V48A16,16,0,0,0,208,32Zm0,176H48V48H208V208ZM72,76A12,12,0,1,1,84,88,12,12,0,0,1,72,76Zm44,0a12,12,0,1,1,12,12A12,12,0,0,1,116,76Zm44,0a12,12,0,1,1,12,12A12,12,0,0,1,160,76Zm24,28H72a8,8,0,0,0-8,8v72a8,8,0,0,0,8,8H184a8,8,0,0,0,8-8V112A8,8,0,0,0,184,104Zm-8,72H80V120h96Z"/></symbol>
  <symbol id="cat-plug" viewBox="0 0 256 256"><path d="M237.66,66.34a8,8,0,0,0-11.32,0L192,100.69,155.31,64l34.35-34.34a8,8,0,1,0-11.32-11.32L144,52.69,117.66,26.34a8,8,0,0,0-11.32,11.32L112.69,44l-53,53a40,40,0,0,0,0,56.57l15.71,15.71L26.34,218.34a8,8,0,0,0,11.32,11.32l49.09-49.09,15.71,15.71a40,40,0,0,0,56.57,0l53-53,6.34,6.35a8,8,0,0,0,11.32-11.32L203.31,112l34.35-34.34A8,8,0,0,0,237.66,66.34ZM147.72,185a24,24,0,0,1-33.95,0L71,142.23a24,24,0,0,1,0-33.95l53-53L200.69,132Z"/></symbol>
  <symbol id="cat-key" viewBox="0 0 256 256"><path d="M216.57,39.43A80,80,0,0,0,83.91,120.78L28.69,176A15.86,15.86,0,0,0,24,187.31V216a16,16,0,0,0,16,16H72a8,8,0,0,0,8-8V208H96a8,8,0,0,0,8-8V184h16a8,8,0,0,0,5.66-2.34l9.56-9.57A79.73,79.73,0,0,0,160,176h.1A80,80,0,0,0,216.57,39.43ZM224,98.1c-1.09,34.09-29.75,61.86-63.89,61.9H160a63.7,63.7,0,0,1-23.65-4.51,8,8,0,0,0-8.84,1.68L116.69,168H96a8,8,0,0,0-8,8v16H72a8,8,0,0,0-8,8v16H40V187.31l58.83-58.82a8,8,0,0,0,1.68-8.84A63.72,63.72,0,0,1,96,95.92c0-34.14,27.81-62.8,61.9-63.89A64,64,0,0,1,224,98.1ZM192,76a12,12,0,1,1-12-12A12,12,0,0,1,192,76Z"/></symbol>
  <symbol id="cat-wrench" viewBox="0 0 256 256"><path d="M226.76,69a8,8,0,0,0-12.84-2.88l-40.3,37.19-17.23-3.7-3.7-17.23,37.19-40.3A8,8,0,0,0,187,29.24,72,72,0,0,0,88,96,72.34,72.34,0,0,0,94,124.94L33.79,177c-.15.12-.29.26-.43.39a32,32,0,0,0,45.26,45.26c.13-.13.27-.28.39-.42L131.06,162A72,72,0,0,0,232,96,71.56,71.56,0,0,0,226.76,69ZM160,152a56.14,56.14,0,0,1-27.07-7,8,8,0,0,0-9.92,1.77L67.11,211.51a16,16,0,0,1-22.62-22.62L109.18,133a8,8,0,0,0,1.77-9.93,56,56,0,0,1,58.36-82.31l-31.2,33.81a8,8,0,0,0-1.94,7.1L141.83,108a8,8,0,0,0,6.14,6.14l26.35,5.66a8,8,0,0,0,7.1-1.94l33.81-31.2A56.06,56.06,0,0,1,160,152Z"/></symbol>
  <symbol id="cat-hammer" viewBox="0 0 256 256"><path d="M251.34,112,183.88,44.08a96.1,96.1,0,0,0-135.77,0l-.09.09L34.25,58.4A8,8,0,0,0,45.74,69.53L59.47,55.35a79.92,79.92,0,0,1,18.71-13.9L124.68,88l-96,96a16,16,0,0,0,0,22.63l20.69,20.69a16,16,0,0,0,22.63,0l96-96,14.34,14.34h0L200,163.3a16,16,0,0,0,22.63,0l28.69-28.69A16,16,0,0,0,251.34,112ZM60.68,216,40,195.31l68-68L128.68,148ZM162.34,114.32,140,136.67,119.31,116l22.35-22.35a8,8,0,0,0,0-11.32L94.32,35a80,80,0,0,1,78.23,20.41l44.22,44.51L188,128.66l-14.34-14.34A8,8,0,0,0,162.34,114.32Zm49,37.66-12-12L228,111.25l12,12Z"/></symbol>
  <symbol id="cat-paint-brush" viewBox="0 0 256 256"><path d="M232,32a8,8,0,0,0-8-8c-44.08,0-89.31,49.71-114.43,82.63A60,60,0,0,0,32,164c0,30.88-19.54,44.73-20.47,45.37A8,8,0,0,0,16,224H92a60,60,0,0,0,57.37-77.57C182.3,121.31,232,76.08,232,32ZM92,208H34.63C41.38,198.41,48,183.92,48,164a44,44,0,1,1,44,44Zm32.42-94.45q5.14-6.66,10.09-12.55A76.23,76.23,0,0,1,155,121.49q-5.9,4.94-12.55,10.09A60.54,60.54,0,0,0,124.42,113.55Zm42.7-2.68a92.57,92.57,0,0,0-22-22c31.78-34.53,55.75-45,69.9-47.91C212.17,55.12,201.65,79.09,167.12,110.87Z"/></symbol>
  <symbol id="cat-broom" viewBox="0 0 256 256"><path d="M235.5,216.81c-22.56-11-35.5-34.58-35.5-64.8V134.73a15.94,15.94,0,0,0-10.09-14.87L165,110a8,8,0,0,1-4.48-10.34l21.32-53a28,28,0,0,0-16.1-37,28.14,28.14,0,0,0-35.82,16,.61.61,0,0,0,0,.12L108.9,79a8,8,0,0,1-10.37,4.49L73.11,73.14A15.89,15.89,0,0,0,55.74,76.8C34.68,98.45,24,123.75,24,152a111.45,111.45,0,0,0,31.18,77.53A8,8,0,0,0,61,232H232a8,8,0,0,0,3.5-15.19ZM67.14,88l25.41,10.3a24,24,0,0,0,31.23-13.45l21-53c2.56-6.11,9.47-9.27,15.43-7a12,12,0,0,1,6.88,15.92L145.69,93.76a24,24,0,0,0,13.43,31.14L184,134.73V152c0,.33,0,.66,0,1L55.77,101.71A108.84,108.84,0,0,1,67.14,88Zm48,128a87.53,87.53,0,0,1-24.34-42,8,8,0,0,0-15.49,4,105.16,105.16,0,0,0,18.36,38H64.44A95.54,95.54,0,0,1,40,152a85.9,85.9,0,0,1,7.73-36.29l137.8,55.12c3,18,10.56,33.48,21.89,45.16Z"/></symbol>
  <symbol id="cat-fire" viewBox="0 0 256 256"><path d="M183.89,153.34a57.6,57.6,0,0,1-46.56,46.55A8.75,8.75,0,0,1,136,200a8,8,0,0,1-1.32-15.89c16.57-2.79,30.63-16.85,33.44-33.45a8,8,0,0,1,15.78,2.68ZM216,144a88,88,0,0,1-176,0c0-27.92,11-56.47,32.66-84.85a8,8,0,0,1,11.93-.89l24.12,23.41,22-60.41a8,8,0,0,1,12.63-3.41C165.21,36,216,84.55,216,144Zm-16,0c0-46.09-35.79-85.92-58.21-106.33L119.52,98.74a8,8,0,0,1-13.09,3L80.06,76.16C64.09,99.21,56,122,56,144a72,72,0,0,0,144,0Z"/></symbol>
  <!-- Kleidung & Pflege -->
  <symbol id="cat-t-shirt" viewBox="0 0 256 256"><path d="M247.59,61.22,195.83,33A8,8,0,0,0,192,32H160a8,8,0,0,0-8,8,24,24,0,0,1-48,0,8,8,0,0,0-8-8H64a8,8,0,0,0-3.84,1L8.41,61.22A15.76,15.76,0,0,0,1.82,82.48l19.27,36.81A16.37,16.37,0,0,0,35.67,128H56v80a16,16,0,0,0,16,16H184a16,16,0,0,0,16-16V128h20.34a16.37,16.37,0,0,0,14.58-8.71l19.27-36.81A15.76,15.76,0,0,0,247.59,61.22ZM35.67,112a.62.62,0,0,1-.41-.13L16.09,75.26,56,53.48V112ZM184,208H72V48h16.8a40,40,0,0,0,78.38,0H184Zm36.75-96.14a.55.55,0,0,1-.41.14H200V53.48l39.92,21.78Z"/></symbol>
  <symbol id="cat-dress" viewBox="0 0 256 256"><path d="M214.7,209.7a1.89,1.89,0,0,0-.11-.25l-45.48-96.86,20.5-32.18a1.74,1.74,0,0,0,.11-.18,16,16,0,0,0,0-16.46c-.09-.16-.2-.32-.3-.47L168,32.7V8a8,8,0,0,0-16,0V32.42L146.74,39a24,24,0,0,1-37.48,0L104,32.42V8A8,8,0,0,0,88,8V32.7L66.58,63.3c-.1.15-.21.31-.3.47a16,16,0,0,0,0,16.46,1.74,1.74,0,0,0,.11.18l20.5,32.18L41.41,209.45a1.89,1.89,0,0,0-.11.25A16,16,0,0,0,56,232H200a16,16,0,0,0,14.71-22.3ZM80,72,96.43,48.57l.33.42a40,40,0,0,0,62.48,0l.33-.42L176,72l-20.38,32H100.39ZM56,216l45.07-96h53.84L200,216Z"/></symbol>
  <symbol id="cat-hoodie" viewBox="0 0 256 256"><path d="M237.31,120.53,183,39.12A16,16,0,0,0,169.73,32H86.27A16,16,0,0,0,73,39.12L18.69,120.53a16,16,0,0,0-2.13,13.09L38,212.21A16,16,0,0,0,53.43,224H80a16,16,0,0,0,16-16V192h64v16a16,16,0,0,0,16,16h26.57A16,16,0,0,0,218,212.21l21.44-78.59A16,16,0,0,0,237.31,120.53ZM80,176V69l24,14.15V136a8,8,0,0,0,16,0V92.57l3.94,2.32a8,8,0,0,0,8.12,0L136,92.57V128a8,8,0,0,0,16,0V83.14L176,69V176ZM169.73,48l2.92,4.39L128,78.71,83.35,52.39,86.27,48ZM80,208H53.43L32,129.41l32-48V176a16,16,0,0,0,16,16Zm122.57,0H176V192a16,16,0,0,0,16-16V81.41l32,48Z"/></symbol>
  <symbol id="cat-pants" viewBox="0 0 256 256"><path d="M223.88,214l-22-176A16,16,0,0,0,186,24H70A16,16,0,0,0,54.12,38l-22,176A16,16,0,0,0,48,232H88.69a16,16,0,0,0,15.51-12.06l23.8-92,23.79,91.94A16,16,0,0,0,167.31,232H208a16,16,0,0,0,15.88-18ZM192.9,95.2A32.13,32.13,0,0,1,169,72h21ZM186,40l2,16H68l2-16ZM66,72H87A32.13,32.13,0,0,1,63.1,95.2ZM88.69,216H48L61,111.73A48.08,48.08,0,0,0,103.32,72H120V95Zm78.6-.06L136,95V72h16.68A48.08,48.08,0,0,0,195,111.73L208,216Z"/></symbol>
  <symbol id="cat-sneaker" viewBox="0 0 256 256"><path d="M228.65,129.11l-60.73-20.24a24,24,0,0,1-14.32-13L130.39,41.6s0-.07,0-.1A16,16,0,0,0,110.25,33L34.53,60.49A16.05,16.05,0,0,0,24,75.53V192a16,16,0,0,0,16,16H240a16,16,0,0,0,16-16V167.06A40,40,0,0,0,228.65,129.11ZM115.72,48l7.11,16.63-21.56,7.85A8,8,0,0,0,104,88a7.91,7.91,0,0,0,2.73-.49l22.4-8.14,4.74,11.07-16.6,6A8,8,0,0,0,120,112a7.91,7.91,0,0,0,2.73-.49l17.6-6.4a40.24,40.24,0,0,0,7.68,10l-14.74,5.36A8,8,0,0,0,136,136a8.14,8.14,0,0,0,2.73-.48l28-10.18,56.87,18.95A24,24,0,0,1,238.93,160H40V75.53ZM40,192h0V176H240v16Z"/></symbol>
  <symbol id="cat-eyeglasses" viewBox="0 0 256 256"><path d="M200,40a8,8,0,0,0,0,16,16,16,0,0,1,16,16v58.08A44,44,0,0,0,145.68,152H110.32A44,44,0,0,0,40,130.08V72A16,16,0,0,1,56,56a8,8,0,0,0,0-16A32,32,0,0,0,24,72v92a44,44,0,0,0,87.81,4h32.38A44,44,0,0,0,232,164V72A32,32,0,0,0,200,40ZM68,192a28,28,0,1,1,28-28A28,28,0,0,1,68,192Zm120,0a28,28,0,1,1,28-28A28,28,0,0,1,188,192Z"/></symbol>
  <symbol id="cat-watch" viewBox="0 0 256 256"><path d="M208,128a79.94,79.94,0,0,0-32.7-64.47l-6.24-34.38A16,16,0,0,0,153.32,16H102.68A16,16,0,0,0,86.94,29.15L80.7,63.53a79.9,79.9,0,0,0,0,128.94l6.24,34.38A16,16,0,0,0,102.68,240h50.64a16,16,0,0,0,15.74-13.15l6.24-34.38A79.94,79.94,0,0,0,208,128ZM102.68,32h50.64l3.91,21.55a79.75,79.75,0,0,0-58.46,0ZM64,128a64,64,0,1,1,64,64A64.07,64.07,0,0,1,64,128Zm89.32,96H102.68l-3.91-21.55a79.75,79.75,0,0,0,58.46,0ZM120,128V88a8,8,0,0,1,16,0v32h32a8,8,0,0,1,0,16H128A8,8,0,0,1,120,128Z"/></symbol>
  <symbol id="cat-backpack" viewBox="0 0 256 256"><path d="M168,40.58V32A24,24,0,0,0,144,8H112A24,24,0,0,0,88,32v8.58A56.09,56.09,0,0,0,40,96V216a16,16,0,0,0,16,16H200a16,16,0,0,0,16-16V96A56.09,56.09,0,0,0,168,40.58ZM112,24h32a8,8,0,0,1,8,8v8H104V32A8,8,0,0,1,112,24Zm56,136H88v-8a8,8,0,0,1,8-8h64a8,8,0,0,1,8,8ZM88,176h48v8a8,8,0,0,0,16,0v-8h16v40H88Zm112,40H184V152a24,24,0,0,0-24-24H96a24,24,0,0,0-24,24v64H56V96A40,40,0,0,1,96,56h64a40,40,0,0,1,40,40V216ZM152,88a8,8,0,0,1-8,8H112a8,8,0,0,1,0-16h32A8,8,0,0,1,152,88Z"/></symbol>
  <symbol id="cat-handbag" viewBox="0 0 256 256"><path d="M239.89,198.12l-14.26-120a16,16,0,0,0-16-14.12H176a48,48,0,0,0-96,0H46.33a16,16,0,0,0-16,14.12l-14.26,120A16,16,0,0,0,20,210.6a16.13,16.13,0,0,0,12,5.4H223.92A16.13,16.13,0,0,0,236,210.6,16,16,0,0,0,239.89,198.12ZM128,32a32,32,0,0,1,32,32H96A32,32,0,0,1,128,32ZM32,200,46.33,80H80v24a8,8,0,0,0,16,0V80h64v24a8,8,0,0,0,16,0V80h33.75l14.17,120Z"/></symbol>
  <symbol id="cat-baby" viewBox="0 0 256 256"><path d="M92,140a12,12,0,1,1,12-12A12,12,0,0,1,92,140Zm72-24a12,12,0,1,0,12,12A12,12,0,0,0,164,116Zm-12.27,45.23a45,45,0,0,1-47.46,0,8,8,0,0,0-8.54,13.54,61,61,0,0,0,64.54,0,8,8,0,0,0-8.54-13.54ZM232,128A104,104,0,1,1,128,24,104.11,104.11,0,0,1,232,128Zm-16,0a88.11,88.11,0,0,0-84.09-87.91C120.32,56.38,120,71.88,120,72a8,8,0,0,0,16,0,8,8,0,0,1,16,0,24,24,0,0,1-48,0c0-.73.13-14.3,8.46-30.63A88,88,0,1,0,216,128Z"/></symbol>
  <symbol id="cat-coat-hanger" viewBox="0 0 256 256"><path d="M241.57,171.2,141.33,96l23.46-17.6A8,8,0,0,0,168,72a40,40,0,1,0-80,0,8,8,0,0,0,16,0,24,24,0,0,1,47.69-3.78L123.34,89.49l-.28.21L14.43,171.2A16,16,0,0,0,24,200H232a16,16,0,0,0,9.6-28.8ZM232,184H24l104-78,104,78Z"/></symbol>
  <symbol id="cat-washing-machine" viewBox="0 0 256 256"><path d="M208,32H48A16,16,0,0,0,32,48V208a16,16,0,0,0,16,16H208a16,16,0,0,0,16-16V48A16,16,0,0,0,208,32Zm0,176H48V48H208V208ZM128,64a64,64,0,1,0,64,64A64.07,64.07,0,0,0,128,64Zm0,112a48,48,0,1,1,48-48A48.05,48.05,0,0,1,128,176ZM200,68a12,12,0,1,1-12-12A12,12,0,0,1,200,68Zm-74.34,49.66-16,16a8,8,0,0,1-11.32-11.32l16-16a8,8,0,0,1,11.32,11.32Zm32-3.32a8,8,0,0,1,0,11.32l-32,32a8,8,0,0,1-11.32-11.32l32-32A8,8,0,0,1,157.66,114.34Z"/></symbol>
  <symbol id="cat-scissors" viewBox="0 0 256 256"><path d="M157.73,113.13A8,8,0,0,1,159.82,102L227.48,55.7a8,8,0,0,1,9,13.21l-67.67,46.3a7.92,7.92,0,0,1-4.51,1.4A8,8,0,0,1,157.73,113.13Zm80.87,85.09a8,8,0,0,1-11.12,2.08L136,137.7,93.49,166.78a36,36,0,1,1-9-13.19L121.83,128,84.44,102.41a35.86,35.86,0,1,1,9-13.19l143,97.87A8,8,0,0,1,238.6,198.22ZM80,180a20,20,0,1,0-5.86,14.14A19.85,19.85,0,0,0,80,180ZM74.14,90.13a20,20,0,1,0-28.28,0A19.85,19.85,0,0,0,74.14,90.13Z"/></symbol>
  <symbol id="cat-shower" viewBox="0 0 256 256"><path d="M64,236a12,12,0,1,1-12-12A12,12,0,0,1,64,236Zm20-44a12,12,0,1,0,12,12A12,12,0,0,0,84,192Zm-64,0a12,12,0,1,0,12,12A12,12,0,0,0,20,192Zm32-32a12,12,0,1,0,12,12A12,12,0,0,0,52,160ZM256,40a8,8,0,0,1-8,8H219.31L191.46,75.86,169.8,202.65a16,16,0,0,1-27.09,8.66l-98-98a16,16,0,0,1,8.69-27.1L180.14,64.54l30.2-30.2A8,8,0,0,1,216,32h32A8,8,0,0,1,256,40ZM174.21,81.79,56,102l98,98Z"/></symbol>
  <symbol id="cat-drop" viewBox="0 0 256 256"><path d="M174,47.75a254.19,254.19,0,0,0-41.45-38.3,8,8,0,0,0-9.18,0A254.19,254.19,0,0,0,82,47.75C54.51,79.32,40,112.6,40,144a88,88,0,0,0,176,0C216,112.6,201.49,79.32,174,47.75ZM128,216a72.08,72.08,0,0,1-72-72c0-57.23,55.47-105,72-118,16.53,13,72,60.75,72,118A72.08,72.08,0,0,1,128,216Zm55.89-62.66a57.6,57.6,0,0,1-46.56,46.55A8.75,8.75,0,0,1,136,200a8,8,0,0,1-1.32-15.89c16.57-2.79,30.63-16.85,33.44-33.45a8,8,0,0,1,15.78,2.68Z"/></symbol>
  <symbol id="cat-toilet-paper" viewBox="0 0 256 256"><path d="M76,120a12,12,0,1,1-12-12A12,12,0,0,1,76,120Zm164,0v88a16,16,0,0,1-16,16H112a16,16,0,0,1-16-16V186.35C87.37,200.37,76.18,208,64,208c-13.87,0-26.46-9.89-35.44-27.85C20.46,164,16,142.59,16,120s4.46-43.95,12.56-60.15C37.54,41.89,50.13,32,64,32H192c13.87,0,26.46,9.89,35.44,27.85C235.54,76.05,240,97.41,240,120ZM96,120c0-42.43-16.86-72-32-72S32,77.57,32,120s16.86,72,32,72S96,162.43,96,120Zm128,88V128H208a8,8,0,0,1,0-16h15.79C221.84,73.9,206.16,48,192,48H92.12a73.6,73.6,0,0,1,7.32,11.85c7.14,14.28,11.44,32.56,12.37,52.15H128a8,8,0,0,1,0,16H112v80Zm-48-96H160a8,8,0,0,0,0,16h16a8,8,0,0,0,0-16Z"/></symbol>
  <!-- Lebensmittel & Getränke -->
  <symbol id="cat-shopping-cart" viewBox="0 0 256 256"><path d="M230.14,58.87A8,8,0,0,0,224,56H62.68L56.6,22.57A8,8,0,0,0,48.73,16H24a8,8,0,0,0,0,16h18L67.56,172.29a24,24,0,0,0,5.33,11.27,28,28,0,1,0,44.4,8.44h45.42A27.75,27.75,0,0,0,160,204a28,28,0,1,0,28-28H91.17a8,8,0,0,1-7.87-6.57L80.13,152h116a24,24,0,0,0,23.61-19.71l12.16-66.86A8,8,0,0,0,230.14,58.87ZM104,204a12,12,0,1,1-12-12A12,12,0,0,1,104,204Zm96,0a12,12,0,1,1-12-12A12,12,0,0,1,200,204Zm4-74.57A8,8,0,0,1,196.1,136H77.22L65.59,72H214.41Z"/></symbol>
  <symbol id="cat-basket" viewBox="0 0 256 256"><path d="M136,120v56a8,8,0,0,1-16,0V120a8,8,0,0,1,16,0Zm36.84-.8-5.6,56A8,8,0,0,0,174.4,184a7.32,7.32,0,0,0,.81,0,8,8,0,0,0,7.95-7.2l5.6-56a8,8,0,0,0-15.92-1.6Zm-89.68,0a8,8,0,0,0-15.92,1.6l5.6,56a8,8,0,0,0,8,7.2,7.32,7.32,0,0,0,.81,0,8,8,0,0,0,7.16-8.76ZM239.93,89.06,224.86,202.12A16.06,16.06,0,0,1,209,216H47a16.06,16.06,0,0,1-15.86-13.88L16.07,89.06A8,8,0,0,1,24,80H68.37L122,18.73a8,8,0,0,1,12,0L187.63,80H232a8,8,0,0,1,7.93,9.06ZM89.63,80h76.74L128,36.15ZM222.86,96H33.14L47,200H209Z"/></symbol>
  <symbol id="cat-bag" viewBox="0 0 256 256"><path d="M216,64H176a48,48,0,0,0-96,0H40A16,16,0,0,0,24,80V200a16,16,0,0,0,16,16H216a16,16,0,0,0,16-16V80A16,16,0,0,0,216,64ZM128,32a32,32,0,0,1,32,32H96A32,32,0,0,1,128,32Zm88,168H40V80H80V96a8,8,0,0,0,16,0V80h64V96a8,8,0,0,0,16,0V80h40Z"/></symbol>
  <symbol id="cat-bag-simple" viewBox="0 0 256 256"><path d="M216,64H176a48,48,0,0,0-96,0H40A16,16,0,0,0,24,80V200a16,16,0,0,0,16,16H216a16,16,0,0,0,16-16V80A16,16,0,0,0,216,64ZM128,32a32,32,0,0,1,32,32H96A32,32,0,0,1,128,32Zm88,168H40V80H216Z"/></symbol>
  <symbol id="cat-bread" viewBox="0 0 256 256"><path d="M240,80a40,40,0,0,0-40-40H48a40,40,0,0,0-16,76.65V200a16,16,0,0,0,16,16H200a16,16,0,0,0,16-16V116.65A40.06,40.06,0,0,0,240,80ZM48,120a8,8,0,0,0,0-16,24,24,0,0,1,0-48h96a24,24,0,0,1,0,48,8,8,0,0,0,0,16v80H48Zm152-16a8,8,0,0,0,0,16v80H160V116.65A40,40,0,0,0,176,56h24a24,24,0,0,1,0,48Z"/></symbol>
  <symbol id="cat-egg" viewBox="0 0 256 256"><path d="M186.66,59.56C168.47,32.29,146.54,16,128,16S87.53,32.29,69.34,59.56C50.7,87.54,40,121.23,40,152a88,88,0,0,0,176,0C216,121.23,205.3,87.54,186.66,59.56ZM128,224a72.08,72.08,0,0,1-72-72c0-27.69,9.72-58.15,26.66-83.56C97.19,46.64,115.41,32,128,32s30.81,14.64,45.34,36.44C190.28,93.85,200,124.31,200,152A72.08,72.08,0,0,1,128,224Z"/></symbol>
  <symbol id="cat-carrot" viewBox="0 0 256 256"><path d="M232,64H203.31l26.35-26.34a8,8,0,0,0-11.32-11.32L192,52.69V24a8,8,0,0,0-16,0V56.57a64,64,0,0,0-77.2,10.12l0,0,0,0,0,0c-40.1,39.39-70.25,133.08-73.19,142.45a16,16,0,0,0,21.26,21.26c9.37-2.94,103.18-33.13,142.47-73.21A64,64,0,0,0,199.43,80H232a8,8,0,0,0,0-16Zm-54.12,82c-8.94,9.12-21.25,17.8-34.85,25.73l-25.38-25.39a8,8,0,0,0-11.32,11.32l22.09,22.09c-40.87,21.19-86.32,35.42-87,35.63A7.93,7.93,0,0,0,40,216a7.93,7.93,0,0,0,.59-1.41c.29-.93,28-89.58,64-130.67l33.77,33.77a8,8,0,0,0,11.32-11.32L116.18,72.88A48,48,0,0,1,177.88,146Z"/></symbol>
  <symbol id="cat-fish" viewBox="0 0 256 256"><path d="M168,76a12,12,0,1,1-12-12A12,12,0,0,1,168,76Zm48.72,67.64c-19.37,34.9-55.44,53.76-107.24,56.1l-22,51.41A8,8,0,0,1,80.1,256l-.51,0a8,8,0,0,1-7.19-5.78L57.6,198.39,5.8,183.56a8,8,0,0,1-1-15.05l51.41-22c2.35-51.78,21.21-87.84,56.09-107.22,24.75-13.74,52.74-15.84,71.88-15.18,18.64.64,36,4.27,38.86,6a8,8,0,0,1,2.83,2.83c1.69,2.85,5.33,20.21,6,38.85C232.55,90.89,230.46,118.89,216.72,143.64Zm-55.18,29a52.11,52.11,0,0,1-33.4-44.78A52.09,52.09,0,0,1,83.37,94.47q-10.45,23.79-11.3,57.59a8,8,0,0,1-4.85,7.17L31.83,174.37l34.45,9.86a8,8,0,0,1,5.49,5.5l9.84,34.44,15.16-35.4a8,8,0,0,1,7.17-4.84Q137.71,183.12,161.54,172.64ZM212.42,43.57c-14.15-3-64.1-11-100.3,14.75a81.21,81.21,0,0,0-16,15.07,36,36,0,0,0,39.35,38.44,8,8,0,0,1,8.73,8.73,36,36,0,0,0,38.47,39.34,80.81,80.81,0,0,0,15-16C223.42,107.73,215.42,57.74,212.42,43.57Z"/></symbol>
  <symbol id="cat-orange" viewBox="0 0 256 256"><path d="M165.87,72.58A64.06,64.06,0,0,0,200,16a8,8,0,0,0-8-8h-8a64,64,0,0,0-56,33.06A64,64,0,0,0,72,8H64a8,8,0,0,0,0,16h8a48.08,48.08,0,0,1,47.4,40.42,88,88,0,1,0,46.47,8.16ZM183.33,24a48.09,48.09,0,0,1-46.66,40A48.09,48.09,0,0,1,183.33,24ZM128,224a72,72,0,1,1,72-72A72.08,72.08,0,0,1,128,224Zm55.89-62.68a57.5,57.5,0,0,1-46.57,46.57A8.52,8.52,0,0,1,136,208a8,8,0,0,1-1.31-15.89,41.29,41.29,0,0,0,33.43-33.43,8,8,0,0,1,15.78,2.64Z"/></symbol>
  <symbol id="cat-avocado" viewBox="0 0 256 256"><path d="M128,112a48,48,0,1,0,48,48A48.05,48.05,0,0,0,128,112Zm0,80a32,32,0,1,1,32-32A32,32,0,0,1,128,192Zm83-61.34L181.2,46.47a56,56,0,0,0-106-1.14h0l-29.51,83.5A88,88,0,1,0,211,130.66ZM128,232a72.05,72.05,0,0,1-67.33-97.57,1.34,1.34,0,0,1,.07-.18L90.28,50.66h0a40,40,0,0,1,75.74.88l.06.18L195.9,136A72.05,72.05,0,0,1,128,232Z"/></symbol>
  <symbol id="cat-pepper" viewBox="0 0 256 256"><path d="M167.27,40.42A40.06,40.06,0,0,0,128,8a8,8,0,0,0,0,16,24,24,0,0,1,22.85,16.66A64.08,64.08,0,0,0,96,104c0,46.75-25.75,78-76.53,93a16,16,0,0,0,1.77,31.13A264.8,264.8,0,0,0,66.75,232c40.78,0,86.16-9.15,117.53-35.46C210.64,174.44,224,143.3,224,104h0A64.07,64.07,0,0,0,167.27,40.42ZM160,56a48.07,48.07,0,0,1,45.37,32.37L192,95,163.58,80.83a8,8,0,0,0-7.16,0L128,95l-13.37-6.68A48.08,48.08,0,0,1,160,56Zm14,128.3c-18,15.07-43.6,25.26-74.12,29.47A254.08,254.08,0,0,1,24,212.37h0v0c57.23-16.87,87.63-54,88-107.42l12.44,6.22a8,8,0,0,0,7.16,0L160,96.93l28.42,14.21a8,8,0,0,0,7.16,0l12.41-6.2C207.78,138.84,196.35,165.54,174,184.29Z"/></symbol>
  <symbol id="cat-hamburger" viewBox="0 0 256 256"><path d="M48.07,104H207.93a16,16,0,0,0,15.72-19.38C216.22,49.5,176,24,128,24S39.78,49.5,32.35,84.62A16,16,0,0,0,48.07,104ZM128,40c39.82,0,74.21,20.61,79.93,48H48.07L48,87.93C53.79,60.61,88.18,40,128,40ZM229.26,152.48l-41.13,15L151,152.57a8,8,0,0,0-5.94,0l-37,14.81L71,152.57a8,8,0,0,0-5.7-.09l-44,16a8,8,0,0,0,5.47,15L40,178.69V184a40,40,0,0,0,40,40h96a40,40,0,0,0,40-40v-9.67l18.73-6.81a8,8,0,1,0-5.47-15ZM200,184a24,24,0,0,1-24,24H80a24,24,0,0,1-24-24V172.88l11.87-4.32L105,183.43a8,8,0,0,0,5.94,0l37-14.81,37,14.81a8,8,0,0,0,5.7.09l9.27-3.37ZM16,128a8,8,0,0,1,8-8H232a8,8,0,0,1,0,16H24A8,8,0,0,1,16,128Z"/></symbol>
  <symbol id="cat-pizza" viewBox="0 0 256 256"><path d="M239.54,63a15.91,15.91,0,0,0-7.25-9.9,201.49,201.49,0,0,0-208.58,0,16,16,0,0,0-5.37,22l96,157.27a16,16,0,0,0,27.36,0l96-157.27A15.82,15.82,0,0,0,239.54,63ZM63.59,118.5a24,24,0,1,1,24.47,40.09Zm87.92,66.95A24,24,0,0,1,176,145.37Zm32.93-53.93a40,40,0,0,0-41.38,67.77L128,224,96.5,172.43a40,40,0,1,0-41.35-67.76L48.8,94.26a152,152,0,0,1,158.39,0Zm31.1-50.93a168.12,168.12,0,0,0-175.08,0L32,66.77a185.6,185.6,0,0,1,192,0Z"/></symbol>
  <symbol id="cat-cookie" viewBox="0 0 256 256"><path d="M164.49,163.51a12,12,0,1,1-17,0A12,12,0,0,1,164.49,163.51Zm-81-8a12,12,0,1,0,17,0A12,12,0,0,0,83.51,155.51Zm9-39a12,12,0,1,0-17,0A12,12,0,0,0,92.49,116.49Zm48-1a12,12,0,1,0,0,17A12,12,0,0,0,140.49,115.51ZM232,128A104,104,0,1,1,128,24a8,8,0,0,1,8,8,40,40,0,0,0,40,40,8,8,0,0,1,8,8,40,40,0,0,0,40,40A8,8,0,0,1,232,128Zm-16.31,7.39A56.13,56.13,0,0,1,168.5,87.5a56.13,56.13,0,0,1-47.89-47.19,88,88,0,1,0,95.08,95.08Z"/></symbol>
  <symbol id="cat-cake" viewBox="0 0 256 256"><path d="M232,112a24,24,0,0,0-24-24H136V79a32.06,32.06,0,0,0,24-31c0-28-26.44-45.91-27.56-46.66a8,8,0,0,0-8.88,0C122.44,2.09,96,20,96,48a32.06,32.06,0,0,0,24,31v9H48a24,24,0,0,0-24,24v23.33a40.84,40.84,0,0,0,8,24.24V200a24,24,0,0,0,24,24H200a24,24,0,0,0,24-24V159.57a40.84,40.84,0,0,0,8-24.24ZM112,48c0-13.57,10-24.46,16-29.79,6,5.33,16,16.22,16,29.79a16,16,0,0,1-32,0ZM40,112a8,8,0,0,1,8-8H208a8,8,0,0,1,8,8v23.33c0,13.25-10.46,24.31-23.32,24.66A24,24,0,0,1,168,136a8,8,0,0,0-16,0,24,24,0,0,1-48,0,8,8,0,0,0-16,0,24,24,0,0,1-24.68,24C50.46,159.64,40,148.58,40,135.33Zm160,96H56a8,8,0,0,1-8-8V172.56A38.77,38.77,0,0,0,62.88,176a39.69,39.69,0,0,0,29-11.31A40.36,40.36,0,0,0,96,160a40,40,0,0,0,64,0,40.36,40.36,0,0,0,4.13,4.67A39.67,39.67,0,0,0,192,176c.38,0,.76,0,1.14,0A38.77,38.77,0,0,0,208,172.56V200A8,8,0,0,1,200,208Z"/></symbol>
  <symbol id="cat-ice-cream" viewBox="0 0 256 256"><path d="M208,97.37V96A80,80,0,0,0,48,96v1.37A24,24,0,0,0,56,144h3.29l54.82,95.94a16,16,0,0,0,27.78,0L196.71,144H200a24,24,0,0,0,8-46.63ZM77.71,144H97.07l40.61,71.06L128,232Zm57.08,0,21.75,38.06-9.65,16.88L115.5,144Zm31,21.94L153.21,144h25.08ZM200,128H56a8,8,0,0,1,0-16,8,8,0,0,0,8-8V96a64,64,0,0,1,128,0v8a8,8,0,0,0,8,8,8,8,0,0,1,0,16Z"/></symbol>
  <symbol id="cat-bowl-food" viewBox="0 0 256 256"><path d="M224,104h-8.37a88,88,0,0,0-175.26,0H32a8,8,0,0,0-8,8,104.35,104.35,0,0,0,56,92.28V208a16,16,0,0,0,16,16h64a16,16,0,0,0,16-16v-3.72A104.35,104.35,0,0,0,232,112,8,8,0,0,0,224,104Zm-24.46,0H148.12a71.84,71.84,0,0,1,41.27-29.57A71.45,71.45,0,0,1,199.54,104ZM173.48,56.23q2.75,2.25,5.27,4.75a87.92,87.92,0,0,0-49.15,43H100.1A72.26,72.26,0,0,1,168,56C169.83,56,171.66,56.09,173.48,56.23ZM128,40a71.87,71.87,0,0,1,19,2.57A88.36,88.36,0,0,0,83.33,104H56.46A72.08,72.08,0,0,1,128,40Zm36.66,152A8,8,0,0,0,160,199.3V208H96v-8.7A8,8,0,0,0,91.34,192a88.29,88.29,0,0,1-51-72H215.63A88.29,88.29,0,0,1,164.66,192Z"/></symbol>
  <symbol id="cat-bowl-steam" viewBox="0 0 256 256"><path d="M224,112H32a8,8,0,0,0-8,8,104.35,104.35,0,0,0,56,92.28V216a16,16,0,0,0,16,16h64a16,16,0,0,0,16-16v-3.72A104.35,104.35,0,0,0,232,120,8,8,0,0,0,224,112Zm-59.34,88a8,8,0,0,0-4.66,7.27V216H96v-8.71A8,8,0,0,0,91.34,200a88.29,88.29,0,0,1-51-72H215.63A88.29,88.29,0,0,1,164.66,200ZM81.77,55c5.35-6.66,6.67-11.16,6.12-13.14-.42-1.49-2.41-2.26-2.43-2.26A8,8,0,0,1,88,24a8.11,8.11,0,0,1,2.38.36c1,.31,9.91,3.33,12.79,12.76,2.46,8.07-.55,17.45-8.94,27.89-5.35,6.66-6.67,11.16-6.12,13.14.42,1.49,2.37,2.24,2.39,2.25A8,8,0,0,1,88,96a8.11,8.11,0,0,1-2.38-.36c-1-.31-9.91-3.33-12.79-12.76C70.37,74.81,73.38,65.43,81.77,55Zm40,0c5.35-6.66,6.67-11.16,6.12-13.14-.42-1.49-2.41-2.26-2.43-2.26A8,8,0,0,1,128,24a8.11,8.11,0,0,1,2.38.36c1,.31,9.91,3.33,12.79,12.76,2.46,8.07-.55,17.45-8.94,27.89-5.35,6.66-6.67,11.16-6.12,13.14.42,1.49,2.37,2.24,2.39,2.25A8,8,0,0,1,128,96a8.11,8.11,0,0,1-2.38-.36c-1-.31-9.91-3.33-12.79-12.76C110.37,74.81,113.38,65.43,121.77,55Zm40,0c5.35-6.66,6.67-11.16,6.12-13.14-.42-1.49-2.41-2.26-2.43-2.26A8,8,0,0,1,168,24a8.11,8.11,0,0,1,2.38.36c1,.31,9.91,3.33,12.79,12.76,2.46,8.07-.55,17.45-8.94,27.89-5.35,6.66-6.67,11.16-6.12,13.14.42,1.49,2.37,2.24,2.39,2.25A8,8,0,0,1,168,96a8.11,8.11,0,0,1-2.38-.36c-1-.31-9.91-3.33-12.79-12.76C150.37,74.81,153.38,65.43,161.77,55Z"/></symbol>
  <symbol id="cat-coffee" viewBox="0 0 256 256"><path d="M80,56V24a8,8,0,0,1,16,0V56a8,8,0,0,1-16,0Zm40,8a8,8,0,0,0,8-8V24a8,8,0,0,0-16,0V56A8,8,0,0,0,120,64Zm32,0a8,8,0,0,0,8-8V24a8,8,0,0,0-16,0V56A8,8,0,0,0,152,64Zm96,56v8a40,40,0,0,1-37.51,39.91,96.59,96.59,0,0,1-27,40.09H208a8,8,0,0,1,0,16H32a8,8,0,0,1,0-16H56.54A96.3,96.3,0,0,1,24,136V88a8,8,0,0,1,8-8H208A40,40,0,0,1,248,120ZM200,96H40v40a80.27,80.27,0,0,0,45.12,72h69.76A80.27,80.27,0,0,0,200,136Zm32,24a24,24,0,0,0-16-22.62V136a95.78,95.78,0,0,1-1.2,15A24,24,0,0,0,232,128Z"/></symbol>
  <symbol id="cat-beer-stein" viewBox="0 0 256 256"><path d="M104,104v80a8,8,0,0,1-16,0V104a8,8,0,0,1,16,0Zm40-8a8,8,0,0,0-8,8v80a8,8,0,0,0,16,0V104A8,8,0,0,0,144,96Zm96,16v64a24,24,0,0,1-24,24H200v8a16,16,0,0,1-16,16H56a16,16,0,0,1-16-16V72c0-30.88,28.71-56,64-56,16.77,0,32.91,5.8,44.82,16H160a40,40,0,0,1,40,40V88h16A24,24,0,0,1,240,112ZM57,64H182.62A24,24,0,0,0,160,48H145.74a8,8,0,0,1-5.53-2.22C131.06,37,117.87,32,104,32,80.82,32,61.43,45.76,57,64ZM184,208V80H56V208H184Zm40-96a8,8,0,0,0-8-8H200v80h16a8,8,0,0,0,8-8Z"/></symbol>
  <symbol id="cat-wine" viewBox="0 0 256 256"><path d="M205.33,103.67,183.56,29.74A8,8,0,0,0,175.89,24H80.11a8,8,0,0,0-7.67,5.74L50.67,103.67a63.46,63.46,0,0,0,17.42,64.67A87.39,87.39,0,0,0,120,191.63V232H88a8,8,0,1,0,0,16h80a8,8,0,1,0,0-16H136V191.63a87.41,87.41,0,0,0,51.91-23.29A63.46,63.46,0,0,0,205.33,103.67ZM86.09,40h83.82L190,108.19c.09.3.17.6.25.9-21.42,7.68-45.54-1.6-58.63-8.23C106.43,88.11,86.43,86.49,71.68,88.93ZM177,156.65a71.69,71.69,0,0,1-98,0,47.55,47.55,0,0,1-13-48.46l.45-1.52c12-4.06,31.07-5.14,57.93,8.47,11.15,5.65,29.16,12.85,48.43,12.85a68.64,68.64,0,0,0,19.05-2.6A47.2,47.2,0,0,1,177,156.65Z"/></symbol>
  <symbol id="cat-martini" viewBox="0 0 256 256"><path d="M237.66,45.66A8,8,0,0,0,232,32H24a8,8,0,0,0-5.66,13.66L120,147.31V208H88a8,8,0,0,0,0,16h80a8,8,0,0,0,0-16H136V147.31ZM43.31,48H212.69l-16,16H59.31ZM128,132.69,75.31,80H180.69Z"/></symbol>
  <symbol id="cat-fork-knife" viewBox="0 0 256 256"><path d="M72,88V40a8,8,0,0,1,16,0V88a8,8,0,0,1-16,0ZM216,40V224a8,8,0,0,1-16,0V176H152a8,8,0,0,1-8-8,268.75,268.75,0,0,1,7.22-56.88c9.78-40.49,28.32-67.63,53.63-78.47A8,8,0,0,1,216,40ZM200,53.9c-32.17,24.57-38.47,84.42-39.7,106.1H200ZM119.89,38.69a8,8,0,1,0-15.78,2.63L112,88.63a32,32,0,0,1-64,0l7.88-47.31a8,8,0,1,0-15.78-2.63l-8,48A8.17,8.17,0,0,0,32,88a48.07,48.07,0,0,0,40,47.32V224a8,8,0,0,0,16,0V135.32A48.07,48.07,0,0,0,128,88a8.17,8.17,0,0,0-.11-1.31Z"/></symbol>
  <symbol id="cat-knife" viewBox="0 0 256 256"><path d="M231.87,32.13a27.84,27.84,0,0,0-39.32,0L18.34,206.4a8,8,0,0,0,3.86,13.45A160.67,160.67,0,0,0,58.4,224c32.95,0,65.92-10.2,96.95-30.23,31.76-20.5,50.19-43.82,51-44.81a8,8,0,0,0-.64-10.59L185.32,118l46.55-46.56A27.85,27.85,0,0,0,231.87,32.13ZM189.1,144.44a220.41,220.41,0,0,1-42.86,36.16c-34.43,22.1-69.94,30.92-105.77,26.3L146,101.33Zm31.46-84.3L174,106.7,157.32,90l46.55-46.56a11.8,11.8,0,0,1,16.69,16.69Z"/></symbol>
  <!-- Mobilität -->
  <symbol id="cat-car" viewBox="0 0 256 256"><path d="M240,104H229.2L201.42,41.5A16,16,0,0,0,186.8,32H69.2a16,16,0,0,0-14.62,9.5L26.8,104H16a8,8,0,0,0,0,16h8v80a16,16,0,0,0,16,16H64a16,16,0,0,0,16-16V184h96v16a16,16,0,0,0,16,16h24a16,16,0,0,0,16-16V120h8a8,8,0,0,0,0-16ZM69.2,48H186.8l24.89,56H44.31ZM64,200H40V184H64Zm128,0V184h24v16Zm24-32H40V120H216ZM56,144a8,8,0,0,1,8-8H80a8,8,0,0,1,0,16H64A8,8,0,0,1,56,144Zm112,0a8,8,0,0,1,8-8h16a8,8,0,0,1,0,16H176A8,8,0,0,1,168,144Z"/></symbol>
  <symbol id="cat-taxi" viewBox="0 0 256 256"><path d="M240,104H228.64L201.25,56.06A16,16,0,0,0,187.36,48H165.42l-12-29.94A15.93,15.93,0,0,0,138.58,8H117.42a15.93,15.93,0,0,0-14.86,10.06L90.58,48H68.64a16,16,0,0,0-13.89,8.06L27.36,104H16a8,8,0,0,0,0,16h8v80a16,16,0,0,0,16,16H64a16,16,0,0,0,16-16V184h96v16a16,16,0,0,0,16,16h24a16,16,0,0,0,16-16V120h8a8,8,0,0,0,0-16ZM117.42,24h21.16l9.6,24H107.82ZM68.64,64H187.36l22.85,40H45.79ZM64,200H40V184H64Zm128,0V184h24v16Zm24-32H40V120H216ZM56,144a8,8,0,0,1,8-8H80a8,8,0,0,1,0,16H64A8,8,0,0,1,56,144Zm112,0a8,8,0,0,1,8-8h16a8,8,0,0,1,0,16H176A8,8,0,0,1,168,144Z"/></symbol>
  <symbol id="cat-bus" viewBox="0 0 256 256"><path d="M184,32H72A32,32,0,0,0,40,64V208a16,16,0,0,0,16,16H80a16,16,0,0,0,16-16V192h64v16a16,16,0,0,0,16,16h24a16,16,0,0,0,16-16V64A32,32,0,0,0,184,32ZM56,176V120H200v56Zm0-96H200v24H56ZM72,48H184a16,16,0,0,1,16,16H56A16,16,0,0,1,72,48Zm8,160H56V192H80Zm96,0V192h24v16Zm-72-60a12,12,0,1,1-12-12A12,12,0,0,1,104,148Zm72,0a12,12,0,1,1-12-12A12,12,0,0,1,176,148Zm72-68v24a8,8,0,0,1-16,0V80a8,8,0,0,1,16,0ZM24,80v24a8,8,0,0,1-16,0V80a8,8,0,0,1,16,0Z"/></symbol>
  <symbol id="cat-truck" viewBox="0 0 256 256"><path d="M255.42,117l-14-35A15.93,15.93,0,0,0,226.58,72H192V64a8,8,0,0,0-8-8H32A16,16,0,0,0,16,72V184a16,16,0,0,0,16,16H49a32,32,0,0,0,62,0h50a32,32,0,0,0,62,0h17a16,16,0,0,0,16-16V120A7.94,7.94,0,0,0,255.42,117ZM192,88h34.58l9.6,24H192ZM32,72H176v64H32ZM80,208a16,16,0,1,1,16-16A16,16,0,0,1,80,208Zm81-24H111a32,32,0,0,0-62,0H32V152H176v12.31A32.11,32.11,0,0,0,161,184Zm31,24a16,16,0,1,1,16-16A16,16,0,0,1,192,208Zm48-24H223a32.06,32.06,0,0,0-31-24V128h48Z"/></symbol>
  <symbol id="cat-motorcycle" viewBox="0 0 256 256"><path d="M216,120a41,41,0,0,0-6.6.55l-5.82-15.14A55.64,55.64,0,0,1,216,104a8,8,0,0,0,0-16H196.88L183.47,53.13A8,8,0,0,0,176,48H144a8,8,0,0,0,0,16h26.51l9.23,24H152c-18.5,0-33.5,4.31-43.37,12.46a16,16,0,0,1-16.76,2.07C81.29,97.72,31.13,77.33,26.71,75.6L21,73.36A17.74,17.74,0,0,0,16,72a8,8,0,0,0-2.87,15.46h0c.46.18,47.19,18.3,72.13,29.63a32.15,32.15,0,0,0,33.56-4.29c4.86-4,14.57-8.8,33.19-8.8h18.82a71.74,71.74,0,0,0-24.17,36.59A15.86,15.86,0,0,1,131.32,152H79.2a40,40,0,1,0,0,16h52.12a31.91,31.91,0,0,0,30.74-23.1,56,56,0,0,1,26.59-33.72l5.82,15.13A40,40,0,1,0,216,120ZM40,168H62.62a24,24,0,1,1,0-16H40a8,8,0,0,0,0,16Zm176,16a24,24,0,0,1-15.58-42.23l8.11,21.1a8,8,0,1,0,14.94-5.74L215.35,136l.65,0a24,24,0,0,1,0,48Z"/></symbol>
  <symbol id="cat-scooter" viewBox="0 0 256 256"><path d="M212,136c-1.18,0-2.35.06-3.51.17l-32.9-98.7A8,8,0,0,0,168,32H136a8,8,0,0,0,0,16h26.23l17.44,52.31L124.21,168H79.77a36,36,0,1,0-1.83,16H128a8,8,0,0,0,6.19-2.93l51.46-62.81,7.66,23A36,36,0,1,0,212,136ZM44,192a20,20,0,1,1,20-20A20,20,0,0,1,44,192Zm168,0a20,20,0,1,1,20-20A20,20,0,0,1,212,192Z"/></symbol>
  <symbol id="cat-bicycle" viewBox="0 0 256 256"><path d="M208,112a47.81,47.81,0,0,0-16.93,3.09L165.93,72H192a8,8,0,0,1,8,8,8,8,0,0,0,16,0,24,24,0,0,0-24-24H152a8,8,0,0,0-6.91,12l11.65,20H99.26L82.91,60A8,8,0,0,0,76,56H48a8,8,0,0,0,0,16H71.41L85.12,95.51,69.41,117.06a48.13,48.13,0,1,0,12.92,9.44l11.59-15.9L125.09,164A8,8,0,1,0,138.91,156l-30.32-52h57.48l11.19,19.17A48,48,0,1,0,208,112ZM80,160a32,32,0,1,1-20.21-29.74l-18.25,25a8,8,0,1,0,12.92,9.42l18.25-25A31.88,31.88,0,0,1,80,160Zm128,32a32,32,0,0,1-22.51-54.72L201.09,164A8,8,0,1,0,214.91,156L199.3,129.21A32,32,0,1,1,208,192Z"/></symbol>
  <symbol id="cat-train" viewBox="0 0 256 256"><path d="M184,24H72A32,32,0,0,0,40,56V184a32,32,0,0,0,32,32h8L65.6,235.2a8,8,0,1,0,12.8,9.6L100,216h56l21.6,28.8a8,8,0,1,0,12.8-9.6L176,216h8a32,32,0,0,0,32-32V56A32,32,0,0,0,184,24ZM56,120V80h64v40Zm80-40h64v40H136ZM72,40H184a16,16,0,0,1,16,16v8H56V56A16,16,0,0,1,72,40ZM184,200H72a16,16,0,0,1-16-16V136H200v48A16,16,0,0,1,184,200ZM96,172a12,12,0,1,1-12-12A12,12,0,0,1,96,172Zm88,0a12,12,0,1,1-12-12A12,12,0,0,1,184,172Z"/></symbol>
  <symbol id="cat-train-regional" viewBox="0 0 256 256"><path d="M223.72,117.9,201.33,35.79A16,16,0,0,0,185.89,24H70.11A16,16,0,0,0,54.67,35.79L32.28,117.9a8.08,8.08,0,0,0,0,4.2l22.39,82.11A16,16,0,0,0,70.11,216H80L65.6,235.2a8,8,0,1,0,12.8,9.6L100,216h56l21.6,28.8a8,8,0,1,0,12.8-9.6L176,216h9.89a16,16,0,0,0,15.44-11.79l22.39-82.11A8.08,8.08,0,0,0,223.72,117.9ZM70.11,40H185.89L206,113.69l-78,14.18L50,113.69Zm-19,90.14L120,142.68V200H70.11ZM185.89,200H136V142.68l68.94-12.54ZM88,88a8,8,0,0,1,8-8h64a8,8,0,0,1,0,16H96A8,8,0,0,1,88,88Z"/></symbol>
  <symbol id="cat-airplane" viewBox="0 0 256 256"><path d="M235.58,128.84,160,91.06V48a32,32,0,0,0-64,0V91.06L20.42,128.84A8,8,0,0,0,16,136v32a8,8,0,0,0,9.57,7.84L96,161.76v18.93L82.34,194.34A8,8,0,0,0,80,200v32a8,8,0,0,0,11,7.43l37-14.81,37,14.81A8,8,0,0,0,176,232V200a8,8,0,0,0-2.34-5.66L160,180.69V161.76l70.43,14.08A8,8,0,0,0,240,168V136A8,8,0,0,0,235.58,128.84ZM224,158.24l-70.43-14.08A8,8,0,0,0,144,152v32a8,8,0,0,0,2.34,5.66L160,203.31v16.87l-29-11.61a8,8,0,0,0-5.94,0L96,220.18V203.31l13.66-13.65A8,8,0,0,0,112,184V152a8,8,0,0,0-9.57-7.84L32,158.24v-17.3l75.58-37.78A8,8,0,0,0,112,96V48a16,16,0,0,1,32,0V96a8,8,0,0,0,4.42,7.16L224,140.94Z"/></symbol>
  <symbol id="cat-boat" viewBox="0 0 256 256"><path d="M221.06,110.59,208,106.23V56a16,16,0,0,0-16-16H136V24a8,8,0,0,0-16,0V40H64A16,16,0,0,0,48,56v50.23l-13.06,4.36A16,16,0,0,0,24,125.77V152c0,61.54,97.89,86.72,102.06,87.76a8,8,0,0,0,3.88,0C134.11,238.72,232,213.54,232,152V125.77A16,16,0,0,0,221.06,110.59ZM64,56H192v44.9L130.53,80.41a8,8,0,0,0-5.06,0L64,100.9Zm152,96c0,24.91-23.68,43-43.55,53.83A228.13,228.13,0,0,1,128,223.72,226.85,226.85,0,0,1,83.81,206C47.6,186.35,40,165.79,40,152V125.77L120,99.1V168a8,8,0,0,0,16,0V99.1l80,26.67Z"/></symbol>
  <symbol id="cat-gas-pump" viewBox="0 0 256 256"><path d="M241,69.66,221.66,50.34a8,8,0,0,0-11.32,11.32L229.66,81A8,8,0,0,1,232,86.63V168a8,8,0,0,1-16,0V128a24,24,0,0,0-24-24H176V56a24,24,0,0,0-24-24H72A24,24,0,0,0,48,56V208H32a8,8,0,0,0,0,16H192a8,8,0,0,0,0-16H176V120h16a8,8,0,0,1,8,8v40a24,24,0,0,0,48,0V86.63A23.85,23.85,0,0,0,241,69.66ZM64,208V56a8,8,0,0,1,8-8h80a8,8,0,0,1,8,8V208Zm80-96a8,8,0,0,1-8,8H88a8,8,0,0,1,0-16h48A8,8,0,0,1,144,112Z"/></symbol>
  <symbol id="cat-map-pin" viewBox="0 0 256 256"><path d="M128,64a40,40,0,1,0,40,40A40,40,0,0,0,128,64Zm0,64a24,24,0,1,1,24-24A24,24,0,0,1,128,128Zm0-112a88.1,88.1,0,0,0-88,88c0,31.4,14.51,64.68,42,96.25a254.19,254.19,0,0,0,41.45,38.3,8,8,0,0,0,9.18,0A254.19,254.19,0,0,0,174,200.25c27.45-31.57,42-64.85,42-96.25A88.1,88.1,0,0,0,128,16Zm0,206c-16.53-13-72-60.75-72-118a72,72,0,0,1,144,0C200,161.23,144.53,209,128,222Z"/></symbol>
  <symbol id="cat-road-horizon" viewBox="0 0 256 256"><path d="M235.92,199A8,8,0,0,1,225,195.92L155.32,72H136v8a8,8,0,0,1-16,0V72H100.68L31,195.92A8,8,0,0,1,17,188.08L82.32,72H24a8,8,0,0,1,0-16H232a8,8,0,0,1,0,16H173.68L239,188.08A8,8,0,0,1,235.92,199ZM128,112a8,8,0,0,0-8,8v16a8,8,0,0,0,16,0V120A8,8,0,0,0,128,112Zm0,56a8,8,0,0,0-8,8v16a8,8,0,0,0,16,0V176A8,8,0,0,0,128,168Z"/></symbol>
  <!-- Freizeit -->
  <symbol id="cat-film-strip" viewBox="0 0 256 256"><path d="M216,40H40A16,16,0,0,0,24,56V200a16,16,0,0,0,16,16H216a16,16,0,0,0,16-16V56A16,16,0,0,0,216,40ZM40,88h80v80H40Zm96-16V56h32V72Zm-16,0H88V56h32Zm0,112v16H88V184Zm16,0h32v16H136Zm0-16V88h80v80Zm80-96H184V56h32ZM72,56V72H40V56ZM40,184H72v16H40Zm176,16H184V184h32v16Z"/></symbol>
  <symbol id="cat-camera" viewBox="0 0 256 256"><path d="M208,56H180.28L166.65,35.56A8,8,0,0,0,160,32H96a8,8,0,0,0-6.65,3.56L75.71,56H48A24,24,0,0,0,24,80V192a24,24,0,0,0,24,24H208a24,24,0,0,0,24-24V80A24,24,0,0,0,208,56Zm8,136a8,8,0,0,1-8,8H48a8,8,0,0,1-8-8V80a8,8,0,0,1,8-8H80a8,8,0,0,0,6.66-3.56L100.28,48h55.43l13.63,20.44A8,8,0,0,0,176,72h32a8,8,0,0,1,8,8ZM128,88a44,44,0,1,0,44,44A44.05,44.05,0,0,0,128,88Zm0,72a28,28,0,1,1,28-28A28,28,0,0,1,128,160Z"/></symbol>
  <symbol id="cat-game-controller" viewBox="0 0 256 256"><path d="M176,112H152a8,8,0,0,1,0-16h24a8,8,0,0,1,0,16ZM104,96H96V88a8,8,0,0,0-16,0v8H72a8,8,0,0,0,0,16h8v8a8,8,0,0,0,16,0v-8h8a8,8,0,0,0,0-16ZM241.48,200.65a36,36,0,0,1-54.94,4.81c-.12-.12-.24-.24-.35-.37L146.48,160h-37L69.81,205.09l-.35.37A36.08,36.08,0,0,1,44,216,36,36,0,0,1,8.56,173.75a.68.68,0,0,1,0-.14L24.93,89.52A59.88,59.88,0,0,1,83.89,40H172a60.08,60.08,0,0,1,59,49.25c0,.06,0,.12,0,.18l16.37,84.17a.68.68,0,0,1,0,.14A35.74,35.74,0,0,1,241.48,200.65ZM172,144a44,44,0,0,0,0-88H83.89A43.9,43.9,0,0,0,40.68,92.37l0,.13L24.3,176.59A20,20,0,0,0,58,194.3l41.92-47.59a8,8,0,0,1,6-2.71Zm59.7,32.59-8.74-45A60,60,0,0,1,172,160h-4.2L198,194.31a20.09,20.09,0,0,0,17.46,5.39,20,20,0,0,0,16.23-23.11Z"/></symbol>
  <symbol id="cat-dice-five" viewBox="0 0 256 256"><path d="M192,32H64A32,32,0,0,0,32,64V192a32,32,0,0,0,32,32H192a32,32,0,0,0,32-32V64A32,32,0,0,0,192,32Zm16,160a16,16,0,0,1-16,16H64a16,16,0,0,1-16-16V64A16,16,0,0,1,64,48H192a16,16,0,0,1,16,16ZM104,92A12,12,0,1,1,92,80,12,12,0,0,1,104,92Zm72,0a12,12,0,1,1-12-12A12,12,0,0,1,176,92Zm-72,72a12,12,0,1,1-12-12A12,12,0,0,1,104,164Zm36-36a12,12,0,1,1-12-12A12,12,0,0,1,140,128Zm36,36a12,12,0,1,1-12-12A12,12,0,0,1,176,164Z"/></symbol>
  <symbol id="cat-music-note" viewBox="0 0 256 256"><path d="M210.3,56.34l-80-24A8,8,0,0,0,120,40V148.26A48,48,0,1,0,136,184V98.75l69.7,20.91A8,8,0,0,0,216,112V64A8,8,0,0,0,210.3,56.34ZM88,216a32,32,0,1,1,32-32A32,32,0,0,1,88,216ZM200,101.25l-64-19.2V50.75L200,70Z"/></symbol>
  <symbol id="cat-guitar" viewBox="0 0 256 256"><path d="M249.66,46.34l-40-40a8,8,0,0,0-11.31,11.32L200.69,20,140.52,80.16C117.73,68.3,92.21,69.29,76.75,84.74a42.27,42.27,0,0,0-9.39,14.37A8.24,8.24,0,0,1,59.81,104c-14.59.49-27.26,5.72-36.65,15.11C11.08,131.22,6,148.6,8.74,168.07,11.4,186.7,21.07,205.15,36,220s33.34,24.56,52,27.22A71.13,71.13,0,0,0,98.1,248c15.32,0,28.83-5.23,38.76-15.16,9.39-9.39,14.62-22.06,15.11-36.65a8.24,8.24,0,0,1,4.92-7.55,42.12,42.12,0,0,0,14.37-9.39c15.45-15.46,16.44-41,4.58-63.77L236,55.31l2.34,2.34a8,8,0,1,0,11.32-11.31ZM160,167.93a26.12,26.12,0,0,1-8.95,5.83,24.24,24.24,0,0,0-15,21.89c-.36,10.46-4,19.41-10.43,25.88-8.44,8.43-21,11.95-35.36,9.89C75,229.25,59.73,221.19,47.27,208.73S26.75,181,24.58,165.81c-2-14.37,1.46-26.92,9.89-35.36C40.94,124,49.89,120.37,60.35,120h0a24.22,24.22,0,0,0,21.89-15,26.12,26.12,0,0,1,5.83-9c5.49-5.49,13-8.13,21.38-8.13a49.38,49.38,0,0,1,19.13,4.19L108.5,112.19a32,32,0,1,0,35.31,35.31l20.08-20.08C170.41,142.71,169.47,158.41,160,167.93Zm-10.4-61.48a72.9,72.9,0,0,1,5.93,6.75l-15.42,15.42a32.22,32.22,0,0,0-12.68-12.68l15.42-15.43A73,73,0,0,1,149.55,106.45ZM112,128a16,16,0,0,1,16,16h0a16,16,0,1,1-16-16Zm48.85-32.85a86.94,86.94,0,0,0-6.68-6L176,67.31,188.69,80l-21.83,21.82A86.94,86.94,0,0,0,160.86,95.14ZM200,68.68,187.32,56,212,31.31,224.69,44ZM93.66,194.33a8,8,0,0,1-11.31,11.32l-32-32a8,8,0,0,1,11.32-11.31Z"/></symbol>
  <symbol id="cat-headphones" viewBox="0 0 256 256"><path d="M201.89,54.66A103.43,103.43,0,0,0,128.79,24H128A104,104,0,0,0,24,128v56a24,24,0,0,0,24,24H64a24,24,0,0,0,24-24V144a24,24,0,0,0-24-24H40.36A88,88,0,0,1,128,40h.67a87.71,87.71,0,0,1,87,80H192a24,24,0,0,0-24,24v40a24,24,0,0,0,24,24h16a24,24,0,0,0,24-24V128A103.41,103.41,0,0,0,201.89,54.66ZM64,136a8,8,0,0,1,8,8v40a8,8,0,0,1-8,8H48a8,8,0,0,1-8-8V136Zm152,48a8,8,0,0,1-8,8H192a8,8,0,0,1-8-8V144a8,8,0,0,1,8-8h24Z"/></symbol>
  <symbol id="cat-microphone" viewBox="0 0 256 256"><path d="M128,176a48.05,48.05,0,0,0,48-48V64a48,48,0,0,0-96,0v64A48.05,48.05,0,0,0,128,176ZM96,64a32,32,0,0,1,64,0v64a32,32,0,0,1-64,0Zm40,143.6V240a8,8,0,0,1-16,0V207.6A80.11,80.11,0,0,1,48,128a8,8,0,0,1,16,0,64,64,0,0,0,128,0,8,8,0,0,1,16,0A80.11,80.11,0,0,1,136,207.6Z"/></symbol>
  <symbol id="cat-palette" viewBox="0 0 256 256"><path d="M200.77,53.89A103.27,103.27,0,0,0,128,24h-1.07A104,104,0,0,0,24,128c0,43,26.58,79.06,69.36,94.17A32,32,0,0,0,136,192a16,16,0,0,1,16-16h46.21a31.81,31.81,0,0,0,31.2-24.88,104.43,104.43,0,0,0,2.59-24A103.28,103.28,0,0,0,200.77,53.89Zm13,93.71A15.89,15.89,0,0,1,198.21,160H152a32,32,0,0,0-32,32,16,16,0,0,1-21.31,15.07C62.49,194.3,40,164,40,128a88,88,0,0,1,87.09-88h.9a88.35,88.35,0,0,1,88,87.25A88.86,88.86,0,0,1,213.81,147.6ZM140,76a12,12,0,1,1-12-12A12,12,0,0,1,140,76ZM96,100A12,12,0,1,1,84,88,12,12,0,0,1,96,100Zm0,56a12,12,0,1,1-12-12A12,12,0,0,1,96,156Zm88-56a12,12,0,1,1-12-12A12,12,0,0,1,184,100Z"/></symbol>
  <symbol id="cat-confetti" viewBox="0 0 256 256"><path d="M111.49,52.63a15.8,15.8,0,0,0-26,5.77L33,202.78A15.83,15.83,0,0,0,47.76,224a16,16,0,0,0,5.46-1l144.37-52.5a15.8,15.8,0,0,0,5.78-26Zm-8.33,135.21-35-35,13.16-36.21,58.05,58.05Zm-55,20,14-38.41,24.45,24.45ZM156,168.64,87.36,100l13-35.87,91.43,91.43ZM160,72a37.8,37.8,0,0,1,3.84-15.58C169.14,45.83,179.14,40,192,40c6.7,0,11-2.29,13.65-7.21A22,22,0,0,0,208,23.94,8,8,0,0,1,224,24c0,12.86-8.52,32-32,32-6.7,0-11,2.29-13.65,7.21A22,22,0,0,0,176,72.06,8,8,0,0,1,160,72ZM136,40V16a8,8,0,0,1,16,0V40a8,8,0,0,1-16,0Zm101.66,82.34a8,8,0,1,1-11.32,11.31l-16-16a8,8,0,0,1,11.32-11.32Zm4.87-42.75-24,8a8,8,0,0,1-5.06-15.18l24-8a8,8,0,0,1,5.06,15.18Z"/></symbol>
  <symbol id="cat-book" viewBox="0 0 256 256"><path d="M208,24H72A32,32,0,0,0,40,56V224a8,8,0,0,0,8,8H192a8,8,0,0,0,0-16H56a16,16,0,0,1,16-16H208a8,8,0,0,0,8-8V32A8,8,0,0,0,208,24Zm-8,160H72a31.82,31.82,0,0,0-16,4.29V56A16,16,0,0,1,72,40H200Z"/></symbol>
  <symbol id="cat-books" viewBox="0 0 256 256"><path d="M231.65,194.55,198.46,36.75a16,16,0,0,0-19-12.39L132.65,34.42a16.08,16.08,0,0,0-12.3,19l33.19,157.8A16,16,0,0,0,169.16,224a16.25,16.25,0,0,0,3.38-.36l46.81-10.06A16.09,16.09,0,0,0,231.65,194.55ZM136,50.15c0-.06,0-.09,0-.09l46.8-10,3.33,15.87L139.33,66Zm6.62,31.47,46.82-10.05,3.34,15.9L146,97.53Zm6.64,31.57,46.82-10.06,13.3,63.24-46.82,10.06ZM216,197.94l-46.8,10-3.33-15.87L212.67,182,216,197.85C216,197.91,216,197.94,216,197.94ZM104,32H56A16,16,0,0,0,40,48V208a16,16,0,0,0,16,16h48a16,16,0,0,0,16-16V48A16,16,0,0,0,104,32ZM56,48h48V64H56Zm0,32h48v96H56Zm48,128H56V192h48v16Z"/></symbol>
  <symbol id="cat-gift" viewBox="0 0 256 256"><path d="M216,72H180.92c.39-.33.79-.65,1.17-1A29.53,29.53,0,0,0,192,49.57,32.62,32.62,0,0,0,158.44,16,29.53,29.53,0,0,0,137,25.91a54.94,54.94,0,0,0-9,14.48,54.94,54.94,0,0,0-9-14.48A29.53,29.53,0,0,0,97.56,16,32.62,32.62,0,0,0,64,49.57,29.53,29.53,0,0,0,73.91,71c.38.33.78.65,1.17,1H40A16,16,0,0,0,24,88v32a16,16,0,0,0,16,16v64a16,16,0,0,0,16,16H200a16,16,0,0,0,16-16V136a16,16,0,0,0,16-16V88A16,16,0,0,0,216,72ZM149,36.51a13.69,13.69,0,0,1,10-4.5h.49A16.62,16.62,0,0,1,176,49.08a13.69,13.69,0,0,1-4.5,10c-9.49,8.4-25.24,11.36-35,12.4C137.7,60.89,141,45.5,149,36.51Zm-64.09.36A16.63,16.63,0,0,1,96.59,32h.49a13.69,13.69,0,0,1,10,4.5c8.39,9.48,11.35,25.2,12.39,34.92-9.72-1-25.44-4-34.92-12.39a13.69,13.69,0,0,1-4.5-10A16.6,16.6,0,0,1,84.87,36.87ZM40,88h80v32H40Zm16,48h64v64H56Zm144,64H136V136h64Zm16-80H136V88h80v32Z"/></symbol>
  <symbol id="cat-ticket" viewBox="0 0 256 256"><path d="M232,104a8,8,0,0,0,8-8V64a16,16,0,0,0-16-16H32A16,16,0,0,0,16,64V96a8,8,0,0,0,8,8,24,24,0,0,1,0,48,8,8,0,0,0-8,8v32a16,16,0,0,0,16,16H224a16,16,0,0,0,16-16V160a8,8,0,0,0-8-8,24,24,0,0,1,0-48ZM32,167.2a40,40,0,0,0,0-78.4V64H88V192H32Zm192,0V192H104V64H224V88.8a40,40,0,0,0,0,78.4Z"/></symbol>
  <symbol id="cat-soccer-ball" viewBox="0 0 256 256"><path d="M128,24A104,104,0,1,0,232,128,104.11,104.11,0,0,0,128,24Zm76.52,147.42H170.9l-9.26-12.76,12.63-36.78,15-4.89,26.24,20.13A87.38,87.38,0,0,1,204.52,171.42Zm-164-34.3L66.71,117l15,4.89,12.63,36.78L85.1,171.42H51.48A87.38,87.38,0,0,1,40.47,137.12Zm10-50.64,5.51,18.6L40.71,116.77A87.33,87.33,0,0,1,50.43,86.48ZM109,152,97.54,118.65,128,97.71l30.46,20.94L147,152Zm91.07-46.92,5.51-18.6a87.33,87.33,0,0,1,9.72,30.29Zm-6.2-35.38-9.51,32.08-15.07,4.89L136,83.79V68.21l29.09-20A88.58,88.58,0,0,1,193.86,69.7ZM146.07,41.87,128,54.29,109.93,41.87a88.24,88.24,0,0,1,36.14,0ZM90.91,48.21l29.09,20V83.79L86.72,106.67l-15.07-4.89L62.14,69.7A88.58,88.58,0,0,1,90.91,48.21ZM63.15,187.42H83.52l7.17,20.27A88.4,88.4,0,0,1,63.15,187.42ZM110,214.13,98.12,180.71,107.35,168h41.3l9.23,12.71-11.83,33.42a88,88,0,0,1-36.1,0Zm55.36-6.44,7.17-20.27h20.37A88.4,88.4,0,0,1,165.31,207.69Z"/></symbol>
  <symbol id="cat-basketball" viewBox="0 0 256 256"><path d="M128,24A104,104,0,1,0,232,128,104.11,104.11,0,0,0,128,24ZM60,72.17A87.2,87.2,0,0,1,79.63,120H40.37A87.54,87.54,0,0,1,60,72.17ZM136,120V40.37a87.59,87.59,0,0,1,48.68,20.37A103.06,103.06,0,0,0,160.3,120Zm-16,0H95.7A103.06,103.06,0,0,0,71.32,60.74,87.59,87.59,0,0,1,120,40.37ZM79.63,136A87.2,87.2,0,0,1,60,183.83,87.54,87.54,0,0,1,40.37,136Zm16.07,0H120v79.63a87.59,87.59,0,0,1-48.68-20.37A103.09,103.09,0,0,0,95.7,136Zm40.3,0h24.3a103.09,103.09,0,0,0,24.38,59.26A87.59,87.59,0,0,1,136,215.63Zm40.37,0h39.26A87.54,87.54,0,0,1,196,183.83,87.2,87.2,0,0,1,176.37,136Zm0-16A87.2,87.2,0,0,1,196,72.17,87.54,87.54,0,0,1,215.63,120Z"/></symbol>
  <symbol id="cat-tennis-ball" viewBox="0 0 256 256"><path d="M201.57,54.46a104,104,0,1,0,0,147.08A103.4,103.4,0,0,0,201.57,54.46ZM65.75,65.77a87.63,87.63,0,0,1,53.66-25.31A87.31,87.31,0,0,1,94,94.06a87.42,87.42,0,0,1-53.62,25.35A87.58,87.58,0,0,1,65.75,65.77ZM40.33,135.48a103.29,103.29,0,0,0,65-30.11,103.24,103.24,0,0,0,30.13-65,87.78,87.78,0,0,1,80.18,80.14,104,104,0,0,0-95.16,95.1,87.78,87.78,0,0,1-80.18-80.14Zm149.92,54.75a87.69,87.69,0,0,1-53.66,25.31,88,88,0,0,1,79-78.95A87.58,87.58,0,0,1,190.25,190.23Z"/></symbol>
  <symbol id="cat-tree-palm" viewBox="0 0 256 256"><path d="M237.79,53.23a66.86,66.86,0,0,0-97.74,0,72.21,72.21,0,0,0-12.05,17,72.21,72.21,0,0,0-12-17,66.86,66.86,0,0,0-97.74,0,8,8,0,0,0,2.6,12.85L77,90.55a71.42,71.42,0,0,0-43.36,33.21,70.64,70.64,0,0,0-7.2,54.32A8,8,0,0,0,39,182.36l81-61.68V224a8,8,0,0,0,16,0V120.68l81,61.68a8,8,0,0,0,12.57-4.28,70.64,70.64,0,0,0-7.2-54.32A71.42,71.42,0,0,0,179,90.55l56.22-24.47a8,8,0,0,0,2.6-12.85ZM67.08,48a51.13,51.13,0,0,1,37.28,16.26,56.53,56.53,0,0,1,14.26,26.93L39,56.53A50.5,50.5,0,0,1,67.08,48ZM40,161.5a54.82,54.82,0,0,1,7.47-29.7,55.55,55.55,0,0,1,34-25.89A56.52,56.52,0,0,1,96.1,104a55.82,55.82,0,0,1,16.23,2.41ZM208.5,131.8A54.82,54.82,0,0,1,216,161.5l-72.3-55.1a56.3,56.3,0,0,1,64.83,25.4ZM137.38,91.19a56.53,56.53,0,0,1,14.26-26.93A51.13,51.13,0,0,1,188.92,48,50.5,50.5,0,0,1,217,56.53Z"/></symbol>
  <!-- Gesundheit -->
  <symbol id="cat-pill" viewBox="0 0 256 256"><path d="M216.42,39.6a53.26,53.26,0,0,0-75.32,0L39.6,141.09a53.26,53.26,0,0,0,75.32,75.31h0L216.43,114.91A53.31,53.31,0,0,0,216.42,39.6ZM103.61,205.09h0a37.26,37.26,0,0,1-52.7-52.69L96,107.31,148.7,160ZM205.11,103.6,160,148.69,107.32,96l45.1-45.09a37.26,37.26,0,0,1,52.69,52.69ZM189.68,82.34a8,8,0,0,1,0,11.32l-24,24a8,8,0,1,1-11.31-11.32l24-24A8,8,0,0,1,189.68,82.34Z"/></symbol>
  <symbol id="cat-first-aid-kit" viewBox="0 0 256 256"><path d="M216,56H176V48a24,24,0,0,0-24-24H104A24,24,0,0,0,80,48v8H40A16,16,0,0,0,24,72V200a16,16,0,0,0,16,16H216a16,16,0,0,0,16-16V72A16,16,0,0,0,216,56ZM96,48a8,8,0,0,1,8-8h48a8,8,0,0,1,8,8v8H96ZM216,200H40V72H216V200Zm-56-64a8,8,0,0,1-8,8H136v16a8,8,0,0,1-16,0V144H104a8,8,0,0,1,0-16h16V112a8,8,0,0,1,16,0v16h16A8,8,0,0,1,160,136Z"/></symbol>
  <symbol id="cat-bandaids" viewBox="0 0 256 256"><path d="M184.57,128l27.71-27.72a40,40,0,1,0-56.56-56.56L128,71.43,100.28,43.72a40,40,0,1,0-56.56,56.56L71.43,128,43.72,155.72a40,40,0,1,0,56.56,56.56L128,184.57l27.72,27.71a40,40,0,1,0,56.56-56.56ZM167,55A24,24,0,1,1,201,89l-27.72,27.72L139.31,82.75Zm-5.09,73L128,161.94,94.06,128,128,94.06ZM55,89h0A24,24,0,1,1,89,55l27.72,27.72L82.75,116.69ZM89,201A24,24,0,1,1,55,167l27.72-27.72,33.94,33.94Zm112,0A24,24,0,0,1,167,201l-27.72-27.72,33.94-33.94L201,167A24,24,0,0,1,201,201Zm-85-73a12,12,0,1,1,12,12A12,12,0,0,1,116,128Z"/></symbol>
  <symbol id="cat-heartbeat" viewBox="0 0 256 256"><path d="M72,144H32a8,8,0,0,1,0-16H67.72l13.62-20.44a8,8,0,0,1,13.32,0l25.34,38,9.34-14A8,8,0,0,1,136,128h24a8,8,0,0,1,0,16H140.28l-13.62,20.44a8,8,0,0,1-13.32,0L88,126.42l-9.34,14A8,8,0,0,1,72,144ZM178,40c-20.65,0-38.73,8.88-50,23.89C116.73,48.88,98.65,40,78,40a62.07,62.07,0,0,0-62,62c0,.75,0,1.5,0,2.25a8,8,0,1,0,16-.5c0-.58,0-1.17,0-1.75A46.06,46.06,0,0,1,78,56c19.45,0,35.78,10.36,42.6,27a8,8,0,0,0,14.8,0c6.82-16.67,23.15-27,42.6-27a46.06,46.06,0,0,1,46,46c0,53.61-77.76,102.15-96,112.8-10.83-6.31-42.63-26-66.68-52.21a8,8,0,1,0-11.8,10.82c31.17,34,72.93,56.68,74.69,57.63a8,8,0,0,0,7.58,0C136.21,228.66,240,172,240,102A62.07,62.07,0,0,0,178,40Z"/></symbol>
  <symbol id="cat-stethoscope" viewBox="0 0 256 256"><path d="M220,160a12,12,0,1,1-12-12A12,12,0,0,1,220,160Zm-4.55,39.29A48.08,48.08,0,0,1,168,240H144a48.05,48.05,0,0,1-48-48V151.49A64,64,0,0,1,40,88V40a8,8,0,0,1,8-8H72a8,8,0,0,1,0,16H56V88a48,48,0,0,0,48.64,48c26.11-.34,47.36-22.25,47.36-48.83V48H136a8,8,0,0,1,0-16h24a8,8,0,0,1,8,8V87.17c0,32.84-24.53,60.29-56,64.31V192a32,32,0,0,0,32,32h24a32.06,32.06,0,0,0,31.22-25,40,40,0,1,1,16.23.27ZM232,160a24,24,0,1,0-24,24A24,24,0,0,0,232,160Z"/></symbol>
  <symbol id="cat-syringe" viewBox="0 0 256 256"><path d="M237.66,66.34l-48-48a8,8,0,0,0-11.32,11.32L196.69,48,168,76.69,133.66,42.34a8,8,0,0,0-11.32,11.32L128.69,60l-84,84A15.86,15.86,0,0,0,40,155.31v49.38L18.34,226.34a8,8,0,0,0,11.32,11.32L51.31,216h49.38A15.86,15.86,0,0,0,112,211.31l84-84,6.34,6.35a8,8,0,0,0,11.32-11.32L179.31,88,208,59.31l18.34,18.35a8,8,0,0,0,11.32-11.32ZM100.69,200H56V155.31l18-18,20.34,20.35a8,8,0,0,0,11.32-11.32L85.31,126,98,113.31l20.34,20.35a8,8,0,0,0,11.32-11.32L109.31,102,140,71.31,184.69,116Z"/></symbol>
  <symbol id="cat-hospital" viewBox="0 0 256 256"><path d="M248,208h-8V128a16,16,0,0,0-16-16H168V48a16,16,0,0,0-16-16H56A16,16,0,0,0,40,48V208H32a8,8,0,0,0,0,16H248a8,8,0,0,0,0-16Zm-24-80v80H168V128ZM56,48h96V208H136V160a8,8,0,0,0-8-8H80a8,8,0,0,0-8,8v48H56Zm64,160H88V168h32ZM72,96a8,8,0,0,1,8-8H96V72a8,8,0,0,1,16,0V88h16a8,8,0,0,1,0,16H112v16a8,8,0,0,1-16,0V104H80A8,8,0,0,1,72,96Z"/></symbol>
  <symbol id="cat-brain" viewBox="0 0 256 256"><path d="M248,124a56.11,56.11,0,0,0-32-50.61V72a48,48,0,0,0-88-26.49A48,48,0,0,0,40,72v1.39a56,56,0,0,0,0,101.2V176a48,48,0,0,0,88,26.49A48,48,0,0,0,216,176v-1.41A56.09,56.09,0,0,0,248,124ZM88,208a32,32,0,0,1-31.81-28.56A55.87,55.87,0,0,0,64,180h8a8,8,0,0,0,0-16H64A40,40,0,0,1,50.67,86.27,8,8,0,0,0,56,78.73V72a32,32,0,0,1,64,0v68.26A47.8,47.8,0,0,0,88,128a8,8,0,0,0,0,16,32,32,0,0,1,0,64Zm104-44h-8a8,8,0,0,0,0,16h8a55.87,55.87,0,0,0,7.81-.56A32,32,0,1,1,168,144a8,8,0,0,0,0-16,47.8,47.8,0,0,0-32,12.26V72a32,32,0,0,1,64,0v6.73a8,8,0,0,0,5.33,7.54A40,40,0,0,1,192,164Zm16-52a8,8,0,0,1-8,8h-4a36,36,0,0,1-36-36V80a8,8,0,0,1,16,0v4a20,20,0,0,0,20,20h4A8,8,0,0,1,208,112ZM60,120H56a8,8,0,0,1,0-16h4A20,20,0,0,0,80,84V80a8,8,0,0,1,16,0v4A36,36,0,0,1,60,120Z"/></symbol>
  <symbol id="cat-virus" viewBox="0 0 256 256"><path d="M136,108a28,28,0,1,0-28,28A28,28,0,0,0,136,108Zm-28,12a12,12,0,1,1,12-12A12,12,0,0,1,108,120Zm68-8a16,16,0,1,1-16,16A16,16,0,0,1,176,112Zm-32,64a16,16,0,1,1-16-16A16,16,0,0,1,144,176Zm96-56H223.66a95.52,95.52,0,0,0-22.39-53.95l12.39-12.39a8,8,0,0,0-11.32-11.32L190,54.73A95.52,95.52,0,0,0,136,32.34V16a8,8,0,0,0-16,0V32.34A95.52,95.52,0,0,0,66.05,54.73L53.66,42.34A8,8,0,0,0,42.34,53.66L54.73,66.05a95.52,95.52,0,0,0-22.39,54H16a8,8,0,0,0,0,16H32.34A95.52,95.52,0,0,0,54.73,190L42.34,202.34a8,8,0,0,0,11.32,11.32l12.39-12.39a95.52,95.52,0,0,0,54,22.39V240a8,8,0,0,0,16,0V223.66A95.52,95.52,0,0,0,190,201.27l12.39,12.39a8,8,0,0,0,11.32-11.32L201.27,190A95.52,95.52,0,0,0,223.66,136H240a8,8,0,0,0,0-16ZM128,208a80,80,0,1,1,80-80A80.09,80.09,0,0,1,128,208Z"/></symbol>
  <symbol id="cat-mask-happy" viewBox="0 0 256 256"><path d="M217,34.8a15.94,15.94,0,0,0-14.82-1.71C188.15,38.55,159.82,47.71,128,47.71S67.84,38.55,53.79,33.09A16,16,0,0,0,32,48v55.77c0,35.84,9.65,69.65,27.18,95.18,18.16,26.46,42.6,41,68.82,41s50.66-14.57,68.82-41C214.35,173.44,224,139.63,224,103.79V48A16,16,0,0,0,217,34.8Zm-9,69c0,32.64-8.66,63.23-24.37,86.13C168.54,211.9,148.79,224,128,224s-40.54-12.1-55.63-34.08C56.66,167,48,136.43,48,103.79V48c15.11,5.87,45.58,15.71,80,15.71S192.9,53.87,208,48v55.81Zm-18,18.87A8,8,0,1,1,178,133.33c-2.68-3-8.85-5.33-14-5.33s-11.36,2.34-14,5.33A8,8,0,1,1,138,122.66c5.71-6.38,16.14-10.66,26-10.66S184.25,116.28,190,122.66ZM92,128c-5.19,0-11.36,2.34-14,5.33A8,8,0,1,1,66,122.66C71.75,116.28,82.18,112,92,112s20.25,4.28,26,10.66A8,8,0,1,1,106,133.33C103.36,130.34,97.19,128,92,128Zm76.45,45.19a52.9,52.9,0,0,1-80.9,0A8,8,0,1,1,99.72,162.8a36.89,36.89,0,0,0,56.56,0,8,8,0,0,1,12.17,10.39Z"/></symbol>
  <symbol id="cat-tooth" viewBox="0 0 256 256"><path d="M171,71.42,149.54,80,171,88.57A8,8,0,1,1,165,103.42L128,88.61,91,103.42A8,8,0,1,1,85,88.57L106.46,80,85,71.42A8,8,0,1,1,91,56.57l37,14.81,37-14.81A8,8,0,1,1,171,71.42Zm53,8.33c0,42.72-8,75.4-14.69,95.28-8.73,25.8-20.63,45.49-32.65,54a15.69,15.69,0,0,1-15.95,1.41,16.09,16.09,0,0,1-9.18-13.36C150.68,205.58,146.48,168,128,168s-22.68,37.59-23.53,49.11a16.09,16.09,0,0,1-16,14.9,15.67,15.67,0,0,1-9.13-2.95c-12-8.53-23.92-28.22-32.65-54C40,155.15,32,122.47,32,79.75A56,56,0,0,1,88,24h80A56,56,0,0,1,224,79.75Zm-16,0A40,40,0,0,0,168,40H88A40,40,0,0,0,48,79.76c0,40.55,7.51,71.4,13.85,90.14,11.05,32.66,23,43.37,26.61,46C91.57,174.67,105.59,152,128,152s36.45,22.71,39.49,63.94h0c3.6-2.59,15.57-13.26,26.66-46C200.49,151.16,208,120.31,208,79.76Z"/></symbol>
  <symbol id="cat-dog" viewBox="0 0 256 256"><path d="M239.71,125l-16.42-88a16,16,0,0,0-19.61-12.58l-.31.09L150.85,40h-45.7L52.63,24.56l-.31-.09A16,16,0,0,0,32.71,37.05L16.29,125a15.77,15.77,0,0,0,9.12,17.52A16.26,16.26,0,0,0,32.12,144,15.48,15.48,0,0,0,40,141.84V184a40,40,0,0,0,40,40h96a40,40,0,0,0,40-40V141.85a15.5,15.5,0,0,0,7.87,2.16,16.31,16.31,0,0,0,6.72-1.47A15.77,15.77,0,0,0,239.71,125ZM32,128h0L48.43,40,90.5,52.37Zm144,80H136V195.31l13.66-13.65a8,8,0,0,0-11.32-11.32L128,180.69l-10.34-10.35a8,8,0,0,0-11.32,11.32L120,195.31V208H80a24,24,0,0,1-24-24V123.11L107.92,56h40.15L200,123.11V184A24,24,0,0,1,176,208Zm48-80L165.5,52.37,207.57,40,224,128ZM104,140a12,12,0,1,1-12-12A12,12,0,0,1,104,140Zm72,0a12,12,0,1,1-12-12A12,12,0,0,1,176,140Z"/></symbol>
  <symbol id="cat-cat" viewBox="0 0 256 256"><path d="M96,140a12,12,0,1,1-12-12A12,12,0,0,1,96,140Zm76-12a12,12,0,1,0,12,12A12,12,0,0,0,172,128Zm60-80v88c0,52.93-46.65,96-104,96S24,188.93,24,136V48A16,16,0,0,1,51.31,36.69c.14.14.26.27.38.41L69,57a111.22,111.22,0,0,1,118.1,0L204.31,37.1c.12-.14.24-.27.38-.41A16,16,0,0,1,232,48Zm-16,0-21.56,24.8A8,8,0,0,1,183.63,74,88.86,88.86,0,0,0,168,64.75V88a8,8,0,1,1-16,0V59.05a97.43,97.43,0,0,0-16-2.72V88a8,8,0,1,1-16,0V56.33a97.43,97.43,0,0,0-16,2.72V88a8,8,0,1,1-16,0V64.75A88.86,88.86,0,0,0,72.37,74a8,8,0,0,1-10.81-1.17L40,48v88c0,41.66,35.21,76,80,79.67V195.31l-13.66-13.66a8,8,0,0,1,11.32-11.31L128,180.68l10.34-10.34a8,8,0,0,1,11.32,11.31L136,195.31v20.36c44.79-3.69,80-38,80-79.67Z"/></symbol>
  <!-- Büro & Bildung -->
  <symbol id="cat-briefcase" viewBox="0 0 256 256"><path d="M216,56H176V48a24,24,0,0,0-24-24H104A24,24,0,0,0,80,48v8H40A16,16,0,0,0,24,72V200a16,16,0,0,0,16,16H216a16,16,0,0,0,16-16V72A16,16,0,0,0,216,56ZM96,48a8,8,0,0,1,8-8h48a8,8,0,0,1,8,8v8H96ZM216,72v41.61A184,184,0,0,1,128,136a184.07,184.07,0,0,1-88-22.38V72Zm0,128H40V131.64A200.19,200.19,0,0,0,128,152a200.25,200.25,0,0,0,88-20.37V200ZM104,112a8,8,0,0,1,8-8h32a8,8,0,0,1,0,16H112A8,8,0,0,1,104,112Z"/></symbol>
  <symbol id="cat-graduation-cap" viewBox="0 0 256 256"><path d="M251.76,88.94l-120-64a8,8,0,0,0-7.52,0l-120,64a8,8,0,0,0,0,14.12L32,117.87v48.42a15.91,15.91,0,0,0,4.06,10.65C49.16,191.53,78.51,216,128,216a130,130,0,0,0,48-8.76V240a8,8,0,0,0,16,0V199.51a115.63,115.63,0,0,0,27.94-22.57A15.91,15.91,0,0,0,224,166.29V117.87l27.76-14.81a8,8,0,0,0,0-14.12ZM128,200c-43.27,0-68.72-21.14-80-33.71V126.4l76.24,40.66a8,8,0,0,0,7.52,0L176,143.47v46.34C163.4,195.69,147.52,200,128,200Zm80-33.75a97.83,97.83,0,0,1-16,14.25V134.93l16-8.53ZM188,118.94l-.22-.13-56-29.87a8,8,0,0,0-7.52,14.12L171,128l-43,22.93L25,96,128,41.07,231,96Z"/></symbol>
  <symbol id="cat-chalkboard" viewBox="0 0 256 256"><path d="M240,192h-8V56a16,16,0,0,0-16-16H40A16,16,0,0,0,24,56V192H16a8,8,0,0,0,0,16H240a8,8,0,0,0,0-16ZM40,56H216V192H200V168a8,8,0,0,0-8-8H120a8,8,0,0,0-8,8v24H72V88H184v48a8,8,0,0,0,16,0V80a8,8,0,0,0-8-8H64a8,8,0,0,0-8,8V192H40ZM184,192H128V176h56Z"/></symbol>
  <symbol id="cat-book-open" viewBox="0 0 256 256"><path d="M232,48H160a40,40,0,0,0-32,16A40,40,0,0,0,96,48H24a8,8,0,0,0-8,8V200a8,8,0,0,0,8,8H96a24,24,0,0,1,24,24,8,8,0,0,0,16,0,24,24,0,0,1,24-24h72a8,8,0,0,0,8-8V56A8,8,0,0,0,232,48ZM96,192H32V64H96a24,24,0,0,1,24,24V200A39.81,39.81,0,0,0,96,192Zm128,0H160a39.81,39.81,0,0,0-24,8V88a24,24,0,0,1,24-24h64Z"/></symbol>
  <symbol id="cat-pencil" viewBox="0 0 256 256"><path d="M227.31,73.37,182.63,28.68a16,16,0,0,0-22.63,0L36.69,152A15.86,15.86,0,0,0,32,163.31V208a16,16,0,0,0,16,16H92.69A15.86,15.86,0,0,0,104,219.31L227.31,96a16,16,0,0,0,0-22.63ZM51.31,160,136,75.31,152.69,92,68,176.68ZM48,179.31,76.69,208H48Zm48,25.38L79.31,188,164,103.31,180.69,120Zm96-96L147.31,64l24-24L216,84.68Z"/></symbol>
  <symbol id="cat-envelope" viewBox="0 0 256 256"><path d="M224,48H32a8,8,0,0,0-8,8V192a16,16,0,0,0,16,16H216a16,16,0,0,0,16-16V56A8,8,0,0,0,224,48Zm-96,85.15L52.57,64H203.43ZM98.71,128,40,181.81V74.19Zm11.84,10.85,12,11.05a8,8,0,0,0,10.82,0l12-11.05,58,53.15H52.57ZM157.29,128,216,74.18V181.82Z"/></symbol>
  <symbol id="cat-calendar" viewBox="0 0 256 256"><path d="M208,32H184V24a8,8,0,0,0-16,0v8H88V24a8,8,0,0,0-16,0v8H48A16,16,0,0,0,32,48V208a16,16,0,0,0,16,16H208a16,16,0,0,0,16-16V48A16,16,0,0,0,208,32ZM72,48v8a8,8,0,0,0,16,0V48h80v8a8,8,0,0,0,16,0V48h24V80H48V48ZM208,208H48V96H208V208Zm-96-88v64a8,8,0,0,1-16,0V132.94l-4.42,2.22a8,8,0,0,1-7.16-14.32l16-8A8,8,0,0,1,112,120Zm59.16,30.45L152,176h16a8,8,0,0,1,0,16H136a8,8,0,0,1-6.4-12.8l28.78-38.37A8,8,0,1,0,145.07,132a8,8,0,1,1-13.85-8A24,24,0,0,1,176,136,23.76,23.76,0,0,1,171.16,150.45Z"/></symbol>
  <symbol id="cat-clipboard" viewBox="0 0 256 256"><path d="M200,32H163.74a47.92,47.92,0,0,0-71.48,0H56A16,16,0,0,0,40,48V216a16,16,0,0,0,16,16H200a16,16,0,0,0,16-16V48A16,16,0,0,0,200,32Zm-72,0a32,32,0,0,1,32,32H96A32,32,0,0,1,128,32Zm72,184H56V48H82.75A47.93,47.93,0,0,0,80,64v8a8,8,0,0,0,8,8h80a8,8,0,0,0,8-8V64a47.93,47.93,0,0,0-2.75-16H200Z"/></symbol>
  <symbol id="cat-calculator" viewBox="0 0 256 256"><path d="M80,120h96a8,8,0,0,0,8-8V64a8,8,0,0,0-8-8H80a8,8,0,0,0-8,8v48A8,8,0,0,0,80,120Zm8-48h80v32H88ZM200,24H56A16,16,0,0,0,40,40V216a16,16,0,0,0,16,16H200a16,16,0,0,0,16-16V40A16,16,0,0,0,200,24Zm0,192H56V40H200ZM100,148a12,12,0,1,1-12-12A12,12,0,0,1,100,148Zm40,0a12,12,0,1,1-12-12A12,12,0,0,1,140,148Zm40,0a12,12,0,1,1-12-12A12,12,0,0,1,180,148Zm-80,40a12,12,0,1,1-12-12A12,12,0,0,1,100,188Zm40,0a12,12,0,1,1-12-12A12,12,0,0,1,140,188Zm40,0a12,12,0,1,1-12-12A12,12,0,0,1,180,188Z"/></symbol>
  <symbol id="cat-laptop" viewBox="0 0 256 256"><path d="M232,168h-8V72a24,24,0,0,0-24-24H56A24,24,0,0,0,32,72v96H24a8,8,0,0,0-8,8v16a24,24,0,0,0,24,24H216a24,24,0,0,0,24-24V176A8,8,0,0,0,232,168ZM48,72a8,8,0,0,1,8-8H200a8,8,0,0,1,8,8v96H48ZM224,192a8,8,0,0,1-8,8H40a8,8,0,0,1-8-8v-8H224ZM152,88a8,8,0,0,1-8,8H112a8,8,0,0,1,0-16h32A8,8,0,0,1,152,88Z"/></symbol>
  <symbol id="cat-folder" viewBox="0 0 256 256"><path d="M216,72H131.31L104,44.69A15.86,15.86,0,0,0,92.69,40H40A16,16,0,0,0,24,56V200.62A15.4,15.4,0,0,0,39.38,216H216.89A15.13,15.13,0,0,0,232,200.89V88A16,16,0,0,0,216,72ZM40,56H92.69l16,16H40ZM216,200H40V88H216Z"/></symbol>
  <symbol id="cat-files" viewBox="0 0 256 256"><path d="M213.66,66.34l-40-40A8,8,0,0,0,168,24H88A16,16,0,0,0,72,40V56H56A16,16,0,0,0,40,72V216a16,16,0,0,0,16,16H168a16,16,0,0,0,16-16V200h16a16,16,0,0,0,16-16V72A8,8,0,0,0,213.66,66.34ZM168,216H56V72h76.69L168,107.31v84.53c0,.06,0,.11,0,.16s0,.1,0,.16V216Zm32-32H184V104a8,8,0,0,0-2.34-5.66l-40-40A8,8,0,0,0,136,56H88V40h76.69L200,75.31Zm-56-32a8,8,0,0,1-8,8H88a8,8,0,0,1,0-16h48A8,8,0,0,1,144,152Zm0,32a8,8,0,0,1-8,8H88a8,8,0,0,1,0-16h48A8,8,0,0,1,144,184Z"/></symbol>
  <symbol id="cat-magnifying-glass" viewBox="0 0 256 256"><path d="M229.66,218.34l-50.07-50.06a88.11,88.11,0,1,0-11.31,11.31l50.06,50.07a8,8,0,0,0,11.32-11.32ZM40,112a72,72,0,1,1,72,72A72.08,72.08,0,0,1,40,112Z"/></symbol>
  <symbol id="cat-newspaper-clipping" viewBox="0 0 256 256"><path d="M216,40H40A16,16,0,0,0,24,56V216a8,8,0,0,0,11.58,7.15L64,208.94l28.42,14.21a8,8,0,0,0,7.16,0L128,208.94l28.42,14.21a8,8,0,0,0,7.16,0L192,208.94l28.42,14.21A8,8,0,0,0,232,216V56A16,16,0,0,0,216,40Zm0,163.06-20.42-10.22a8,8,0,0,0-7.16,0L160,207.06l-28.42-14.22a8,8,0,0,0-7.16,0L96,207.06,67.58,192.84a8,8,0,0,0-7.16,0L40,203.06V56H216ZM136,112a8,8,0,0,1,8-8h48a8,8,0,0,1,0,16H144A8,8,0,0,1,136,112Zm0,32a8,8,0,0,1,8-8h48a8,8,0,0,1,0,16H144A8,8,0,0,1,136,144ZM64,168h48a8,8,0,0,0,8-8V96a8,8,0,0,0-8-8H64a8,8,0,0,0-8,8v64A8,8,0,0,0,64,168Zm8-64h32v48H72Z"/></symbol>
  <symbol id="cat-paperclip" viewBox="0 0 256 256"><path d="M209.66,122.34a8,8,0,0,1,0,11.32l-82.05,82a56,56,0,0,1-79.2-79.21L147.67,35.73a40,40,0,1,1,56.61,56.55L105,193A24,24,0,1,1,71,159L154.3,74.38A8,8,0,1,1,165.7,85.6L82.39,170.31a8,8,0,1,0,11.27,11.36L192.93,81A24,24,0,1,0,159,47L59.76,147.68a40,40,0,1,0,56.53,56.62l82.06-82A8,8,0,0,1,209.66,122.34Z"/></symbol>
  <!-- Finanzen -->
  <symbol id="cat-wallet" viewBox="0 0 256 256"><path d="M216,64H56a8,8,0,0,1,0-16H192a8,8,0,0,0,0-16H56A24,24,0,0,0,32,56V184a24,24,0,0,0,24,24H216a16,16,0,0,0,16-16V80A16,16,0,0,0,216,64Zm0,128H56a8,8,0,0,1-8-8V78.63A23.84,23.84,0,0,0,56,80H216Zm-48-60a12,12,0,1,1,12,12A12,12,0,0,1,168,132Z"/></symbol>
  <symbol id="cat-credit-card" viewBox="0 0 256 256"><path d="M224,48H32A16,16,0,0,0,16,64V192a16,16,0,0,0,16,16H224a16,16,0,0,0,16-16V64A16,16,0,0,0,224,48Zm0,16V88H32V64Zm0,128H32V104H224v88Zm-16-24a8,8,0,0,1-8,8H168a8,8,0,0,1,0-16h32A8,8,0,0,1,208,168Zm-64,0a8,8,0,0,1-8,8H120a8,8,0,0,1,0-16h16A8,8,0,0,1,144,168Z"/></symbol>
  <symbol id="cat-bank" viewBox="0 0 256 256"><path d="M24,104H48v64H32a8,8,0,0,0,0,16H224a8,8,0,0,0,0-16H208V104h24a8,8,0,0,0,4.19-14.81l-104-64a8,8,0,0,0-8.38,0l-104,64A8,8,0,0,0,24,104Zm40,0H96v64H64Zm80,0v64H112V104Zm48,64H160V104h32ZM128,41.39,203.74,88H52.26ZM248,208a8,8,0,0,1-8,8H16a8,8,0,0,1,0-16H240A8,8,0,0,1,248,208Z"/></symbol>
  <symbol id="cat-vault" viewBox="0 0 256 256"><path d="M216,40H40A16,16,0,0,0,24,56V192a16,16,0,0,0,16,16H56v16a8,8,0,0,0,16,0V208H184v16a8,8,0,0,0,16,0V208h16a16,16,0,0,0,16-16V56A16,16,0,0,0,216,40Zm0,152H40V56H216v64H199.32a48,48,0,1,0,0,16H216v56Zm-50.16-72a16,16,0,1,0,0,16H183a32,32,0,1,1,0-16Z"/></symbol>
  <symbol id="cat-coins" viewBox="0 0 256 256"><path d="M184,89.57V84c0-25.08-37.83-44-88-44S8,58.92,8,84v40c0,20.89,26.25,37.49,64,42.46V172c0,25.08,37.83,44,88,44s88-18.92,88-44V132C248,111.3,222.58,94.68,184,89.57ZM232,132c0,13.22-30.79,28-72,28-3.73,0-7.43-.13-11.08-.37C170.49,151.77,184,139,184,124V105.74C213.87,110.19,232,122.27,232,132ZM72,150.25V126.46A183.74,183.74,0,0,0,96,128a183.74,183.74,0,0,0,24-1.54v23.79A163,163,0,0,1,96,152,163,163,0,0,1,72,150.25Zm96-40.32V124c0,8.39-12.41,17.4-32,22.87V123.5C148.91,120.37,159.84,115.71,168,109.93ZM96,56c41.21,0,72,14.78,72,28s-30.79,28-72,28S24,97.22,24,84,54.79,56,96,56ZM24,124V109.93c8.16,5.78,19.09,10.44,32,13.57v23.37C36.41,141.4,24,132.39,24,124Zm64,48v-4.17c2.63.1,5.29.17,8,.17,3.88,0,7.67-.13,11.39-.35A121.92,121.92,0,0,0,120,171.41v23.46C100.41,189.4,88,180.39,88,172Zm48,26.25V174.4a179.48,179.48,0,0,0,24,1.6,183.74,183.74,0,0,0,24-1.54v23.79a165.45,165.45,0,0,1-48,0Zm64-3.38V171.5c12.91-3.13,23.84-7.79,32-13.57V172C232,180.39,219.59,189.4,200,194.87Z"/></symbol>
  <symbol id="cat-coin" viewBox="0 0 256 256"><path d="M207.58,63.84C186.85,53.48,159.33,48,128,48S69.15,53.48,48.42,63.84,16,88.78,16,104v48c0,15.22,11.82,29.85,32.42,40.16S96.67,208,128,208s58.85-5.48,79.58-15.84S240,167.22,240,152V104C240,88.78,228.18,74.15,207.58,63.84ZM128,64c62.64,0,96,23.23,96,40s-33.36,40-96,40-96-23.23-96-40S65.36,64,128,64Zm-8,95.86v32c-19-.62-35-3.42-48-7.49V153.05A203.43,203.43,0,0,0,120,159.86Zm16,0a203.43,203.43,0,0,0,48-6.81v31.31c-13,4.07-29,6.87-48,7.49ZM32,152V133.53a82.88,82.88,0,0,0,16.42,10.63c2.43,1.21,5,2.35,7.58,3.43V178C40.17,170.16,32,160.29,32,152Zm168,26V147.59c2.61-1.08,5.15-2.22,7.58-3.43A82.88,82.88,0,0,0,224,133.53V152C224,160.29,215.83,170.16,200,178Z"/></symbol>
  <symbol id="cat-coin-vertical" viewBox="0 0 256 256"><path d="M198.51,56.09C186.44,35.4,169.92,24,152,24H104C86.08,24,69.56,35.4,57.49,56.09,46.21,75.42,40,101,40,128s6.21,52.58,17.49,71.91C69.56,220.6,86.08,232,104,232h48c17.92,0,34.44-11.4,46.51-32.09C209.79,180.58,216,155,216,128S209.79,75.42,198.51,56.09ZM199.79,120h-32a152.78,152.78,0,0,0-9.68-48H188.7C194.82,85.38,198.86,102,199.79,120Zm-20.6-64H150.46a83.13,83.13,0,0,0-12-16H152C162,40,171.4,46,179.19,56ZM56,128c0-47.7,22-88,48-88s48,40.3,48,88-22,88-48,88S56,175.7,56,128Zm96,88H138.49a83.13,83.13,0,0,0,12-16h28.73C171.4,210,162,216,152,216Zm36.7-32H158.12a152.78,152.78,0,0,0,9.68-48h32C198.86,154,194.82,170.62,188.7,184Z"/></symbol>
  <symbol id="cat-piggy-bank" viewBox="0 0 256 256"><path d="M192,116a12,12,0,1,1-12-12A12,12,0,0,1,192,116ZM152,64H112a8,8,0,0,0,0,16h40a8,8,0,0,0,0-16Zm96,48v32a24,24,0,0,1-24,24h-2.36l-16.21,45.38A16,16,0,0,1,190.36,224H177.64a16,16,0,0,1-15.07-10.62L160.65,208h-57.3l-1.92,5.38A16,16,0,0,1,86.36,224H73.64a16,16,0,0,1-15.07-10.62L46,178.22a87.69,87.69,0,0,1-21.44-48.38A16,16,0,0,0,16,144a8,8,0,0,1-16,0,32,32,0,0,1,24.28-31A88.12,88.12,0,0,1,112,32H216a8,8,0,0,1,0,16H194.61a87.93,87.93,0,0,1,30.17,37c.43,1,.85,2,1.25,3A24,24,0,0,1,248,112Zm-16,0a8,8,0,0,0-8-8h-3.66a8,8,0,0,1-7.64-5.6A71.9,71.9,0,0,0,144,48H112A72,72,0,0,0,58.91,168.64a8,8,0,0,1,1.64,2.71L73.64,208H86.36l3.82-10.69A8,8,0,0,1,97.71,192h68.58a8,8,0,0,1,7.53,5.31L177.64,208h12.72l18.11-50.69A8,8,0,0,1,216,152h8a8,8,0,0,0,8-8Z"/></symbol>
  <symbol id="cat-currency-eur" viewBox="0 0 256 256"><path d="M190,192.33a8,8,0,0,1-.63,11.3A80,80,0,0,1,56.4,152H40a8,8,0,0,1,0-16H56V120H40a8,8,0,0,1,0-16H56.4A80,80,0,0,1,189.34,52.37,8,8,0,0,1,178.66,64.3,64,64,0,0,0,72.52,104H136a8,8,0,0,1,0,16H72v16h48a8,8,0,0,1,0,16H72.52a64,64,0,0,0,106.14,39.71A8,8,0,0,1,190,192.33Z"/></symbol>
  <symbol id="cat-currency-dollar" viewBox="0 0 256 256"><path d="M152,120H136V56h8a32,32,0,0,1,32,32,8,8,0,0,0,16,0,48.05,48.05,0,0,0-48-48h-8V24a8,8,0,0,0-16,0V40h-8a48,48,0,0,0,0,96h8v64H104a32,32,0,0,1-32-32,8,8,0,0,0-16,0,48.05,48.05,0,0,0,48,48h16v16a8,8,0,0,0,16,0V216h16a48,48,0,0,0,0-96Zm-40,0a32,32,0,0,1,0-64h8v64Zm40,80H136V136h16a32,32,0,0,1,0,64Z"/></symbol>
  <symbol id="cat-hand-coins" viewBox="0 0 256 256"><path d="M230.33,141.06a24.43,24.43,0,0,0-21.24-4.23l-41.84,9.62A28,28,0,0,0,140,112H89.94a31.82,31.82,0,0,0-22.63,9.37L44.69,144H16A16,16,0,0,0,0,160v40a16,16,0,0,0,16,16H120a7.93,7.93,0,0,0,1.94-.24l64-16a6.94,6.94,0,0,0,1.19-.4L226,182.82l.44-.2a24.6,24.6,0,0,0,3.93-41.56ZM16,160H40v40H16Zm203.43,8.21-38,16.18L119,200H56V155.31l22.63-22.62A15.86,15.86,0,0,1,89.94,128H140a12,12,0,0,1,0,24H112a8,8,0,0,0,0,16h32a8.32,8.32,0,0,0,1.79-.2l67-15.41.31-.08a8.6,8.6,0,0,1,6.3,15.9ZM164,96a36,36,0,0,0,5.9-.48,36,36,0,1,0,28.22-47A36,36,0,1,0,164,96Zm60-12a20,20,0,1,1-20-20A20,20,0,0,1,224,84ZM164,40a20,20,0,0,1,19.25,14.61,36,36,0,0,0-15,24.93A20.42,20.42,0,0,1,164,80a20,20,0,0,1,0-40Z"/></symbol>
  <symbol id="cat-receipt" viewBox="0 0 256 256"><path d="M72,104a8,8,0,0,1,8-8h96a8,8,0,0,1,0,16H80A8,8,0,0,1,72,104Zm8,40h96a8,8,0,0,0,0-16H80a8,8,0,0,0,0,16ZM232,56V208a8,8,0,0,1-11.58,7.15L192,200.94l-28.42,14.21a8,8,0,0,1-7.16,0L128,200.94,99.58,215.15a8,8,0,0,1-7.16,0L64,200.94,35.58,215.15A8,8,0,0,1,24,208V56A16,16,0,0,1,40,40H216A16,16,0,0,1,232,56Zm-16,0H40V195.06l20.42-10.22a8,8,0,0,1,7.16,0L96,199.06l28.42-14.22a8,8,0,0,1,7.16,0L160,199.06l28.42-14.22a8,8,0,0,1,7.16,0L216,195.06Z"/></symbol>
  <symbol id="cat-invoice" viewBox="0 0 256 256"><path d="M28,128a8,8,0,0,1,0-16H56a8,8,0,0,0,0-16H40a24,24,0,0,1,0-48,8,8,0,0,1,16,0h8a8,8,0,0,1,0,16H40a8,8,0,0,0,0,16H56a24,24,0,0,1,0,48,8,8,0,0,1-16,0ZM232,56V192a16,16,0,0,1-16,16H40a16,16,0,0,1-16-16V152a8,8,0,0,1,16,0v40H160V160H80a8,8,0,0,1,0-16h80V112H104a8,8,0,0,1,0-16H216V64H96a8,8,0,0,1,0-16H224A8,8,0,0,1,232,56Zm-56,88h40V112H176Zm40,48V160H176v32Z"/></symbol>
  <symbol id="cat-money" viewBox="0 0 256 256"><path d="M128,88a40,40,0,1,0,40,40A40,40,0,0,0,128,88Zm0,64a24,24,0,1,1,24-24A24,24,0,0,1,128,152ZM240,56H16a8,8,0,0,0-8,8V192a8,8,0,0,0,8,8H240a8,8,0,0,0,8-8V64A8,8,0,0,0,240,56ZM193.65,184H62.35A56.78,56.78,0,0,0,24,145.65v-35.3A56.78,56.78,0,0,0,62.35,72h131.3A56.78,56.78,0,0,0,232,110.35v35.3A56.78,56.78,0,0,0,193.65,184ZM232,93.37A40.81,40.81,0,0,1,210.63,72H232ZM45.37,72A40.81,40.81,0,0,1,24,93.37V72ZM24,162.63A40.81,40.81,0,0,1,45.37,184H24ZM210.63,184A40.81,40.81,0,0,1,232,162.63V184Z"/></symbol>
  <symbol id="cat-trend-up" viewBox="0 0 256 256"><path d="M240,56v64a8,8,0,0,1-16,0V75.31l-82.34,82.35a8,8,0,0,1-11.32,0L96,123.31,29.66,189.66a8,8,0,0,1-11.32-11.32l72-72a8,8,0,0,1,11.32,0L136,140.69,212.69,64H168a8,8,0,0,1,0-16h64A8,8,0,0,1,240,56Z"/></symbol>
  <symbol id="cat-trend-down" viewBox="0 0 256 256"><path d="M240,128v64a8,8,0,0,1-8,8H168a8,8,0,0,1,0-16h44.69L136,107.31l-34.34,34.35a8,8,0,0,1-11.32,0l-72-72A8,8,0,0,1,29.66,58.34L96,124.69l34.34-34.35a8,8,0,0,1,11.32,0L224,172.69V128a8,8,0,0,1,16,0Z"/></symbol>
  <symbol id="cat-chart-line" viewBox="0 0 256 256"><path d="M232,208a8,8,0,0,1-8,8H32a8,8,0,0,1-8-8V48a8,8,0,0,1,16,0v94.37L90.73,98a8,8,0,0,1,10.07-.38l58.81,44.11L218.73,90a8,8,0,1,1,10.54,12l-64,56a8,8,0,0,1-10.07.38L96.39,114.29,40,163.63V200H224A8,8,0,0,1,232,208Z"/></symbol>
  <symbol id="cat-percent" viewBox="0 0 256 256"><path d="M205.66,61.64l-144,144a8,8,0,0,1-11.32-11.32l144-144a8,8,0,0,1,11.32,11.31ZM50.54,101.44a36,36,0,0,1,50.92-50.91h0a36,36,0,0,1-50.92,50.91ZM56,76A20,20,0,1,0,90.14,61.84h0A20,20,0,0,0,56,76ZM216,180a36,36,0,1,1-10.54-25.46h0A35.76,35.76,0,0,1,216,180Zm-16,0a20,20,0,1,0-5.86,14.14A19.87,19.87,0,0,0,200,180Z"/></symbol>
  <!-- Sonstiges -->
  <symbol id="cat-package" viewBox="0 0 256 256"><path d="M223.68,66.15,135.68,18a15.88,15.88,0,0,0-15.36,0l-88,48.17a16,16,0,0,0-8.32,14v95.64a16,16,0,0,0,8.32,14l88,48.17a15.88,15.88,0,0,0,15.36,0l88-48.17a16,16,0,0,0,8.32-14V80.18A16,16,0,0,0,223.68,66.15ZM128,32l80.34,44-29.77,16.3-80.35-44ZM128,120,47.66,76l33.9-18.56,80.34,44ZM40,90l80,43.78v85.79L40,175.82Zm176,85.78h0l-80,43.79V133.82l32-17.51V152a8,8,0,0,0,16,0V107.55L216,90v85.77Z"/></symbol>
  <symbol id="cat-star" viewBox="0 0 256 256"><path d="M239.18,97.26A16.38,16.38,0,0,0,224.92,86l-59-4.76L143.14,26.15a16.36,16.36,0,0,0-30.27,0L90.11,81.23,31.08,86a16.46,16.46,0,0,0-9.37,28.86l45,38.83L53,211.75a16.38,16.38,0,0,0,24.5,17.82L128,198.49l50.53,31.08A16.4,16.4,0,0,0,203,211.75l-13.76-58.07,45-38.83A16.43,16.43,0,0,0,239.18,97.26Zm-15.34,5.47-48.7,42a8,8,0,0,0-2.56,7.91l14.88,62.8a.37.37,0,0,1-.17.48c-.18.14-.23.11-.38,0l-54.72-33.65a8,8,0,0,0-8.38,0L69.09,215.94c-.15.09-.19.12-.38,0a.37.37,0,0,1-.17-.48l14.88-62.8a8,8,0,0,0-2.56-7.91l-48.7-42c-.12-.1-.23-.19-.13-.5s.18-.27.33-.29l63.92-5.16A8,8,0,0,0,103,91.86l24.62-59.61c.08-.17.11-.25.35-.25s.27.08.35.25L153,91.86a8,8,0,0,0,6.75,4.92l63.92,5.16c.15,0,.24,0,.33.29S224,102.63,223.84,102.73Z"/></symbol>
  <symbol id="cat-heart" viewBox="0 0 256 256"><path d="M178,40c-20.65,0-38.73,8.88-50,23.89C116.73,48.88,98.65,40,78,40a62.07,62.07,0,0,0-62,62c0,70,103.79,126.66,108.21,129a8,8,0,0,0,7.58,0C136.21,228.66,240,172,240,102A62.07,62.07,0,0,0,178,40ZM128,214.8C109.74,204.16,32,155.69,32,102A46.06,46.06,0,0,1,78,56c19.45,0,35.78,10.36,42.6,27a8,8,0,0,0,14.8,0c6.82-16.67,23.15-27,42.6-27a46.06,46.06,0,0,1,46,46C224,155.61,146.24,204.15,128,214.8Z"/></symbol>
  <symbol id="cat-sparkle" viewBox="0 0 256 256"><path d="M197.58,129.06,146,110l-19-51.62a15.92,15.92,0,0,0-29.88,0L78,110l-51.62,19a15.92,15.92,0,0,0,0,29.88L78,178l19,51.62a15.92,15.92,0,0,0,29.88,0L146,178l51.62-19a15.92,15.92,0,0,0,0-29.88ZM137,164.22a8,8,0,0,0-4.74,4.74L112,223.85,91.78,169A8,8,0,0,0,87,164.22L32.15,144,87,123.78A8,8,0,0,0,91.78,119L112,64.15,132.22,119a8,8,0,0,0,4.74,4.74L191.85,144ZM144,40a8,8,0,0,1,8-8h16V16a8,8,0,0,1,16,0V32h16a8,8,0,0,1,0,16H184V64a8,8,0,0,1-16,0V48H152A8,8,0,0,1,144,40ZM248,88a8,8,0,0,1-8,8h-8v8a8,8,0,0,1-16,0V96h-8a8,8,0,0,1,0-16h8V72a8,8,0,0,1,16,0v8h8A8,8,0,0,1,248,88Z"/></symbol>
  <symbol id="cat-magic-wand" viewBox="0 0 256 256"><path d="M48,64a8,8,0,0,1,8-8H72V40a8,8,0,0,1,16,0V56h16a8,8,0,0,1,0,16H88V88a8,8,0,0,1-16,0V72H56A8,8,0,0,1,48,64ZM184,192h-8v-8a8,8,0,0,0-16,0v8h-8a8,8,0,0,0,0,16h8v8a8,8,0,0,0,16,0v-8h8a8,8,0,0,0,0-16Zm56-48H224V128a8,8,0,0,0-16,0v16H192a8,8,0,0,0,0,16h16v16a8,8,0,0,0,16,0V160h16a8,8,0,0,0,0-16ZM219.31,80,80,219.31a16,16,0,0,1-22.62,0L36.68,198.63a16,16,0,0,1,0-22.63L176,36.69a16,16,0,0,1,22.63,0l20.68,20.68A16,16,0,0,1,219.31,80Zm-54.63,32L144,91.31l-96,96L68.68,208ZM208,68.69,187.31,48l-32,32L176,100.69Z"/></symbol>
  <symbol id="cat-globe" viewBox="0 0 256 256"><path d="M128,24h0A104,104,0,1,0,232,128,104.12,104.12,0,0,0,128,24Zm88,104a87.61,87.61,0,0,1-3.33,24H174.16a157.44,157.44,0,0,0,0-48h38.51A87.61,87.61,0,0,1,216,128ZM102,168H154a115.11,115.11,0,0,1-26,45A115.27,115.27,0,0,1,102,168Zm-3.9-16a140.84,140.84,0,0,1,0-48h59.88a140.84,140.84,0,0,1,0,48ZM40,128a87.61,87.61,0,0,1,3.33-24H81.84a157.44,157.44,0,0,0,0,48H43.33A87.61,87.61,0,0,1,40,128ZM154,88H102a115.11,115.11,0,0,1,26-45A115.27,115.27,0,0,1,154,88Zm52.33,0H170.71a135.28,135.28,0,0,0-22.3-45.6A88.29,88.29,0,0,1,206.37,88ZM107.59,42.4A135.28,135.28,0,0,0,85.29,88H49.63A88.29,88.29,0,0,1,107.59,42.4ZM49.63,168H85.29a135.28,135.28,0,0,0,22.3,45.6A88.29,88.29,0,0,1,49.63,168Zm98.78,45.6a135.28,135.28,0,0,0,22.3-45.6h35.66A88.29,88.29,0,0,1,148.41,213.6Z"/></symbol>
  <symbol id="cat-bell" viewBox="0 0 256 256"><path d="M221.8,175.94C216.25,166.38,208,139.33,208,104a80,80,0,1,0-160,0c0,35.34-8.26,62.38-13.81,71.94A16,16,0,0,0,48,200H88.81a40,40,0,0,0,78.38,0H208a16,16,0,0,0,13.8-24.06ZM128,216a24,24,0,0,1-22.62-16h45.24A24,24,0,0,1,128,216ZM48,184c7.7-13.24,16-43.92,16-80a64,64,0,1,1,128,0c0,36.05,8.28,66.73,16,80Z"/></symbol>
  <symbol id="cat-alarm" viewBox="0 0 256 256"><path d="M128,40a96,96,0,1,0,96,96A96.11,96.11,0,0,0,128,40Zm0,176a80,80,0,1,1,80-80A80.09,80.09,0,0,1,128,216ZM61.66,37.66l-32,32A8,8,0,0,1,18.34,58.34l32-32A8,8,0,0,1,61.66,37.66Zm176,32a8,8,0,0,1-11.32,0l-32-32a8,8,0,0,1,11.32-11.32l32,32A8,8,0,0,1,237.66,69.66ZM184,128a8,8,0,0,1,0,16H128a8,8,0,0,1-8-8V80a8,8,0,0,1,16,0v48Z"/></symbol>
  <symbol id="cat-sun" viewBox="0 0 256 256"><path d="M120,40V16a8,8,0,0,1,16,0V40a8,8,0,0,1-16,0Zm72,88a64,64,0,1,1-64-64A64.07,64.07,0,0,1,192,128Zm-16,0a48,48,0,1,0-48,48A48.05,48.05,0,0,0,176,128ZM58.34,69.66A8,8,0,0,0,69.66,58.34l-16-16A8,8,0,0,0,42.34,53.66Zm0,116.68-16,16a8,8,0,0,0,11.32,11.32l16-16a8,8,0,0,0-11.32-11.32ZM192,72a8,8,0,0,0,5.66-2.34l16-16a8,8,0,0,0-11.32-11.32l-16,16A8,8,0,0,0,192,72Zm5.66,114.34a8,8,0,0,0-11.32,11.32l16,16a8,8,0,0,0,11.32-11.32ZM48,128a8,8,0,0,0-8-8H16a8,8,0,0,0,0,16H40A8,8,0,0,0,48,128Zm80,80a8,8,0,0,0-8,8v24a8,8,0,0,0,16,0V216A8,8,0,0,0,128,208Zm112-88H216a8,8,0,0,0,0,16h24a8,8,0,0,0,0-16Z"/></symbol>
  <symbol id="cat-moon" viewBox="0 0 256 256"><path d="M233.54,142.23a8,8,0,0,0-8-2,88.08,88.08,0,0,1-109.8-109.8,8,8,0,0,0-10-10,104.84,104.84,0,0,0-52.91,37A104,104,0,0,0,136,224a103.09,103.09,0,0,0,62.52-20.88,104.84,104.84,0,0,0,37-52.91A8,8,0,0,0,233.54,142.23ZM188.9,190.34A88,88,0,0,1,65.66,67.11a89,89,0,0,1,31.4-26A106,106,0,0,0,96,56,104.11,104.11,0,0,0,200,160a106,106,0,0,0,14.92-1.06A89,89,0,0,1,188.9,190.34Z"/></symbol>
  <symbol id="cat-cloud" viewBox="0 0 256 256"><path d="M160,40A88.09,88.09,0,0,0,81.29,88.67,64,64,0,1,0,72,216h88a88,88,0,0,0,0-176Zm0,160H72a48,48,0,0,1,0-96c1.1,0,2.2,0,3.29.11A88,88,0,0,0,72,128a8,8,0,0,0,16,0,72,72,0,1,1,72,72Z"/></symbol>
  <symbol id="cat-snowflake" viewBox="0 0 256 256"><path d="M223.77,150.09a8,8,0,0,1-5.86,9.68l-24.64,6,6.46,24.11a8,8,0,0,1-5.66,9.8A8.25,8.25,0,0,1,192,200a8,8,0,0,1-7.72-5.93l-7.72-28.8L136,141.86v46.83l21.66,21.65a8,8,0,0,1-11.32,11.32L128,203.31l-18.34,18.35a8,8,0,0,1-11.32-11.32L120,188.69V141.86L79.45,165.27l-7.72,28.8A8,8,0,0,1,64,200a8.25,8.25,0,0,1-2.08-.27,8,8,0,0,1-5.66-9.8l6.46-24.11-24.64-6a8,8,0,0,1,3.82-15.54l29.45,7.23L112,128,71.36,104.54l-29.45,7.23A7.85,7.85,0,0,1,40,112a8,8,0,0,1-1.91-15.77l24.64-6L56.27,66.07a8,8,0,0,1,15.46-4.14l7.72,28.8L120,114.14V67.31L98.34,45.66a8,8,0,0,1,11.32-11.32L128,52.69l18.34-18.35a8,8,0,0,1,11.32,11.32L136,67.31v46.83l40.55-23.41,7.72-28.8a8,8,0,0,1,15.46,4.14l-6.46,24.11,24.64,6A8,8,0,0,1,216,112a7.85,7.85,0,0,1-1.91-.23l-29.45-7.23L144,128l40.64,23.46,29.45-7.23A8,8,0,0,1,223.77,150.09Z"/></symbol>
  <symbol id="cat-umbrella" viewBox="0 0 256 256"><path d="M240,126.63A112.44,112.44,0,0,0,51.75,53.75a111.56,111.56,0,0,0-35.7,72.88A16,16,0,0,0,32,144h88v56a32,32,0,0,0,64,0,8,8,0,0,0-16,0,16,16,0,0,1-32,0V144h88a16,16,0,0,0,16-17.37ZM32,128l0,0a96.15,96.15,0,0,1,76.2-85.89C96.48,58,81.85,86.11,80.17,128Zm64.15,0c1.39-30.77,10.53-52.81,18.3-66.24A106.44,106.44,0,0,1,128,43.16a106.31,106.31,0,0,1,13.52,18.6C154.8,84.7,159,109.28,159.82,128Zm79.65,0c-1.68-41.89-16.31-70-28-85.94A96.07,96.07,0,0,1,224,128Z"/></symbol>
  <symbol id="cat-mountains" viewBox="0 0 256 256"><path d="M164,80a28,28,0,1,0-28-28A28,28,0,0,0,164,80Zm0-40a12,12,0,1,1-12,12A12,12,0,0,1,164,40Zm90.88,155.92-54.56-92.08A15.87,15.87,0,0,0,186.55,96h0a15.85,15.85,0,0,0-13.76,7.84L146.63,148l-44.84-76.1a16,16,0,0,0-27.58,0L1.11,195.94A8,8,0,0,0,8,208H248a8,8,0,0,0,6.88-12.08ZM88,80l23.57,40H64.43ZM22,192l33-56h66l18.74,31.8,0,0L154,192Zm150.57,0-16.66-28.28L186.55,112,234,192Z"/></symbol>
  <symbol id="cat-tree" viewBox="0 0 256 256"><path d="M198.1,62.59a76,76,0,0,0-140.2,0A71.71,71.71,0,0,0,16,127.8C15.9,166,48,199,86.14,200A72.09,72.09,0,0,0,120,192.47V232a8,8,0,0,0,16,0V192.47A72.17,72.17,0,0,0,168,200l1.82,0C208,199,240.11,166,240,127.8A71.71,71.71,0,0,0,198.1,62.59ZM169.45,184a56.08,56.08,0,0,1-33.45-10v-41l43.58-21.78a8,8,0,1,0-7.16-14.32L136,115.06V88a8,8,0,0,0-16,0v51.06L83.58,120.84a8,8,0,1,0-7.16,14.32L120,156.94v17a56,56,0,0,1-33.45,10C56.9,183.23,31.92,157.52,32,127.84A55.77,55.77,0,0,1,67.11,76a8,8,0,0,0,4.53-4.67,60,60,0,0,1,112.72,0A8,8,0,0,0,188.89,76,55.79,55.79,0,0,1,224,127.84C224.08,157.52,199.1,183.23,169.45,184Z"/></symbol>
  <symbol id="cat-plant" viewBox="0 0 256 256"><path d="M247.63,47.89a8,8,0,0,0-7.52-7.52c-51.76-3-93.32,12.74-111.18,42.22-11.8,19.49-11.78,43.16-.16,65.74a71.34,71.34,0,0,0-14.17,27L98.33,159c7.82-16.33,7.52-33.35-1-47.49-13.2-21.79-43.67-33.47-81.5-31.25a8,8,0,0,0-7.52,7.52c-2.23,37.83,9.46,68.3,31.25,81.5A45.82,45.82,0,0,0,63.44,176,54.58,54.58,0,0,0,87,170.33l25,25V224a8,8,0,0,0,16,0V194.51a55.61,55.61,0,0,1,12.27-35,73.91,73.91,0,0,0,33.31,8.4,60.9,60.9,0,0,0,31.83-8.86C234.89,141.21,250.67,99.65,247.63,47.89ZM47.81,155.6C32.47,146.31,23.79,124.32,24,96c28.32-.24,50.31,8.47,59.6,23.81,4.85,8,5.64,17.33,2.46,26.94L61.65,122.34a8,8,0,0,0-11.31,11.31l24.41,24.41C65.14,161.24,55.82,160.45,47.81,155.6Zm149.31-10.22c-13.4,8.11-29.15,8.73-45.15,2l53.69-53.7a8,8,0,0,0-11.31-11.31L140.65,136c-6.76-16-6.15-31.76,2-45.15,13.94-23,47-35.82,89.33-34.83C232.94,98.34,220.14,131.44,197.12,145.38Z"/></symbol>
  <symbol id="cat-leaf" viewBox="0 0 256 256"><path d="M223.45,40.07a8,8,0,0,0-7.52-7.52C139.8,28.08,78.82,51,52.82,94a87.09,87.09,0,0,0-12.76,49c.57,15.92,5.21,32,13.79,47.85l-19.51,19.5a8,8,0,0,0,11.32,11.32l19.5-19.51C81,210.73,97.09,215.37,113,215.94q1.67.06,3.33.06A86.93,86.93,0,0,0,162,203.18C205,177.18,227.93,116.21,223.45,40.07ZM153.75,189.5c-22.75,13.78-49.68,14-76.71.77l88.63-88.62a8,8,0,0,0-11.32-11.32L65.73,179c-13.19-27-13-54,.77-76.71,22.09-36.47,74.6-56.44,141.31-54.06C210.2,114.89,190.22,167.41,153.75,189.5Z"/></symbol>
  <symbol id="cat-flower-tulip" viewBox="0 0 256 256"><path d="M208,48a87.48,87.48,0,0,0-35.36,7.43c-15.1-25.37-39.92-38-41.06-38.59a8,8,0,0,0-7.16,0c-1.14.58-26,13.22-41.06,38.59A87.48,87.48,0,0,0,48,48a8,8,0,0,0-8,8V96a88.11,88.11,0,0,0,80,87.63v35.43L83.58,200.84a8,8,0,1,0-7.16,14.32l48,24a8,8,0,0,0,7.16,0l48-24a8,8,0,0,0-7.16-14.32L136,219.06V183.63A88.11,88.11,0,0,0,216,96V56A8,8,0,0,0,208,48ZM120,167.56A72.1,72.1,0,0,1,56,96V64.44A72.1,72.1,0,0,1,120,136Zm8-68.2A88.4,88.4,0,0,0,97.36,63.19c9.57-15.79,24-25.9,30.64-30,6.65,4.08,21.08,14.19,30.64,30A88.46,88.46,0,0,0,128,99.36ZM200,96a72.1,72.1,0,0,1-64,71.56V136a72.1,72.1,0,0,1,64-71.56Z"/></symbol>
  <symbol id="cat-butterfly" viewBox="0 0 256 256"><path d="M232.7,50.48C229,45.7,221.84,40,209,40c-16.85,0-38.46,11.28-57.81,30.16A140.07,140.07,0,0,0,136,87.53V56a8,8,0,0,0-16,0V87.53a140.07,140.07,0,0,0-15.15-17.37C85.49,51.28,63.88,40,47,40,34.16,40,27,45.7,23.3,50.48c-6.82,8.77-12.18,24.08-.21,71.2,6.05,23.83,19.51,33,30.63,36.42A44,44,0,0,0,128,205.27a44,44,0,0,0,74.28-47.17c11.12-3.4,24.57-12.59,30.63-36.42C239.63,95.24,244.85,66.1,232.7,50.48ZM92,208A28.12,28.12,0,0,1,88.86,152a8,8,0,1,0-1.76-15.9A43.64,43.64,0,0,0,66.36,144c-8.43.09-22-3.57-27.76-26.26C35.72,106.39,27,71.86,35.94,60.3,37.37,58.46,40.09,56,47,56c27.27,0,73,44.88,73,71.67V180A28,28,0,0,1,92,208ZM217.4,117.74c-5.77,22.69-19.33,26.34-27.77,26.26a43.6,43.6,0,0,0-20.74-7.95,8,8,0,1,0-1.76,15.9A28.11,28.11,0,1,1,136,180V127.67C136,100.88,181.69,56,209,56c6.95,0,9.66,2.46,11.1,4.3C229.05,71.86,220.28,106.39,217.4,117.74Z"/></symbol>
  <symbol id="cat-smiley" viewBox="0 0 256 256"><path d="M128,24A104,104,0,1,0,232,128,104.11,104.11,0,0,0,128,24Zm0,192a88,88,0,1,1,88-88A88.1,88.1,0,0,1,128,216ZM80,108a12,12,0,1,1,12,12A12,12,0,0,1,80,108Zm96,0a12,12,0,1,1-12-12A12,12,0,0,1,176,108Zm-1.07,48c-10.29,17.79-27.4,28-46.93,28s-36.63-10.2-46.92-28a8,8,0,1,1,13.84-8c7.47,12.91,19.21,20,33.08,20s25.61-7.1,33.07-20a8,8,0,0,1,13.86,8Z"/></symbol>
  <symbol id="cat-anchor" viewBox="0 0 256 256"><path d="M216,136a8,8,0,0,0-8,8c0,24.69-13.77,29.64-38.1,36.28-11.36,3.1-24.12,6.6-33.9,14.34V128h32a8,8,0,0,0,0-16H136V87a32,32,0,1,0-16,0v25H88a8,8,0,0,0,0,16h32v66.62c-9.78-7.74-22.54-11.24-33.9-14.34C61.77,173.64,48,168.69,48,144a8,8,0,0,0-16,0c0,38.11,27.67,45.66,49.9,51.72C106.23,202.36,120,207.31,120,232a8,8,0,0,0,16,0c0-24.69,13.77-29.64,38.1-36.28C196.33,189.66,224,182.11,224,144A8,8,0,0,0,216,136ZM112,56a16,16,0,1,1,16,16A16,16,0,0,1,112,56Z"/></symbol>
  <symbol id="cat-tag" viewBox="0 0 256 256"><path d="M243.31,136,144,36.69A15.86,15.86,0,0,0,132.69,32H40a8,8,0,0,0-8,8v92.69A15.86,15.86,0,0,0,36.69,144L136,243.31a16,16,0,0,0,22.63,0l84.68-84.68a16,16,0,0,0,0-22.63Zm-96,96L48,132.69V48h84.69L232,147.31ZM96,84A12,12,0,1,1,84,72,12,12,0,0,1,96,84Z"/></symbol>
  <symbol id="cat-question" viewBox="0 0 256 256"><path d="M140,180a12,12,0,1,1-12-12A12,12,0,0,1,140,180ZM128,72c-22.06,0-40,16.15-40,36v4a8,8,0,0,0,16,0v-4c0-11,10.77-20,24-20s24,9,24,20-10.77,20-24,20a8,8,0,0,0-8,8v8a8,8,0,0,0,16,0v-.72c18.24-3.35,32-17.9,32-35.28C168,88.15,150.06,72,128,72Zm104,56A104,104,0,1,1,128,24,104.11,104.11,0,0,1,232,128Zm-16,0a88,88,0,1,0-88,88A88.1,88.1,0,0,0,216,128Z"/></symbol>
</svg>
