<?xml version="1.0" encoding="UTF-8"?>
<!--
  PocketLog category icon sprite.
  Icons are from Phosphor (https://phosphoricons.com), Regular weight,
  MIT-licensed. See LICENSE.txt in this directory.

  Each <symbol id="cat-…"> mirrors a Phosphor `regular/<name>.svg`.
  Regenerate via author-time tooling — do not hand-edit individual
  paths in this file.
-->
<svg xmlns="http://www.w3.org/2000/svg" style="display:none" aria-hidden="true" fill="currentColor">
  <!-- Haus & Haushalt -->
  <symbol id="cat-house" viewBox="0 0 256 256"><path d="M219.31,108.68l-80-80a16,16,0,0,0-22.62,0l-80,80A15.87,15.87,0,0,0,32,120v96a8,8,0,0,0,8,8h64a8,8,0,0,0,8-8V160h32v56a8,8,0,0,0,8,8h64a8,8,0,0,0,8-8V120A15.87,15.87,0,0,0,219.31,108.68ZM208,208H160V152a8,8,0,0,0-8-8H104a8,8,0,0,0-8,8v56H48V120l80-80,80,80Z"/></symbol>
  <symbol id="cat-buildings" viewBox="0 0 256 256"><path d="M240,208H224V96a16,16,0,0,0-16-16H144V32a16,16,0,0,0-24.88-13.32L39.12,72A16,16,0,0,0,32,85.34V208H16a8,8,0,0,0,0,16H240a8,8,0,0,0,0-16ZM208,96V208H144V96ZM48,85.34,128,32V208H48ZM112,112v16a8,8,0,0,1-16,0V112a8,8,0,1,1,16,0Zm-32,0v16a8,8,0,0,1-16,0V112a8,8,0,1,1,16,0Zm0,56v16a8,8,0,0,1-16,0V168a8,8,0,0,1,16,0Zm32,0v16a8,8,0,0,1-16,0V168a8,8,0,0,1,16,0Z"/></symbol>
  <symbol id="cat-bed" viewBox="0 0 256 256"><path d="M216,72H32V48a8,8,0,0,0-16,0V208a8,8,0,0,0,16,0V176H240v32a8,8,0,0,0,16,0V112A40,40,0,0,0,216,72ZM32,88h72v72H32Zm88,72V88h96a24,24,0,0,1,24,24v48Z"/></symbol>
  <symbol id="cat-armchair" viewBox="0 0 256 256"><path d="M216,88.8V72a40,40,0,0,0-40-40H80A40,40,0,0,0,40,72V88.8a40,40,0,0,0,0,78.4V200a16,16,0,0,0,16,16H200a16,16,0,0,0,16-16V167.2a40,40,0,0,0,0-78.4ZM80,48h96a24,24,0,0,1,24,24V88.8A40.07,40.07,0,0,0,168,128H88A40.07,40.07,0,0,0,56,88.8V72A24,24,0,0,1,80,48ZM208.39,152H208a8,8,0,0,0-8,8v40H56V160a8,8,0,0,0-8-8h-.39A24,24,0,1,1,72,128v40a8,8,0,0,0,16,0V144h80v24a8,8,0,0,0,16,0V128a24,24,0,1,1,24.39,24Z"/></symbol>
  <symbol id="cat-television" viewBox="0 0 256 256"><path d="M216,64H147.31l34.35-34.34a8,8,0,1,0-11.32-11.32L128,60.69,85.66,18.34A8,8,0,0,0,74.34,29.66L108.69,64H40A16,16,0,0,0,24,80V200a16,16,0,0,0,16,16H216a16,16,0,0,0,16-16V80A16,16,0,0,0,216,64ZM40,80H144V200H40ZM216,200H160V80h56V200Zm-16-84a12,12,0,1,1-12-12A12,12,0,0,1,200,116Zm0,48a12,12,0,1,1-12-12A12,12,0,0,1,200,164Z"/></symbol>
  <symbol id="cat-lightbulb" viewBox="0 0 256 256"><path d="M176,232a8,8,0,0,1-8,8H88a8,8,0,0,1,0-16h80A8,8,0,0,1,176,232Zm40-128a87.55,87.55,0,0,1-33.64,69.21A16.24,16.24,0,0,0,176,186v6a16,16,0,0,1-16,16H96a16,16,0,0,1-16-16v-6a16,16,0,0,0-6.23-12.66A87.59,87.59,0,0,1,40,104.49C39.74,56.83,78.26,17.14,125.88,16A88,88,0,0,1,216,104Zm-16,0a72,72,0,0,0-73.74-72c-39,.92-70.47,33.39-70.26,72.39a71.65,71.65,0,0,0,27.64,56.3A32,32,0,0,1,96,186v6h64v-6a32.15,32.15,0,0,1,12.47-25.35A71.65,71.65,0,0,0,200,104Zm-16.11-9.34a57.6,57.6,0,0,0-46.56-46.55,8,8,0,0,0-2.66,15.78c16.57,2.79,30.63,16.85,33.44,33.45A8,8,0,0,0,176,104a9,9,0,0,0,1.35-.11A8,8,0,0,0,183.89,94.66Z"/></symbol>
  <symbol id="cat-key" viewBox="0 0 256 256"><path d="M216.57,39.43A80,80,0,0,0,83.91,120.78L28.69,176A15.86,15.86,0,0,0,24,187.31V216a16,16,0,0,0,16,16H72a8,8,0,0,0,8-8V208H96a8,8,0,0,0,8-8V184h16a8,8,0,0,0,5.66-2.34l9.56-9.57A79.73,79.73,0,0,0,160,176h.1A80,80,0,0,0,216.57,39.43ZM224,98.1c-1.09,34.09-29.75,61.86-63.89,61.9H160a63.7,63.7,0,0,1-23.65-4.51,8,8,0,0,0-8.84,1.68L116.69,168H96a8,8,0,0,0-8,8v16H72a8,8,0,0,0-8,8v16H40V187.31l58.83-58.82a8,8,0,0,0,1.68-8.84A63.72,63.72,0,0,1,96,95.92c0-34.14,27.81-62.8,61.9-63.89A64,64,0,0,1,224,98.1ZM192,76a12,12,0,1,1-12-12A12,12,0,0,1,192,76Z"/></symbol>
  <symbol id="cat-wrench" viewBox="0 0 256 256"><path d="M226.76,69a8,8,0,0,0-12.84-2.88l-40.3,37.19-17.23-3.7-3.7-17.23,37.19-40.3A8,8,0,0,0,187,29.24,72,72,0,0,0,88,96,72.34,72.34,0,0,0,94,124.94L33.79,177c-.15.12-.29.26-.43.39a32,32,0,0,0,45.26,45.26c.13-.13.27-.28.39-.42L131.06,162A72,72,0,0,0,232,96,71.56,71.56,0,0,0,226.76,69ZM160,152a56.14,56.14,0,0,1-27.07-7,8,8,0,0,0-9.92,1.77L67.11,211.51a16,16,0,0,1-22.62-22.62L109.18,133a8,8,0,0,0,1.77-9.93,56,56,0,0,1,58.36-82.31l-31.2,33.81a8,8,0,0,0-1.94,7.1L141.83,108a8,8,0,0,0,6.14,6.14l26.35,5.66a8,8,0,0,0,7.1-1.94l33.81-31.2A56.06,56.06,0,0,1,160,152Z"/></symbol>
  <symbol id="cat-hammer" viewBox="0 0 256 256"><path d="M251.34,112,183.88,44.08a96.1,96.1,0,0,0-135.77,0l-.09.09L34.25,58.4A8,8,0,0,0,45.74,69.53L59.47,55.35a79.92,79.92,0,0,1,18.71-13.9L124.68,88l-96,96a16,16,0,0,0,0,22.63l20.69,20.69a16,16,0,0,0,22.63,0l96-96,14.34,14.34h0L200,163.3a16,16,0,0,0,22.63,0l28.69-28.69A16,16,0,0,0,251.34,112ZM60.68,216,40,195.31l68-68L128.68,148ZM162.34,114.32,140,136.67,119.31,116l22.35-22.35a8,8,0,0,0,0-11.32L94.32,35a80,80,0,0,1,78.23,20.41l44.22,44.51L188,128.66l-14.34-14.34A8,8,0,0,0,162.34,114.32Zm49,37.66-12-12L228,111.25l12,12Z"/></symbol>
  <symbol id="cat-paint-brush" viewBox="0 0 256 256"><path d="M232,32a8,8,0,0,0-8-8c-44.08,0-89.31,49.71-114.43,82.63A60,60,0,0,0,32,164c0,30.88-19.54,44.73-20.47,45.37A8,8,0,0,0,16,224H92a60,60,0,0,0,57.37-77.57C182.3,121.31,232,76.08,232,32ZM92,208H34.63C41.38,198.41,48,183.92,48,164a44,44,0,1,1,44,44Zm32.42-94.45q5.14-6.66,10.09-12.55A76.23,76.23,0,0,1,155,121.49q-5.9,4.94-12.55,10.09A60.54,60.54,0,0,0,124.42,113.55Zm42.7-2.68a92.57,92.57,0,0,0-22-22c31.78-34.53,55.75-45,69.9-47.91C212.17,55.12,201.65,79.09,167.12,110.87Z"/></symbol>
  <symbol id="cat-broom" viewBox="0 0 256 256"><path d="M235.5,216.81c-22.56-11-35.5-34.58-35.5-64.8V134.73a15.94,15.94,0,0,0-10.09-14.87L165,110a8,8,0,0,1-4.48-10.34l21.32-53a28,28,0,0,0-16.1-37,28.14,28.14,0,0,0-35.82,16,.61.61,0,0,0,0,.12L108.9,79a8,8,0,0,1-10.37,4.49L73.11,73.14A15.89,15.89,0,0,0,55.74,76.8C34.68,98.45,24,123.75,24,152a111.45,111.45,0,0,0,31.18,77.53A8,8,0,0,0,61,232H232a8,8,0,0,0,3.5-15.19ZM67.14,88l25.41,10.3a24,24,0,0,0,31.23-13.45l21-53c2.56-6.11,9.47-9.27,15.43-7a12,12,0,0,1,6.88,15.92L145.69,93.76a24,24,0,0,0,13.43,31.14L184,134.73V152c0,.33,0,.66,0,1L55.77,101.71A108.84,108.84,0,0,1,67.14,88Zm48,128a87.53,87.53,0,0,1-24.34-42,8,8,0,0,0-15.49,4,105.16,105.16,0,0,0,18.36,38H64.44A95.54,95.54,0,0,1,40,152a85.9,85.9,0,0,1,7.73-36.29l137.8,55.12c3,18,10.56,33.48,21.89,45.16Z"/></symbol>
  <symbol id="cat-plug" viewBox="0 0 256 256"><path d="M237.66,66.34a8,8,0,0,0-11.32,0L192,100.69,155.31,64l34.35-34.34a8,8,0,1,0-11.32-11.32L144,52.69,117.66,26.34a8,8,0,0,0-11.32,11.32L112.69,44l-53,53a40,40,0,0,0,0,56.57l15.71,15.71L26.34,218.34a8,8,0,0,0,11.32,11.32l49.09-49.09,15.71,15.71a40,40,0,0,0,56.57,0l53-53,6.34,6.35a8,8,0,0,0,11.32-11.32L203.31,112l34.35-34.34A8,8,0,0,0,237.66,66.34ZM147.72,185a24,24,0,0,1-33.95,0L71,142.23a24,24,0,0,1,0-33.95l53-53L200.69,132Z"/></symbol>
  <!-- Kleidung & Pflege -->
  <symbol id="cat-t-shirt" viewBox="0 0 256 256"><path d="M247.59,61.22,195.83,33A8,8,0,0,0,192,32H160a8,8,0,0,0-8,8,24,24,0,0,1-48,0,8,8,0,0,0-8-8H64a8,8,0,0,0-3.84,1L8.41,61.22A15.76,15.76,0,0,0,1.82,82.48l19.27,36.81A16.37,16.37,0,0,0,35.67,128H56v80a16,16,0,0,0,16,16H184a16,16,0,0,0,16-16V128h20.34a16.37,16.37,0,0,0,14.58-8.71l19.27-36.81A15.76,15.76,0,0,0,247.59,61.22ZM35.67,112a.62.62,0,0,1-.41-.13L16.09,75.26,56,53.48V112ZM184,208H72V48h16.8a40,40,0,0,0,78.38,0H184Zm36.75-96.14a.55.55,0,0,1-.41.14H200V53.48l39.92,21.78Z"/></symbol>
  <symbol id="cat-dress" viewBox="0 0 256 256"><path d="M214.7,209.7a1.89,1.89,0,0,0-.11-.25l-45.48-96.86,20.5-32.18a1.74,1.74,0,0,0,.11-.18,16,16,0,0,0,0-16.46c-.09-.16-.2-.32-.3-.47L168,32.7V8a8,8,0,0,0-16,0V32.42L146.74,39a24,24,0,0,1-37.48,0L104,32.42V8A8,8,0,0,0,88,8V32.7L66.58,63.3c-.1.15-.21.31-.3.47a16,16,0,0,0,0,16.46,1.74,1.74,0,0,0,.11.18l20.5,32.18L41.41,209.45a1.89,1.89,0,0,0-.11.25A16,16,0,0,0,56,232H200a16,16,0,0,0,14.71-22.3ZM80,72,96.43,48.57l.33.42a40,40,0,0,0,62.48,0l.33-.42L176,72l-20.38,32H100.39ZM56,216l45.07-96h53.84L200,216Z"/></symbol>
  <symbol id="cat-sneaker" viewBox="0 0 256 256"><path d="M228.65,129.11l-60.73-20.24a24,24,0,0,1-14.32-13L130.39,41.6s0-.07,0-.1A16,16,0,0,0,110.25,33L34.53,60.49A16.05,16.05,0,0,0,24,75.53V192a16,16,0,0,0,16,16H240a16,16,0,0,0,16-16V167.06A40,40,0,0,0,228.65,129.11ZM115.72,48l7.11,16.63-21.56,7.85A8,8,0,0,0,104,88a7.91,7.91,0,0,0,2.73-.49l22.4-8.14,4.74,11.07-16.6,6A8,8,0,0,0,120,112a7.91,7.91,0,0,0,2.73-.49l17.6-6.4a40.24,40.24,0,0,0,7.68,10l-14.74,5.36A8,8,0,0,0,136,136a8.14,8.14,0,0,0,2.73-.48l28-10.18,56.87,18.95A24,24,0,0,1,238.93,160H40V75.53ZM40,192h0V176H240v16Z"/></symbol>
  <symbol id="cat-hoodie" viewBox="0 0 256 256"><path d="M237.31,120.53,183,39.12A16,16,0,0,0,169.73,32H86.27A16,16,0,0,0,73,39.12L18.69,120.53a16,16,0,0,0-2.13,13.09L38,212.21A16,16,0,0,0,53.43,224H80a16,16,0,0,0,16-16V192h64v16a16,16,0,0,0,16,16h26.57A16,16,0,0,0,218,212.21l21.44-78.59A16,16,0,0,0,237.31,120.53ZM80,176V69l24,14.15V136a8,8,0,0,0,16,0V92.57l3.94,2.32a8,8,0,0,0,8.12,0L136,92.57V128a8,8,0,0,0,16,0V83.14L176,69V176ZM169.73,48l2.92,4.39L128,78.71,83.35,52.39,86.27,48ZM80,208H53.43L32,129.41l32-48V176a16,16,0,0,0,16,16Zm122.57,0H176V192a16,16,0,0,0,16-16V81.41l32,48Z"/></symbol>
  <symbol id="cat-coat-hanger" viewBox="0 0 256 256"><path d="M241.57,171.2,141.33,96l23.46-17.6A8,8,0,0,0,168,72a40,40,0,1,0-80,0,8,8,0,0,0,16,0,24,24,0,0,1,47.69-3.78L123.34,89.49l-.28.21L14.43,171.2A16,16,0,0,0,24,200H232a16,16,0,0,0,9.6-28.8ZM232,184H24l104-78,104,78Z"/></symbol>
  <symbol id="cat-washing-machine" viewBox="0 0 256 256"><path d="M208,32H48A16,16,0,0,0,32,48V208a16,16,0,0,0,16,16H208a16,16,0,0,0,16-16V48A16,16,0,0,0,208,32Zm0,176H48V48H208V208ZM128,64a64,64,0,1,0,64,64A64.07,64.07,0,0,0,128,64Zm0,112a48,48,0,1,1,48-48A48.05,48.05,0,0,1,128,176ZM200,68a12,12,0,1,1-12-12A12,12,0,0,1,200,68Zm-74.34,49.66-16,16a8,8,0,0,1-11.32-11.32l16-16a8,8,0,0,1,11.32,11.32Zm32-3.32a8,8,0,0,1,0,11.32l-32,32a8,8,0,0,1-11.32-11.32l32-32A8,8,0,0,1,157.66,114.34Z"/></symbol>
  <symbol id="cat-scissors" viewBox="0 0 256 256"><path d="M157.73,113.13A8,8,0,0,1,159.82,102L227.48,55.7a8,8,0,0,1,9,13.21l-67.67,46.3a7.92,7.92,0,0,1-4.51,1.4A8,8,0,0,1,157.73,113.13Zm80.87,85.09a8,8,0,0,1-11.12,2.08L136,137.7,93.49,166.78a36,36,0,1,1-9-13.19L121.83,128,84.44,102.41a35.86,35.86,0,1,1,9-13.19l143,97.87A8,8,0,0,1,238.6,198.22ZM80,180a20,20,0,1,0-5.86,14.14A19.85,19.85,0,0,0,80,180ZM74.14,90.13a20,20,0,1,0-28.28,0A19.85,19.85,0,0,0,74.14,90.13Z"/></symbol>
  <symbol id="cat-shower" viewBox="0 0 256 256"><path d="M64,236a12,12,0,1,1-12-12A12,12,0,0,1,64,236Zm20-44a12,12,0,1,0,12,12A12,12,0,0,0,84,192Zm-64,0a12,12,0,1,0,12,12A12,12,0,0,0,20,192Zm32-32a12,12,0,1,0,12,12A12,12,0,0,0,52,160ZM256,40a8,8,0,0,1-8,8H219.31L191.46,75.86,169.8,202.65a16,16,0,0,1-27.09,8.66l-98-98a16,16,0,0,1,8.69-27.1L180.14,64.54l30.2-30.2A8,8,0,0,1,216,32h32A8,8,0,0,1,256,40ZM174.21,81.79,56,102l98,98Z"/></symbol>
  <symbol id="cat-drop" viewBox="0 0 256 256"><path d="M174,47.75a254.19,254.19,0,0,0-41.45-38.3,8,8,0,0,0-9.18,0A254.19,254.19,0,0,0,82,47.75C54.51,79.32,40,112.6,40,144a88,88,0,0,0,176,0C216,112.6,201.49,79.32,174,47.75ZM128,216a72.08,72.08,0,0,1-72-72c0-57.23,55.47-105,72-118,16.53,13,72,60.75,72,118A72.08,72.08,0,0,1,128,216Zm55.89-62.66a57.6,57.6,0,0,1-46.56,46.55A8.75,8.75,0,0,1,136,200a8,8,0,0,1-1.32-15.89c16.57-2.79,30.63-16.85,33.44-33.45a8,8,0,0,1,15.78,2.68Z"/></symbol>
  <symbol id="cat-toilet-paper" viewBox="0 0 256 256"><path d="M76,120a12,12,0,1,1-12-12A12,12,0,0,1,76,120Zm164,0v88a16,16,0,0,1-16,16H112a16,16,0,0,1-16-16V186.35C87.37,200.37,76.18,208,64,208c-13.87,0-26.46-9.89-35.44-27.85C20.46,164,16,142.59,16,120s4.46-43.95,12.56-60.15C37.54,41.89,50.13,32,64,32H192c13.87,0,26.46,9.89,35.44,27.85C235.54,76.05,240,97.41,240,120ZM96,120c0-42.43-16.86-72-32-72S32,77.57,32,120s16.86,72,32,72S96,162.43,96,120Zm128,88V128H208a8,8,0,0,1,0-16h15.79C221.84,73.9,206.16,48,192,48H92.12a73.6,73.6,0,0,1,7.32,11.85c7.14,14.28,11.44,32.56,12.37,52.15H128a8,8,0,0,1,0,16H112v80Zm-48-96H160a8,8,0,0,0,0,16h16a8,8,0,0,0,0-16Z"/></symbol>
  <!-- Lebensmittel & Getränke -->
  <symbol id="cat-shopping-cart" viewBox="0 0 256 256"><path d="M230.14,58.87A8,8,0,0,0,224,56H62.68L56.6,22.57A8,8,0,0,0,48.73,16H24a8,8,0,0,0,0,16h18L67.56,172.29a24,24,0,0,0,5.33,11.27,28,28,0,1,0,44.4,8.44h45.42A27.75,27.75,0,0,0,160,204a28,28,0,1,0,28-28H91.17a8,8,0,0,1-7.87-6.57L80.13,152h116a24,24,0,0,0,23.61-19.71l12.16-66.86A8,8,0,0,0,230.14,58.87ZM104,204a12,12,0,1,1-12-12A12,12,0,0,1,104,204Zm96,0a12,12,0,1,1-12-12A12,12,0,0,1,200,204Zm4-74.57A8,8,0,0,1,196.1,136H77.22L65.59,72H214.41Z"/></symbol>
  <symbol id="cat-basket" viewBox="0 0 256 256"><path d="M136,120v56a8,8,0,0,1-16,0V120a8,8,0,0,1,16,0Zm36.84-.8-5.6,56A8,8,0,0,0,174.4,184a7.32,7.32,0,0,0,.81,0,8,8,0,0,0,7.95-7.2l5.6-56a8,8,0,0,0-15.92-1.6Zm-89.68,0a8,8,0,0,0-15.92,1.6l5.6,56a8,8,0,0,0,8,7.2,7.32,7.32,0,0,0,.81,0,8,8,0,0,0,7.16-8.76ZM239.93,89.06,224.86,202.12A16.06,16.06,0,0,1,209,216H47a16.06,16.06,0,0,1-15.86-13.88L16.07,89.06A8,8,0,0,1,24,80H68.37L122,18.73a8,8,0,0,1,12,0L187.63,80H232a8,8,0,0,1,7.93,9.06ZM89.63,80h76.74L128,36.15ZM222.86,96H33.14L47,200H209Z"/></symbol>
  <symbol id="cat-bread" viewBox="0 0 256 256"><path d="M240,80a40,40,0,0,0-40-40H48a40,40,0,0,0-16,76.65V200a16,16,0,0,0,16,16H200a16,16,0,0,0,16-16V116.65A40.06,40.06,0,0,0,240,80ZM48,120a8,8,0,0,0,0-16,24,24,0,0,1,0-48h96a24,24,0,0,1,0,48,8,8,0,0,0,0,16v80H48Zm152-16a8,8,0,0,0,0,16v80H160V116.65A40,40,0,0,0,176,56h24a24,24,0,0,1,0,48Z"/></symbol>
  <symbol id="cat-hamburger" viewBox="0 0 256 256"><path d="M48.07,104H207.93a16,16,0,0,0,15.72-19.38C216.22,49.5,176,24,128,24S39.78,49.5,32.35,84.62A16,16,0,0,0,48.07,104ZM128,40c39.82,0,74.21,20.61,79.93,48H48.07L48,87.93C53.79,60.61,88.18,40,128,40ZM229.26,152.48l-41.13,15L151,152.57a8,8,0,0,0-5.94,0l-37,14.81L71,152.57a8,8,0,0,0-5.7-.09l-44,16a8,8,0,0,0,5.47,15L40,178.69V184a40,40,0,0,0,40,40h96a40,40,0,0,0,40-40v-9.67l18.73-6.81a8,8,0,1,0-5.47-15ZM200,184a24,24,0,0,1-24,24H80a24,24,0,0,1-24-24V172.88l11.87-4.32L105,183.43a8,8,0,0,0,5.94,0l37-14.81,37,14.81a8,8,0,0,0,5.7.09l9.27-3.37ZM16,128a8,8,0,0,1,8-8H232a8,8,0,0,1,0,16H24A8,8,0,0,1,16,128Z"/></symbol>
  <symbol id="cat-pizza" viewBox="0 0 256 256"><path d="M239.54,63a15.91,15.91,0,0,0-7.25-9.9,201.49,201.49,0,0,0-208.58,0,16,16,0,0,0-5.37,22l96,157.27a16,16,0,0,0,27.36,0l96-157.27A15.82,15.82,0,0,0,239.54,63ZM63.59,118.5a24,24,0,1,1,24.47,40.09Zm87.92,66.95A24,24,0,0,1,176,145.37Zm32.93-53.93a40,40,0,0,0-41.38,67.77L128,224,96.5,172.43a40,40,0,1,0-41.35-67.76L48.8,94.26a152,152,0,0,1,158.39,0Zm31.1-50.93a168.12,168.12,0,0,0-175.08,0L32,66.77a185.6,185.6,0,0,1,192,0Z"/></symbol>
  <symbol id="cat-cookie" viewBox="0 0 256 256"><path d="M164.49,163.51a12,12,0,1,1-17,0A12,12,0,0,1,164.49,163.51Zm-81-8a12,12,0,1,0,17,0A12,12,0,0,0,83.51,155.51Zm9-39a12,12,0,1,0-17,0A12,12,0,0,0,92.49,116.49Zm48-1a12,12,0,1,0,0,17A12,12,0,0,0,140.49,115.51ZM232,128A104,104,0,1,1,128,24a8,8,0,0,1,8,8,40,40,0,0,0,40,40,8,8,0,0,1,8,8,40,40,0,0,0,40,40A8,8,0,0,1,232,128Zm-16.31,7.39A56.13,56.13,0,0,1,168.5,87.5a56.13,56.13,0,0,1-47.89-47.19,88,88,0,1,0,95.08,95.08Z"/></symbol>
  <symbol id="cat-cake" viewBox="0 0 256 256"><path d="M232,112a24,24,0,0,0-24-24H136V79a32.06,32.06,0,0,0,24-31c0-28-26.44-45.91-27.56-46.66a8,8,0,0,0-8.88,0C122.44,2.09,96,20,96,48a32.06,32.06,0,0,0,24,31v9H48a24,24,0,0,0-24,24v23.33a40.84,40.84,0,0,0,8,24.24V200a24,24,0,0,0,24,24H200a24,24,0,0,0,24-24V159.57a40.84,40.84,0,0,0,8-24.24ZM112,48c0-13.57,10-24.46,16-29.79,6,5.33,16,16.22,16,29.79a16,16,0,0,1-32,0ZM40,112a8,8,0,0,1,8-8H208a8,8,0,0,1,8,8v23.33c0,13.25-10.46,24.31-23.32,24.66A24,24,0,0,1,168,136a8,8,0,0,0-16,0,24,24,0,0,1-48,0,8,8,0,0,0-16,0,24,24,0,0,1-24.68,24C50.46,159.64,40,148.58,40,135.33Zm160,96H56a8,8,0,0,1-8-8V172.56A38.77,38.77,0,0,0,62.88,176a39.69,39.69,0,0,0,29-11.31A40.36,40.36,0,0,0,96,160a40,40,0,0,0,64,0,40.36,40.36,0,0,0,4.13,4.67A39.67,39.67,0,0,0,192,176c.38,0,.76,0,1.14,0A38.77,38.77,0,0,0,208,172.56V200A8,8,0,0,1,200,208Z"/></symbol>
  <symbol id="cat-coffee" viewBox="0 0 256 256"><path d="M80,56V24a8,8,0,0,1,16,0V56a8,8,0,0,1-16,0Zm40,8a8,8,0,0,0,8-8V24a8,8,0,0,0-16,0V56A8,8,0,0,0,120,64Zm32,0a8,8,0,0,0,8-8V24a8,8,0,0,0-16,0V56A8,8,0,0,0,152,64Zm96,56v8a40,40,0,0,1-37.51,39.91,96.59,96.59,0,0,1-27,40.09H208a8,8,0,0,1,0,16H32a8,8,0,0,1,0-16H56.54A96.3,96.3,0,0,1,24,136V88a8,8,0,0,1,8-8H208A40,40,0,0,1,248,120ZM200,96H40v40a80.27,80.27,0,0,0,45.12,72h69.76A80.27,80.27,0,0,0,200,136Zm32,24a24,24,0,0,0-16-22.62V136a95.78,95.78,0,0,1-1.2,15A24,24,0,0,0,232,128Z"/></symbol>
  <symbol id="cat-beer-stein" viewBox="0 0 256 256"><path d="M104,104v80a8,8,0,0,1-16,0V104a8,8,0,0,1,16,0Zm40-8a8,8,0,0,0-8,8v80a8,8,0,0,0,16,0V104A8,8,0,0,0,144,96Zm96,16v64a24,24,0,0,1-24,24H200v8a16,16,0,0,1-16,16H56a16,16,0,0,1-16-16V72c0-30.88,28.71-56,64-56,16.77,0,32.91,5.8,44.82,16H160a40,40,0,0,1,40,40V88h16A24,24,0,0,1,240,112ZM57,64H182.62A24,24,0,0,0,160,48H145.74a8,8,0,0,1-5.53-2.22C131.06,37,117.87,32,104,32,80.82,32,61.43,45.76,57,64ZM184,208V80H56V208H184Zm40-96a8,8,0,0,0-8-8H200v80h16a8,8,0,0,0,8-8Z"/></symbol>
  <symbol id="cat-wine" viewBox="0 0 256 256"><path d="M205.33,103.67,183.56,29.74A8,8,0,0,0,175.89,24H80.11a8,8,0,0,0-7.67,5.74L50.67,103.67a63.46,63.46,0,0,0,17.42,64.67A87.39,87.39,0,0,0,120,191.63V232H88a8,8,0,1,0,0,16h80a8,8,0,1,0,0-16H136V191.63a87.41,87.41,0,0,0,51.91-23.29A63.46,63.46,0,0,0,205.33,103.67ZM86.09,40h83.82L190,108.19c.09.3.17.6.25.9-21.42,7.68-45.54-1.6-58.63-8.23C106.43,88.11,86.43,86.49,71.68,88.93ZM177,156.65a71.69,71.69,0,0,1-98,0,47.55,47.55,0,0,1-13-48.46l.45-1.52c12-4.06,31.07-5.14,57.93,8.47,11.15,5.65,29.16,12.85,48.43,12.85a68.64,68.64,0,0,0,19.05-2.6A47.2,47.2,0,0,1,177,156.65Z"/></symbol>
  <symbol id="cat-martini" viewBox="0 0 256 256"><path d="M237.66,45.66A8,8,0,0,0,232,32H24a8,8,0,0,0-5.66,13.66L120,147.31V208H88a8,8,0,0,0,0,16h80a8,8,0,0,0,0-16H136V147.31ZM43.31,48H212.69l-16,16H59.31ZM128,132.69,75.31,80H180.69Z"/></symbol>
  <symbol id="cat-fork-knife" viewBox="0 0 256 256"><path d="M72,88V40a8,8,0,0,1,16,0V88a8,8,0,0,1-16,0ZM216,40V224a8,8,0,0,1-16,0V176H152a8,8,0,0,1-8-8,268.75,268.75,0,0,1,7.22-56.88c9.78-40.49,28.32-67.63,53.63-78.47A8,8,0,0,1,216,40ZM200,53.9c-32.17,24.57-38.47,84.42-39.7,106.1H200ZM119.89,38.69a8,8,0,1,0-15.78,2.63L112,88.63a32,32,0,0,1-64,0l7.88-47.31a8,8,0,1,0-15.78-2.63l-8,48A8.17,8.17,0,0,0,32,88a48.07,48.07,0,0,0,40,47.32V224a8,8,0,0,0,16,0V135.32A48.07,48.07,0,0,0,128,88a8.17,8.17,0,0,0-.11-1.31Z"/></symbol>
  <!-- Mobilität -->
  <symbol id="cat-car" viewBox="0 0 256 256"><path d="M240,104H229.2L201.42,41.5A16,16,0,0,0,186.8,32H69.2a16,16,0,0,0-14.62,9.5L26.8,104H16a8,8,0,0,0,0,16h8v80a16,16,0,0,0,16,16H64a16,16,0,0,0,16-16V184h96v16a16,16,0,0,0,16,16h24a16,16,0,0,0,16-16V120h8a8,8,0,0,0,0-16ZM69.2,48H186.8l24.89,56H44.31ZM64,200H40V184H64Zm128,0V184h24v16Zm24-32H40V120H216ZM56,144a8,8,0,0,1,8-8H80a8,8,0,0,1,0,16H64A8,8,0,0,1,56,144Zm112,0a8,8,0,0,1,8-8h16a8,8,0,0,1,0,16H176A8,8,0,0,1,168,144Z"/></symbol>
  <symbol id="cat-taxi" viewBox="0 0 256 256"><path d="M240,104H228.64L201.25,56.06A16,16,0,0,0,187.36,48H165.42l-12-29.94A15.93,15.93,0,0,0,138.58,8H117.42a15.93,15.93,0,0,0-14.86,10.06L90.58,48H68.64a16,16,0,0,0-13.89,8.06L27.36,104H16a8,8,0,0,0,0,16h8v80a16,16,0,0,0,16,16H64a16,16,0,0,0,16-16V184h96v16a16,16,0,0,0,16,16h24a16,16,0,0,0,16-16V120h8a8,8,0,0,0,0-16ZM117.42,24h21.16l9.6,24H107.82ZM68.64,64H187.36l22.85,40H45.79ZM64,200H40V184H64Zm128,0V184h24v16Zm24-32H40V120H216ZM56,144a8,8,0,0,1,8-8H80a8,8,0,0,1,0,16H64A8,8,0,0,1,56,144Zm112,0a8,8,0,0,1,8-8h16a8,8,0,0,1,0,16H176A8,8,0,0,1,168,144Z"/></symbol>
  <symbol id="cat-bus" viewBox="0 0 256 256"><path d="M184,32H72A32,32,0,0,0,40,64V208a16,16,0,0,0,16,16H80a16,16,0,0,0,16-16V192h64v16a16,16,0,0,0,16,16h24a16,16,0,0,0,16-16V64A32,32,0,0,0,184,32ZM56,176V120H200v56Zm0-96H200v24H56ZM72,48H184a16,16,0,0,1,16,16H56A16,16,0,0,1,72,48Zm8,160H56V192H80Zm96,0V192h24v16Zm-72-60a12,12,0,1,1-12-12A12,12,0,0,1,104,148Zm72,0a12,12,0,1,1-12-12A12,12,0,0,1,176,148Zm72-68v24a8,8,0,0,1-16,0V80a8,8,0,0,1,16,0ZM24,80v24a8,8,0,0,1-16,0V80a8,8,0,0,1,16,0Z"/></symbol>
  <symbol id="cat-train" viewBox="0 0 256 256"><path d="M184,24H72A32,32,0,0,0,40,56V184a32,32,0,0,0,32,32h8L65.6,235.2a8,8,0,1,0,12.8,9.6L100,216h56l21.6,28.8a8,8,0,1,0,12.8-9.6L176,216h8a32,32,0,0,0,32-32V56A32,32,0,0,0,184,24ZM56,120V80h64v40Zm80-40h64v40H136ZM72,40H184a16,16,0,0,1,16,16v8H56V56A16,16,0,0,1,72,40ZM184,200H72a16,16,0,0,1-16-16V136H200v48A16,16,0,0,1,184,200ZM96,172a12,12,0,1,1-12-12A12,12,0,0,1,96,172Zm88,0a12,12,0,1,1-12-12A12,12,0,0,1,184,172Z"/></symbol>
  <symbol id="cat-airplane" viewBox="0 0 256 256"><path d="M235.58,128.84,160,91.06V48a32,32,0,0,0-64,0V91.06L20.42,128.84A8,8,0,0,0,16,136v32a8,8,0,0,0,9.57,7.84L96,161.76v18.93L82.34,194.34A8,8,0,0,0,80,200v32a8,8,0,0,0,11,7.43l37-14.81,37,14.81A8,8,0,0,0,176,232V200a8,8,0,0,0-2.34-5.66L160,180.69V161.76l70.43,14.08A8,8,0,0,0,240,168V136A8,8,0,0,0,235.58,128.84ZM224,158.24l-70.43-14.08A8,8,0,0,0,144,152v32a8,8,0,0,0,2.34,5.66L160,203.31v16.87l-29-11.61a8,8,0,0,0-5.94,0L96,220.18V203.31l13.66-13.65A8,8,0,0,0,112,184V152a8,8,0,0,0-9.57-7.84L32,158.24v-17.3l75.58-37.78A8,8,0,0,0,112,96V48a16,16,0,0,1,32,0V96a8,8,0,0,0,4.42,7.16L224,140.94Z"/></symbol>
  <symbol id="cat-bicycle" viewBox="0 0 256 256"><path d="M208,112a47.81,47.81,0,0,0-16.93,3.09L165.93,72H192a8,8,0,0,1,8,8,8,8,0,0,0,16,0,24,24,0,0,0-24-24H152a8,8,0,0,0-6.91,12l11.65,20H99.26L82.91,60A8,8,0,0,0,76,56H48a8,8,0,0,0,0,16H71.41L85.12,95.51,69.41,117.06a48.13,48.13,0,1,0,12.92,9.44l11.59-15.9L125.09,164A8,8,0,1,0,138.91,156l-30.32-52h57.48l11.19,19.17A48,48,0,1,0,208,112ZM80,160a32,32,0,1,1-20.21-29.74l-18.25,25a8,8,0,1,0,12.92,9.42l18.25-25A31.88,31.88,0,0,1,80,160Zm128,32a32,32,0,0,1-22.51-54.72L201.09,164A8,8,0,1,0,214.91,156L199.3,129.21A32,32,0,1,1,208,192Z"/></symbol>
  <symbol id="cat-gas-pump" viewBox="0 0 256 256"><path d="M241,69.66,221.66,50.34a8,8,0,0,0-11.32,11.32L229.66,81A8,8,0,0,1,232,86.63V168a8,8,0,0,1-16,0V128a24,24,0,0,0-24-24H176V56a24,24,0,0,0-24-24H72A24,24,0,0,0,48,56V208H32a8,8,0,0,0,0,16H192a8,8,0,0,0,0-16H176V120h16a8,8,0,0,1,8,8v40a24,24,0,0,0,48,0V86.63A23.85,23.85,0,0,0,241,69.66ZM64,208V56a8,8,0,0,1,8-8h80a8,8,0,0,1,8,8V208Zm80-96a8,8,0,0,1-8,8H88a8,8,0,0,1,0-16h48A8,8,0,0,1,144,112Z"/></symbol>
  <!-- Freizeit -->
  <symbol id="cat-film-strip" viewBox="0 0 256 256"><path d="M216,40H40A16,16,0,0,0,24,56V200a16,16,0,0,0,16,16H216a16,16,0,0,0,16-16V56A16,16,0,0,0,216,40ZM40,88h80v80H40Zm96-16V56h32V72Zm-16,0H88V56h32Zm0,112v16H88V184Zm16,0h32v16H136Zm0-16V88h80v80Zm80-96H184V56h32ZM72,56V72H40V56ZM40,184H72v16H40Zm176,16H184V184h32v16Z"/></symbol>
  <symbol id="cat-game-controller" viewBox="0 0 256 256"><path d="M176,112H152a8,8,0,0,1,0-16h24a8,8,0,0,1,0,16ZM104,96H96V88a8,8,0,0,0-16,0v8H72a8,8,0,0,0,0,16h8v8a8,8,0,0,0,16,0v-8h8a8,8,0,0,0,0-16ZM241.48,200.65a36,36,0,0,1-54.94,4.81c-.12-.12-.24-.24-.35-.37L146.48,160h-37L69.81,205.09l-.35.37A36.08,36.08,0,0,1,44,216,36,36,0,0,1,8.56,173.75a.68.68,0,0,1,0-.14L24.93,89.52A59.88,59.88,0,0,1,83.89,40H172a60.08,60.08,0,0,1,59,49.25c0,.06,0,.12,0,.18l16.37,84.17a.68.68,0,0,1,0,.14A35.74,35.74,0,0,1,241.48,200.65ZM172,144a44,44,0,0,0,0-88H83.89A43.9,43.9,0,0,0,40.68,92.37l0,.13L24.3,176.59A20,20,0,0,0,58,194.3l41.92-47.59a8,8,0,0,1,6-2.71Zm59.7,32.59-8.74-45A60,60,0,0,1,172,160h-4.2L198,194.31a20.09,20.09,0,0,0,17.46,5.39,20,20,0,0,0,16.23-23.11Z"/></symbol>
  <symbol id="cat-music-note" viewBox="0 0 256 256"><path d="M210.3,56.34l-80-24A8,8,0,0,0,120,40V148.26A48,48,0,1,0,136,184V98.75l69.7,20.91A8,8,0,0,0,216,112V64A8,8,0,0,0,210.3,56.34ZM88,216a32,32,0,1,1,32-32A32,32,0,0,1,88,216ZM200,101.25l-64-19.2V50.75L200,70Z"/></symbol>
  <symbol id="cat-book" viewBox="0 0 256 256"><path d="M208,24H72A32,32,0,0,0,40,56V224a8,8,0,0,0,8,8H192a8,8,0,0,0,0-16H56a16,16,0,0,1,16-16H208a8,8,0,0,0,8-8V32A8,8,0,0,0,208,24Zm-8,160H72a31.82,31.82,0,0,0-16,4.29V56A16,16,0,0,1,72,40H200Z"/></symbol>
  <symbol id="cat-gift" viewBox="0 0 256 256"><path d="M216,72H180.92c.39-.33.79-.65,1.17-1A29.53,29.53,0,0,0,192,49.57,32.62,32.62,0,0,0,158.44,16,29.53,29.53,0,0,0,137,25.91a54.94,54.94,0,0,0-9,14.48,54.94,54.94,0,0,0-9-14.48A29.53,29.53,0,0,0,97.56,16,32.62,32.62,0,0,0,64,49.57,29.53,29.53,0,0,0,73.91,71c.38.33.78.65,1.17,1H40A16,16,0,0,0,24,88v32a16,16,0,0,0,16,16v64a16,16,0,0,0,16,16H200a16,16,0,0,0,16-16V136a16,16,0,0,0,16-16V88A16,16,0,0,0,216,72ZM149,36.51a13.69,13.69,0,0,1,10-4.5h.49A16.62,16.62,0,0,1,176,49.08a13.69,13.69,0,0,1-4.5,10c-9.49,8.4-25.24,11.36-35,12.4C137.7,60.89,141,45.5,149,36.51Zm-64.09.36A16.63,16.63,0,0,1,96.59,32h.49a13.69,13.69,0,0,1,10,4.5c8.39,9.48,11.35,25.2,12.39,34.92-9.72-1-25.44-4-34.92-12.39a13.69,13.69,0,0,1-4.5-10A16.6,16.6,0,0,1,84.87,36.87ZM40,88h80v32H40Zm16,48h64v64H56Zm144,64H136V136h64Zm16-80H136V88h80v32Z"/></symbol>
  <symbol id="cat-ticket" viewBox="0 0 256 256"><path d="M232,104a8,8,0,0,0,8-8V64a16,16,0,0,0-16-16H32A16,16,0,0,0,16,64V96a8,8,0,0,0,8,8,24,24,0,0,1,0,48,8,8,0,0,0-8,8v32a16,16,0,0,0,16,16H224a16,16,0,0,0,16-16V160a8,8,0,0,0-8-8,24,24,0,0,1,0-48ZM32,167.2a40,40,0,0,0,0-78.4V64H88V192H32Zm192,0V192H104V64H224V88.8a40,40,0,0,0,0,78.4Z"/></symbol>
  <symbol id="cat-soccer-ball" viewBox="0 0 256 256"><path d="M128,24A104,104,0,1,0,232,128,104.11,104.11,0,0,0,128,24Zm76.52,147.42H170.9l-9.26-12.76,12.63-36.78,15-4.89,26.24,20.13A87.38,87.38,0,0,1,204.52,171.42Zm-164-34.3L66.71,117l15,4.89,12.63,36.78L85.1,171.42H51.48A87.38,87.38,0,0,1,40.47,137.12Zm10-50.64,5.51,18.6L40.71,116.77A87.33,87.33,0,0,1,50.43,86.48ZM109,152,97.54,118.65,128,97.71l30.46,20.94L147,152Zm91.07-46.92,5.51-18.6a87.33,87.33,0,0,1,9.72,30.29Zm-6.2-35.38-9.51,32.08-15.07,4.89L136,83.79V68.21l29.09-20A88.58,88.58,0,0,1,193.86,69.7ZM146.07,41.87,128,54.29,109.93,41.87a88.24,88.24,0,0,1,36.14,0ZM90.91,48.21l29.09,20V83.79L86.72,106.67l-15.07-4.89L62.14,69.7A88.58,88.58,0,0,1,90.91,48.21ZM63.15,187.42H83.52l7.17,20.27A88.4,88.4,0,0,1,63.15,187.42ZM110,214.13,98.12,180.71,107.35,168h41.3l9.23,12.71-11.83,33.42a88,88,0,0,1-36.1,0Zm55.36-6.44,7.17-20.27h20.37A88.4,88.4,0,0,1,165.31,207.69Z"/></symbol>
  <symbol id="cat-tree-palm" viewBox="0 0 256 256"><path d="M237.79,53.23a66.86,66.86,0,0,0-97.74,0,72.21,72.21,0,0,0-12.05,17,72.21,72.21,0,0,0-12-17,66.86,66.86,0,0,0-97.74,0,8,8,0,0,0,2.6,12.85L77,90.55a71.42,71.42,0,0,0-43.36,33.21,70.64,70.64,0,0,0-7.2,54.32A8,8,0,0,0,39,182.36l81-61.68V224a8,8,0,0,0,16,0V120.68l81,61.68a8,8,0,0,0,12.57-4.28,70.64,70.64,0,0,0-7.2-54.32A71.42,71.42,0,0,0,179,90.55l56.22-24.47a8,8,0,0,0,2.6-12.85ZM67.08,48a51.13,51.13,0,0,1,37.28,16.26,56.53,56.53,0,0,1,14.26,26.93L39,56.53A50.5,50.5,0,0,1,67.08,48ZM40,161.5a54.82,54.82,0,0,1,7.47-29.7,55.55,55.55,0,0,1,34-25.89A56.52,56.52,0,0,1,96.1,104a55.82,55.82,0,0,1,16.23,2.41ZM208.5,131.8A54.82,54.82,0,0,1,216,161.5l-72.3-55.1a56.3,56.3,0,0,1,64.83,25.4ZM137.38,91.19a56.53,56.53,0,0,1,14.26-26.93A51.13,51.13,0,0,1,188.92,48,50.5,50.5,0,0,1,217,56.53Z"/></symbol>
  <!-- Gesundheit -->
  <symbol id="cat-pill" viewBox="0 0 256 256"><path d="M216.42,39.6a53.26,53.26,0,0,0-75.32,0L39.6,141.09a53.26,53.26,0,0,0,75.32,75.31h0L216.43,114.91A53.31,53.31,0,0,0,216.42,39.6ZM103.61,205.09h0a37.26,37.26,0,0,1-52.7-52.69L96,107.31,148.7,160ZM205.11,103.6,160,148.69,107.32,96l45.1-45.09a37.26,37.26,0,0,1,52.69,52.69ZM189.68,82.34a8,8,0,0,1,0,11.32l-24,24a8,8,0,1,1-11.31-11.32l24-24A8,8,0,0,1,189.68,82.34Z"/></symbol>
  <symbol id="cat-first-aid-kit" viewBox="0 0 256 256"><path d="M216,56H176V48a24,24,0,0,0-24-24H104A24,24,0,0,0,80,48v8H40A16,16,0,0,0,24,72V200a16,16,0,0,0,16,16H216a16,16,0,0,0,16-16V72A16,16,0,0,0,216,56ZM96,48a8,8,0,0,1,8-8h48a8,8,0,0,1,8,8v8H96ZM216,200H40V72H216V200Zm-56-64a8,8,0,0,1-8,8H136v16a8,8,0,0,1-16,0V144H104a8,8,0,0,1,0-16h16V112a8,8,0,0,1,16,0v16h16A8,8,0,0,1,160,136Z"/></symbol>
  <symbol id="cat-heartbeat" viewBox="0 0 256 256"><path d="M72,144H32a8,8,0,0,1,0-16H67.72l13.62-20.44a8,8,0,0,1,13.32,0l25.34,38,9.34-14A8,8,0,0,1,136,128h24a8,8,0,0,1,0,16H140.28l-13.62,20.44a8,8,0,0,1-13.32,0L88,126.42l-9.34,14A8,8,0,0,1,72,144ZM178,40c-20.65,0-38.73,8.88-50,23.89C116.73,48.88,98.65,40,78,40a62.07,62.07,0,0,0-62,62c0,.75,0,1.5,0,2.25a8,8,0,1,0,16-.5c0-.58,0-1.17,0-1.75A46.06,46.06,0,0,1,78,56c19.45,0,35.78,10.36,42.6,27a8,8,0,0,0,14.8,0c6.82-16.67,23.15-27,42.6-27a46.06,46.06,0,0,1,46,46c0,53.61-77.76,102.15-96,112.8-10.83-6.31-42.63-26-66.68-52.21a8,8,0,1,0-11.8,10.82c31.17,34,72.93,56.68,74.69,57.63a8,8,0,0,0,7.58,0C136.21,228.66,240,172,240,102A62.07,62.07,0,0,0,178,40Z"/></symbol>
  <symbol id="cat-stethoscope" viewBox="0 0 256 256"><path d="M220,160a12,12,0,1,1-12-12A12,12,0,0,1,220,160Zm-4.55,39.29A48.08,48.08,0,0,1,168,240H144a48.05,48.05,0,0,1-48-48V151.49A64,64,0,0,1,40,88V40a8,8,0,0,1,8-8H72a8,8,0,0,1,0,16H56V88a48,48,0,0,0,48.64,48c26.11-.34,47.36-22.25,47.36-48.83V48H136a8,8,0,0,1,0-16h24a8,8,0,0,1,8,8V87.17c0,32.84-24.53,60.29-56,64.31V192a32,32,0,0,0,32,32h24a32.06,32.06,0,0,0,31.22-25,40,40,0,1,1,16.23.27ZM232,160a24,24,0,1,0-24,24A24,24,0,0,0,232,160Z"/></symbol>
  <symbol id="cat-tooth" viewBox="0 0 256 256"><path d="M171,71.42,149.54,80,171,88.57A8,8,0,1,1,165,103.42L128,88.61,91,103.42A8,8,0,1,1,85,88.57L106.46,80,85,71.42A8,8,0,1,1,91,56.57l37,14.81,37-14.81A8,8,0,1,1,171,71.42Zm53,8.33c0,42.72-8,75.4-14.69,95.28-8.73,25.8-20.63,45.49-32.65,54a15.69,15.69,0,0,1-15.95,1.41,16.09,16.09,0,0,1-9.18-13.36C150.68,205.58,146.48,168,128,168s-22.68,37.59-23.53,49.11a16.09,16.09,0,0,1-16,14.9,15.67,15.67,0,0,1-9.13-2.95c-12-8.53-23.92-28.22-32.65-54C40,155.15,32,122.47,32,79.75A56,56,0,0,1,88,24h80A56,56,0,0,1,224,79.75Zm-16,0A40,40,0,0,0,168,40H88A40,40,0,0,0,48,79.76c0,40.55,7.51,71.4,13.85,90.14,11.05,32.66,23,43.37,26.61,46C91.57,174.67,105.59,152,128,152s36.45,22.71,39.49,63.94h0c3.6-2.59,15.57-13.26,26.66-46C200.49,151.16,208,120.31,208,79.76Z"/></symbol>
  <symbol id="cat-dog" viewBox="0 0 256 256"><path d="M239.71,125l-16.42-88a16,16,0,0,0-19.61-12.58l-.31.09L150.85,40h-45.7L52.63,24.56l-.31-.09A16,16,0,0,0,32.71,37.05L16.29,125a15.77,15.77,0,0,0,9.12,17.52A16.26,16.26,0,0,0,32.12,144,15.48,15.48,0,0,0,40,141.84V184a40,40,0,0,0,40,40h96a40,40,0,0,0,40-40V141.85a15.5,15.5,0,0,0,7.87,2.16,16.31,16.31,0,0,0,6.72-1.47A15.77,15.77,0,0,0,239.71,125ZM32,128h0L48.43,40,90.5,52.37Zm144,80H136V195.31l13.66-13.65a8,8,0,0,0-11.32-11.32L128,180.69l-10.34-10.35a8,8,0,0,0-11.32,11.32L120,195.31V208H80a24,24,0,0,1-24-24V123.11L107.92,56h40.15L200,123.11V184A24,24,0,0,1,176,208Zm48-80L165.5,52.37,207.57,40,224,128ZM104,140a12,12,0,1,1-12-12A12,12,0,0,1,104,140Zm72,0a12,12,0,1,1-12-12A12,12,0,0,1,176,140Z"/></symbol>
  <!-- Büro & Bildung -->
  <symbol id="cat-briefcase" viewBox="0 0 256 256"><path d="M216,56H176V48a24,24,0,0,0-24-24H104A24,24,0,0,0,80,48v8H40A16,16,0,0,0,24,72V200a16,16,0,0,0,16,16H216a16,16,0,0,0,16-16V72A16,16,0,0,0,216,56ZM96,48a8,8,0,0,1,8-8h48a8,8,0,0,1,8,8v8H96ZM216,72v41.61A184,184,0,0,1,128,136a184.07,184.07,0,0,1-88-22.38V72Zm0,128H40V131.64A200.19,200.19,0,0,0,128,152a200.25,200.25,0,0,0,88-20.37V200ZM104,112a8,8,0,0,1,8-8h32a8,8,0,0,1,0,16H112A8,8,0,0,1,104,112Z"/></symbol>
  <symbol id="cat-graduation-cap" viewBox="0 0 256 256"><path d="M251.76,88.94l-120-64a8,8,0,0,0-7.52,0l-120,64a8,8,0,0,0,0,14.12L32,117.87v48.42a15.91,15.91,0,0,0,4.06,10.65C49.16,191.53,78.51,216,128,216a130,130,0,0,0,48-8.76V240a8,8,0,0,0,16,0V199.51a115.63,115.63,0,0,0,27.94-22.57A15.91,15.91,0,0,0,224,166.29V117.87l27.76-14.81a8,8,0,0,0,0-14.12ZM128,200c-43.27,0-68.72-21.14-80-33.71V126.4l76.24,40.66a8,8,0,0,0,7.52,0L176,143.47v46.34C163.4,195.69,147.52,200,128,200Zm80-33.75a97.83,97.83,0,0,1-16,14.25V134.93l16-8.53ZM188,118.94l-.22-.13-56-29.87a8,8,0,0,0-7.52,14.12L171,128l-43,22.93L25,96,128,41.07,231,96Z"/></symbol>
  <symbol id="cat-book-open" viewBox="0 0 256 256"><path d="M232,48H160a40,40,0,0,0-32,16A40,40,0,0,0,96,48H24a8,8,0,0,0-8,8V200a8,8,0,0,0,8,8H96a24,24,0,0,1,24,24,8,8,0,0,0,16,0,24,24,0,0,1,24-24h72a8,8,0,0,0,8-8V56A8,8,0,0,0,232,48ZM96,192H32V64H96a24,24,0,0,1,24,24V200A39.81,39.81,0,0,0,96,192Zm128,0H160a39.81,39.81,0,0,0-24,8V88a24,24,0,0,1,24-24h64Z"/></symbol>
  <symbol id="cat-pencil" viewBox="0 0 256 256"><path d="M227.31,73.37,182.63,28.68a16,16,0,0,0-22.63,0L36.69,152A15.86,15.86,0,0,0,32,163.31V208a16,16,0,0,0,16,16H92.69A15.86,15.86,0,0,0,104,219.31L227.31,96a16,16,0,0,0,0-22.63ZM51.31,160,136,75.31,152.69,92,68,176.68ZM48,179.31,76.69,208H48Zm48,25.38L79.31,188,164,103.31,180.69,120Zm96-96L147.31,64l24-24L216,84.68Z"/></symbol>
  <symbol id="cat-laptop" viewBox="0 0 256 256"><path d="M232,168h-8V72a24,24,0,0,0-24-24H56A24,24,0,0,0,32,72v96H24a8,8,0,0,0-8,8v16a24,24,0,0,0,24,24H216a24,24,0,0,0,24-24V176A8,8,0,0,0,232,168ZM48,72a8,8,0,0,1,8-8H200a8,8,0,0,1,8,8v96H48ZM224,192a8,8,0,0,1-8,8H40a8,8,0,0,1-8-8v-8H224ZM152,88a8,8,0,0,1-8,8H112a8,8,0,0,1,0-16h32A8,8,0,0,1,152,88Z"/></symbol>
  <symbol id="cat-paperclip" viewBox="0 0 256 256"><path d="M209.66,122.34a8,8,0,0,1,0,11.32l-82.05,82a56,56,0,0,1-79.2-79.21L147.67,35.73a40,40,0,1,1,56.61,56.55L105,193A24,24,0,1,1,71,159L154.3,74.38A8,8,0,1,1,165.7,85.6L82.39,170.31a8,8,0,1,0,11.27,11.36L192.93,81A24,24,0,1,0,159,47L59.76,147.68a40,40,0,1,0,56.53,56.62l82.06-82A8,8,0,0,1,209.66,122.34Z"/></symbol>
  <!-- Finanzen -->
  <symbol id="cat-wallet" viewBox="0 0 256 256"><path d="M216,64H56a8,8,0,0,1,0-16H192a8,8,0,0,0,0-16H56A24,24,0,0,0,32,56V184a24,24,0,0,0,24,24H216a16,16,0,0,0,16-16V80A16,16,0,0,0,216,64Zm0,128H56a8,8,0,0,1-8-8V78.63A23.84,23.84,0,0,0,56,80H216Zm-48-60a12,12,0,1,1,12,12A12,12,0,0,1,168,132Z"/></symbol>
  <symbol id="cat-credit-card" viewBox="0 0 256 256"><path d="M224,48H32A16,16,0,0,0,16,64V192a16,16,0,0,0,16,16H224a16,16,0,0,0,16-16V64A16,16,0,0,0,224,48Zm0,16V88H32V64Zm0,128H32V104H224v88Zm-16-24a8,8,0,0,1-8,8H168a8,8,0,0,1,0-16h32A8,8,0,0,1,208,168Zm-64,0a8,8,0,0,1-8,8H120a8,8,0,0,1,0-16h16A8,8,0,0,1,144,168Z"/></symbol>
  <symbol id="cat-bank" viewBox="0 0 256 256"><path d="M24,104H48v64H32a8,8,0,0,0,0,16H224a8,8,0,0,0,0-16H208V104h24a8,8,0,0,0,4.19-14.81l-104-64a8,8,0,0,0-8.38,0l-104,64A8,8,0,0,0,24,104Zm40,0H96v64H64Zm80,0v64H112V104Zm48,64H160V104h32ZM128,41.39,203.74,88H52.26ZM248,208a8,8,0,0,1-8,8H16a8,8,0,0,1,0-16H240A8,8,0,0,1,248,208Z"/></symbol>
  <symbol id="cat-coins" viewBox="0 0 256 256"><path d="M184,89.57V84c0-25.08-37.83-44-88-44S8,58.92,8,84v40c0,20.89,26.25,37.49,64,42.46V172c0,25.08,37.83,44,88,44s88-18.92,88-44V132C248,111.3,222.58,94.68,184,89.57ZM232,132c0,13.22-30.79,28-72,28-3.73,0-7.43-.13-11.08-.37C170.49,151.77,184,139,184,124V105.74C213.87,110.19,232,122.27,232,132ZM72,150.25V126.46A183.74,183.74,0,0,0,96,128a183.74,183.74,0,0,0,24-1.54v23.79A163,163,0,0,1,96,152,163,163,0,0,1,72,150.25Zm96-40.32V124c0,8.39-12.41,17.4-32,22.87V123.5C148.91,120.37,159.84,115.71,168,109.93ZM96,56c41.21,0,72,14.78,72,28s-30.79,28-72,28S24,97.22,24,84,54.79,56,96,56ZM24,124V109.93c8.16,5.78,19.09,10.44,32,13.57v23.37C36.41,141.4,24,132.39,24,124Zm64,48v-4.17c2.63.1,5.29.17,8,.17,3.88,0,7.67-.13,11.39-.35A121.92,121.92,0,0,0,120,171.41v23.46C100.41,189.4,88,180.39,88,172Zm48,26.25V174.4a179.48,179.48,0,0,0,24,1.6,183.74,183.74,0,0,0,24-1.54v23.79a165.45,165.45,0,0,1-48,0Zm64-3.38V171.5c12.91-3.13,23.84-7.79,32-13.57V172C232,180.39,219.59,189.4,200,194.87Z"/></symbol>
  <symbol id="cat-piggy-bank" viewBox="0 0 256 256"><path d="M192,116a12,12,0,1,1-12-12A12,12,0,0,1,192,116ZM152,64H112a8,8,0,0,0,0,16h40a8,8,0,0,0,0-16Zm96,48v32a24,24,0,0,1-24,24h-2.36l-16.21,45.38A16,16,0,0,1,190.36,224H177.64a16,16,0,0,1-15.07-10.62L160.65,208h-57.3l-1.92,5.38A16,16,0,0,1,86.36,224H73.64a16,16,0,0,1-15.07-10.62L46,178.22a87.69,87.69,0,0,1-21.44-48.38A16,16,0,0,0,16,144a8,8,0,0,1-16,0,32,32,0,0,1,24.28-31A88.12,88.12,0,0,1,112,32H216a8,8,0,0,1,0,16H194.61a87.93,87.93,0,0,1,30.17,37c.43,1,.85,2,1.25,3A24,24,0,0,1,248,112Zm-16,0a8,8,0,0,0-8-8h-3.66a8,8,0,0,1-7.64-5.6A71.9,71.9,0,0,0,144,48H112A72,72,0,0,0,58.91,168.64a8,8,0,0,1,1.64,2.71L73.64,208H86.36l3.82-10.69A8,8,0,0,1,97.71,192h68.58a8,8,0,0,1,7.53,5.31L177.64,208h12.72l18.11-50.69A8,8,0,0,1,216,152h8a8,8,0,0,0,8-8Z"/></symbol>
  <symbol id="cat-currency-eur" viewBox="0 0 256 256"><path d="M190,192.33a8,8,0,0,1-.63,11.3A80,80,0,0,1,56.4,152H40a8,8,0,0,1,0-16H56V120H40a8,8,0,0,1,0-16H56.4A80,80,0,0,1,189.34,52.37,8,8,0,0,1,178.66,64.3,64,64,0,0,0,72.52,104H136a8,8,0,0,1,0,16H72v16h48a8,8,0,0,1,0,16H72.52a64,64,0,0,0,106.14,39.71A8,8,0,0,1,190,192.33Z"/></symbol>
  <symbol id="cat-hand-coins" viewBox="0 0 256 256"><path d="M230.33,141.06a24.43,24.43,0,0,0-21.24-4.23l-41.84,9.62A28,28,0,0,0,140,112H89.94a31.82,31.82,0,0,0-22.63,9.37L44.69,144H16A16,16,0,0,0,0,160v40a16,16,0,0,0,16,16H120a7.93,7.93,0,0,0,1.94-.24l64-16a6.94,6.94,0,0,0,1.19-.4L226,182.82l.44-.2a24.6,24.6,0,0,0,3.93-41.56ZM16,160H40v40H16Zm203.43,8.21-38,16.18L119,200H56V155.31l22.63-22.62A15.86,15.86,0,0,1,89.94,128H140a12,12,0,0,1,0,24H112a8,8,0,0,0,0,16h32a8.32,8.32,0,0,0,1.79-.2l67-15.41.31-.08a8.6,8.6,0,0,1,6.3,15.9ZM164,96a36,36,0,0,0,5.9-.48,36,36,0,1,0,28.22-47A36,36,0,1,0,164,96Zm60-12a20,20,0,1,1-20-20A20,20,0,0,1,224,84ZM164,40a20,20,0,0,1,19.25,14.61,36,36,0,0,0-15,24.93A20.42,20.42,0,0,1,164,80a20,20,0,0,1,0-40Z"/></symbol>
  <symbol id="cat-receipt" viewBox="0 0 256 256"><path d="M72,104a8,8,0,0,1,8-8h96a8,8,0,0,1,0,16H80A8,8,0,0,1,72,104Zm8,40h96a8,8,0,0,0,0-16H80a8,8,0,0,0,0,16ZM232,56V208a8,8,0,0,1-11.58,7.15L192,200.94l-28.42,14.21a8,8,0,0,1-7.16,0L128,200.94,99.58,215.15a8,8,0,0,1-7.16,0L64,200.94,35.58,215.15A8,8,0,0,1,24,208V56A16,16,0,0,1,40,40H216A16,16,0,0,1,232,56Zm-16,0H40V195.06l20.42-10.22a8,8,0,0,1,7.16,0L96,199.06l28.42-14.22a8,8,0,0,1,7.16,0L160,199.06l28.42-14.22a8,8,0,0,1,7.16,0L216,195.06Z"/></symbol>
  <!-- Sonstiges -->
  <symbol id="cat-package" viewBox="0 0 256 256"><path d="M223.68,66.15,135.68,18a15.88,15.88,0,0,0-15.36,0l-88,48.17a16,16,0,0,0-8.32,14v95.64a16,16,0,0,0,8.32,14l88,48.17a15.88,15.88,0,0,0,15.36,0l88-48.17a16,16,0,0,0,8.32-14V80.18A16,16,0,0,0,223.68,66.15ZM128,32l80.34,44-29.77,16.3-80.35-44ZM128,120,47.66,76l33.9-18.56,80.34,44ZM40,90l80,43.78v85.79L40,175.82Zm176,85.78h0l-80,43.79V133.82l32-17.51V152a8,8,0,0,0,16,0V107.55L216,90v85.77Z"/></symbol>
  <symbol id="cat-star" viewBox="0 0 256 256"><path d="M239.18,97.26A16.38,16.38,0,0,0,224.92,86l-59-4.76L143.14,26.15a16.36,16.36,0,0,0-30.27,0L90.11,81.23,31.08,86a16.46,16.46,0,0,0-9.37,28.86l45,38.83L53,211.75a16.38,16.38,0,0,0,24.5,17.82L128,198.49l50.53,31.08A16.4,16.4,0,0,0,203,211.75l-13.76-58.07,45-38.83A16.43,16.43,0,0,0,239.18,97.26Zm-15.34,5.47-48.7,42a8,8,0,0,0-2.56,7.91l14.88,62.8a.37.37,0,0,1-.17.48c-.18.14-.23.11-.38,0l-54.72-33.65a8,8,0,0,0-8.38,0L69.09,215.94c-.15.09-.19.12-.38,0a.37.37,0,0,1-.17-.48l14.88-62.8a8,8,0,0,0-2.56-7.91l-48.7-42c-.12-.1-.23-.19-.13-.5s.18-.27.33-.29l63.92-5.16A8,8,0,0,0,103,91.86l24.62-59.61c.08-.17.11-.25.35-.25s.27.08.35.25L153,91.86a8,8,0,0,0,6.75,4.92l63.92,5.16c.15,0,.24,0,.33.29S224,102.63,223.84,102.73Z"/></symbol>
  <symbol id="cat-heart" viewBox="0 0 256 256"><path d="M178,40c-20.65,0-38.73,8.88-50,23.89C116.73,48.88,98.65,40,78,40a62.07,62.07,0,0,0-62,62c0,70,103.79,126.66,108.21,129a8,8,0,0,0,7.58,0C136.21,228.66,240,172,240,102A62.07,62.07,0,0,0,178,40ZM128,214.8C109.74,204.16,32,155.69,32,102A46.06,46.06,0,0,1,78,56c19.45,0,35.78,10.36,42.6,27a8,8,0,0,0,14.8,0c6.82-16.67,23.15-27,42.6-27a46.06,46.06,0,0,1,46,46C224,155.61,146.24,204.15,128,214.8Z"/></symbol>
  <symbol id="cat-sparkle" viewBox="0 0 256 256"><path d="M197.58,129.06,146,110l-19-51.62a15.92,15.92,0,0,0-29.88,0L78,110l-51.62,19a15.92,15.92,0,0,0,0,29.88L78,178l19,51.62a15.92,15.92,0,0,0,29.88,0L146,178l51.62-19a15.92,15.92,0,0,0,0-29.88ZM137,164.22a8,8,0,0,0-4.74,4.74L112,223.85,91.78,169A8,8,0,0,0,87,164.22L32.15,144,87,123.78A8,8,0,0,0,91.78,119L112,64.15,132.22,119a8,8,0,0,0,4.74,4.74L191.85,144ZM144,40a8,8,0,0,1,8-8h16V16a8,8,0,0,1,16,0V32h16a8,8,0,0,1,0,16H184V64a8,8,0,0,1-16,0V48H152A8,8,0,0,1,144,40ZM248,88a8,8,0,0,1-8,8h-8v8a8,8,0,0,1-16,0V96h-8a8,8,0,0,1,0-16h8V72a8,8,0,0,1,16,0v8h8A8,8,0,0,1,248,88Z"/></symbol>
  <symbol id="cat-globe" viewBox="0 0 256 256"><path d="M128,24h0A104,104,0,1,0,232,128,104.12,104.12,0,0,0,128,24Zm88,104a87.61,87.61,0,0,1-3.33,24H174.16a157.44,157.44,0,0,0,0-48h38.51A87.61,87.61,0,0,1,216,128ZM102,168H154a115.11,115.11,0,0,1-26,45A115.27,115.27,0,0,1,102,168Zm-3.9-16a140.84,140.84,0,0,1,0-48h59.88a140.84,140.84,0,0,1,0,48ZM40,128a87.61,87.61,0,0,1,3.33-24H81.84a157.44,157.44,0,0,0,0,48H43.33A87.61,87.61,0,0,1,40,128ZM154,88H102a115.11,115.11,0,0,1,26-45A115.27,115.27,0,0,1,154,88Zm52.33,0H170.71a135.28,135.28,0,0,0-22.3-45.6A88.29,88.29,0,0,1,206.37,88ZM107.59,42.4A135.28,135.28,0,0,0,85.29,88H49.63A88.29,88.29,0,0,1,107.59,42.4ZM49.63,168H85.29a135.28,135.28,0,0,0,22.3,45.6A88.29,88.29,0,0,1,49.63,168Zm98.78,45.6a135.28,135.28,0,0,0,22.3-45.6h35.66A88.29,88.29,0,0,1,148.41,213.6Z"/></symbol>
  <symbol id="cat-tag" viewBox="0 0 256 256"><path d="M243.31,136,144,36.69A15.86,15.86,0,0,0,132.69,32H40a8,8,0,0,0-8,8v92.69A15.86,15.86,0,0,0,36.69,144L136,243.31a16,16,0,0,0,22.63,0l84.68-84.68a16,16,0,0,0,0-22.63Zm-96,96L48,132.69V48h84.69L232,147.31ZM96,84A12,12,0,1,1,84,72,12,12,0,0,1,96,84Z"/></symbol>
  <symbol id="cat-question" viewBox="0 0 256 256"><path d="M140,180a12,12,0,1,1-12-12A12,12,0,0,1,140,180ZM128,72c-22.06,0-40,16.15-40,36v4a8,8,0,0,0,16,0v-4c0-11,10.77-20,24-20s24,9,24,20-10.77,20-24,20a8,8,0,0,0-8,8v8a8,8,0,0,0,16,0v-.72c18.24-3.35,32-17.9,32-35.28C168,88.15,150.06,72,128,72Zm104,56A104,104,0,1,1,128,24,104.11,104.11,0,0,1,232,128Zm-16,0a88,88,0,1,0-88,88A88.1,88.1,0,0,0,216,128Z"/></symbol>
</svg>
